<?xml version="1.0" standalone="no"?>
<!DOCTYPE svg PUBLIC "-//W3C//DTD SVG 20010904//EN"
 "http://www.w3.org/TR/2001/REC-SVG-20010904/DTD/svg10.dtd">
<svg version="1.0" xmlns="http://www.w3.org/2000/svg"
 width="563.000000pt" height="435.000000pt" viewBox="0 0 563.000000 435.000000"
 preserveAspectRatio="xMidYMid meet">

<g transform="translate(0.000000,435.000000) scale(0.100000,-0.100000)"
fill="#000000" stroke="none">
<path d="M1966 4331 c-3 -4 -4 -175 -3 -380 l2 -371 -820 0 c-671 0 -830 -3
-873 -14 -141 -38 -236 -142 -263 -289 -29 -155 56 -310 208 -380 l48 -22 848
-5 847 -5 3 -698 2 -697 -820 0 c-671 0 -830 -3 -873 -14 -141 -38 -236 -142
-263 -289 -29 -155 56 -310 208 -380 l48 -22 848 -5 848 -5 2 -370 2 -370 815
-3 c551 -2 847 1 915 8 401 45 792 207 1110 460 380 303 647 726 759 1200 42
176 57 311 57 495 0 346 -70 653 -213 939 -337 674 -1001 1141 -1728 1216
-118 12 -1707 13 -1714 1z m1791 -54 c463 -74 858 -274 1189 -602 180 -178
301 -344 412 -562 140 -277 207 -538 219 -858 28 -776 -359 -1493 -1027 -1901
-226 -138 -483 -232 -766 -281 -87 -14 -204 -17 -936 -20 l-838 -4 0 2126 0
2126 823 -4 c696 -3 838 -6 924 -20z m-1797 -1052 l0 -315 -842 2 -843 3 -49
24 c-63 31 -122 92 -152 156 -29 61 -32 167 -8 238 20 60 91 139 152 169 l47
23 845 5 c465 3 846 6 848 8 1 1 2 -140 2 -313z m0 -2110 l0 -315 -842 2 -843
3 -49 24 c-65 32 -122 90 -152 154 -29 63 -33 168 -8 240 20 60 91 139 152
169 l47 23 845 5 c465 3 846 6 848 8 1 1 2 -140 2 -313z"/>
<path d="M3070 2175 l0 -1125 50 0 50 0 0 1125 0 1125 -50 0 -50 0 0 -1125z"/>
<path d="M3750 2165 l0 -705 45 0 45 0 0 705 0 705 -45 0 -45 0 0 -705z"/>
<path d="M4320 2175 l0 -305 45 0 45 0 0 305 0 305 -45 0 -45 0 0 -305z"/>
</g>
</svg>
