<?xml version="1.0" encoding="UTF-8" standalone="no"?>
<!DOCTYPE svg PUBLIC "-//W3C//DTD SVG 1.1//EN" "http://www.w3.org/Graphics/SVG/1.1/DTD/svg11.dtd">
<svg xmlns="http://www.w3.org/2000/svg" version="1.1" viewBox="0 0 612 350">
<g stroke-width="2.00" fill="none" stroke-linecap="butt">
<path stroke="#ceeffc" vector-effect="non-scaling-stroke" d="
  M 260.96 58.25
  C 259.82 58.06 258.87 57.86 257.71 58.21
  C 149.74 91.11 99.06 213.87 156.72 312.61"
/>
<path stroke="#cee2e9" vector-effect="non-scaling-stroke" d="
  M 156.72 312.61
  C 156.11 312.88 155.45 313.02 154.74 313.01
  C 146.28 312.95 129.22 312.96 103.56 313.04
  C 103.25 313.04 103.00 313.29 103.00 313.60
  L 103.00 320.50
  C 103.00 320.78 103.22 321.00 103.50 321.00
  L 508.37 321.00
  C 508.72 321.00 509.00 320.72 509.00 320.37
  L 509.00 313.65
  C 509.00 313.30 508.71 313.01 508.36 313.01
  L 455.02 312.90"
/>
<path stroke="#a3e7fd" vector-effect="non-scaling-stroke" d="
  M 455.02 312.90
  C 486.10 259.74 486.86 195.57 457.90 141.39
  C 456.84 139.40 455.55 137.42 454.04 135.45"
/>
<path stroke="#ceeffc" vector-effect="non-scaling-stroke" d="
  M 454.04 135.45
  C 446.57 122.20 437.16 110.34 425.79 99.89
  C 425.62 99.74 425.52 99.53 425.49 99.31
  L 425.46 99.00"
/>
<path stroke="#a3e7fd" vector-effect="non-scaling-stroke" d="
  M 425.46 99.00
  C 442.10 72.85 406.46 47.13 386.25 71.54"
/>
<path stroke="#ceeffc" vector-effect="non-scaling-stroke" d="
  M 386.25 71.54
  C 375.57 64.72 361.70 60.15 349.48 56.95
  C 348.49 56.69 347.52 56.77 346.50 56.71"
/>
<path stroke="#80d5fc" vector-effect="non-scaling-stroke" d="
  M 346.50 56.71
  C 346.25 48.81 346.18 40.91 346.30 33.00
  C 346.34 30.37 345.26 29.06 343.07 29.05
  C 317.80 28.94 292.52 28.93 267.25 29.04
  C 265.74 29.05 264.21 29.21 262.66 29.54
  C 261.89 29.70 261.34 30.38 261.33 31.17
  L 260.96 58.25"
/>
<path stroke="#4ec5f9" vector-effect="non-scaling-stroke" d="
  M 346.50 56.71
  L 346.25 84.71"
/>
<path stroke="#0195f8" vector-effect="non-scaling-stroke" d="
  M 346.25 84.71
  L 332.01 85.08
  C 330.87 85.11 329.95 86.03 329.93 87.17
  L 329.46 114.25"
/>
<path stroke="#4ec5f9" vector-effect="non-scaling-stroke" d="
  M 329.46 114.25
  C 308.16 114.26 286.86 114.25 265.56 114.22
  C 262.52 114.21 261.10 112.91 261.09 109.77
  C 261.00 92.59 260.96 75.42 260.96 58.25"
/>
<path stroke="#71d7fa" vector-effect="non-scaling-stroke" d="
  M 386.25 71.54
  C 383.76 75.67 382.33 80.16 381.96 85.00"
/>
<path stroke="#4faff8" vector-effect="non-scaling-stroke" d="
  M 381.96 85.00
  L 346.25 84.71"
/>
<path stroke="#4faff8" vector-effect="non-scaling-stroke" d="
  M 329.46 114.25
  C 329.81 125.64 329.94 137.04 329.84 148.44
  C 329.82 150.95 331.04 152.20 333.50 152.21
  C 353.25 152.26 373.01 152.26 392.77 152.23
  C 395.26 152.23 396.97 151.81 396.97 149.00
  C 396.97 135.40 397.00 121.69 397.05 107.87"
/>
<path stroke="#71d7fa" vector-effect="non-scaling-stroke" d="
  M 397.05 107.87
  C 408.67 111.13 418.14 108.17 425.46 99.00"
/>
<path stroke="#71d7fa" vector-effect="non-scaling-stroke" d="
  M 454.04 135.45
  C 453.51 155.63 453.34 168.79 453.51 174.94
  C 453.78 184.55 453.77 191.82 453.46 196.75"
/>
<path stroke="#ceeffc" vector-effect="non-scaling-stroke" d="
  M 453.46 196.75
  L 448.25 196.46"
/>
<path stroke="#7baec2" vector-effect="non-scaling-stroke" d="
  M 448.25 196.46
  L 448.22 179.50
  C 448.22 179.22 448.00 179.00 447.72 179.00
  L 432.92 179.00
  C 432.66 179.00 432.48 179.25 432.56 179.50
  C 432.59 179.61 440.42 181.17 440.50 181.19
  C 440.80 181.27 441.00 181.54 441.00 181.84
  L 441.00 185.80
  C 441.00 186.10 440.74 186.34 440.44 186.32
  L 428.64 185.32
  C 428.28 185.29 427.95 185.53 427.86 185.88
  L 427.54 187.23
  C 427.46 187.60 427.63 187.98 427.96 188.16
  C 430.07 189.35 432.09 189.16 434.12 190.15
  C 436.13 191.14 438.15 192.13 440.18 193.14
  C 440.46 193.28 440.67 193.53 440.76 193.84
  L 441.50 196.46"
/>
<path stroke="#ceeffc" vector-effect="non-scaling-stroke" d="
  M 441.50 196.46
  L 395.27 196.17"
/>
<path stroke="#c0afa8" vector-effect="non-scaling-stroke" d="
  M 395.27 196.17
  C 389.50 194.17 385.46 195.68 383.15 200.70
  C 381.13 205.09 383.22 208.48 379.99 213.30
  C 377.04 217.70 374.18 222.18 371.41 226.73
  C 371.26 226.98 370.97 227.09 370.69 227.00
  L 361.92 224.12"
/>
<path stroke="#c0eafb" vector-effect="non-scaling-stroke" d="
  M 361.92 224.12
  L 361.41 223.08
  C 361.26 222.77 361.00 222.52 360.68 222.39
  C 356.86 220.88 353.24 218.99 349.82 216.72
  C 349.61 216.58 349.32 216.64 349.19 216.86
  L 348.96 217.25"
/>
<path stroke="#4e96b4" vector-effect="non-scaling-stroke" d="
  M 348.96 217.25
  L 348.54 216.75"
/>
<path stroke="#c0afa8" vector-effect="non-scaling-stroke" d="
  M 348.54 216.75
  L 350.22 213.28
  C 350.35 213.01 350.68 212.90 350.94 213.06
  C 352.73 214.15 354.68 214.73 356.77 214.78
  C 357.10 214.79 357.41 214.63 357.61 214.37
  C 359.28 212.18 360.53 208.49 363.51 208.22
  C 363.80 208.20 364.04 207.98 364.07 207.69
  C 364.20 206.54 364.10 205.39 363.77 204.24
  C 363.68 203.93 363.66 203.61 363.73 203.29
  L 365.50 194.79"
/>
<path stroke="#7f9198" vector-effect="non-scaling-stroke" d="
  M 365.50 194.79
  L 367.75 193.96"
/>
<path stroke="#c5798a" vector-effect="non-scaling-stroke" d="
  M 367.75 193.96
  C 369.91 195.05 371.96 195.01 373.91 193.82
  C 374.28 193.60 374.27 193.39 373.89 193.19
  L 365.84 188.96
  C 365.54 188.80 365.29 188.55 365.13 188.25
  C 363.28 184.79 361.82 182.79 360.75 182.25
  C 350.05 176.89 338.81 183.68 341.46 196.00"
/>
<path stroke="#7f9198" vector-effect="non-scaling-stroke" d="
  M 341.46 196.00
  L 341.25 202.46"
/>
<path stroke="#c0afa8" vector-effect="non-scaling-stroke" d="
  M 341.25 202.46
  C 340.20 204.35 338.85 205.79 337.18 206.79"
/>
<path stroke="#c0eafb" vector-effect="non-scaling-stroke" d="
  M 337.18 206.79
  C 329.55 209.76 324.39 215.15 321.72 222.96"
/>
<path stroke="#4e96b4" vector-effect="non-scaling-stroke" d="
  M 321.72 222.96
  C 319.39 227.30 317.83 230.98 317.03 234.00
  C 313.13 248.75 312.28 265.56 312.16 281.48
  C 312.10 290.69 316.39 296.41 325.04 298.62
  C 325.37 298.71 325.38 298.83 325.09 298.99
  C 318.95 302.36 309.49 304.47 305.23 309.84
  C 305.03 310.09 304.94 310.41 304.99 310.73
  C 305.06 311.22 305.25 311.64 305.54 312.00"
/>
<path stroke="#9cd2e6" vector-effect="non-scaling-stroke" d="
  M 305.54 312.00
  C 305.16 312.61 304.80 313.00 304.01 313.00
  C 290.28 313.01 276.54 313.01 262.81 312.98
  C 262.08 312.98 261.77 312.74 261.87 312.25"
/>
<path stroke="#4e96b4" vector-effect="non-scaling-stroke" d="
  M 261.87 312.25
  C 261.25 296.02 261.24 278.87 261.83 260.82
  C 262.41 242.98 262.15 224.38 261.06 205.01
  C 260.79 200.30 259.44 194.62 257.00 187.96"
/>
<path stroke="#c0afa8" vector-effect="non-scaling-stroke" d="
  M 257.00 187.96
  C 260.50 185.23 269.51 181.67 268.49 176.57
  C 267.84 173.33 266.16 169.14 263.46 164.00"
/>
<path stroke="#c0eafb" vector-effect="non-scaling-stroke" d="
  M 263.46 164.00
  C 264.36 161.05 260.50 154.40 259.37 151.29
  C 259.26 150.98 259.05 150.72 258.78 150.54
  C 254.56 147.78 253.87 141.33 248.65 138.65
  C 245.68 137.12 240.54 135.77 236.75 135.79"
/>
<path stroke="#4e96b4" vector-effect="non-scaling-stroke" d="
  M 236.75 135.79
  C 235.03 135.22 233.28 135.06 231.50 135.29"
/>
<path stroke="#c0eafb" vector-effect="non-scaling-stroke" d="
  M 231.50 135.29
  L 229.79 135.50"
/>
<path stroke="#c0afa8" vector-effect="non-scaling-stroke" d="
  M 229.79 135.50
  L 228.46 130.25"
/>
<path stroke="#7f9198" vector-effect="non-scaling-stroke" d="
  M 228.46 130.25
  C 230.15 126.89 230.84 123.45 230.53 119.93"
/>
<path stroke="#c5798a" vector-effect="non-scaling-stroke" d="
  M 230.53 119.93
  C 233.15 99.71 205.00 102.60 207.81 118.53
  C 207.87 118.85 207.79 119.18 207.59 119.43
  L 204.49 123.34
  C 204.06 123.88 204.64 124.64 205.28 124.37
  L 210.20 122.27"
/>
<path stroke="#c0afa8" vector-effect="non-scaling-stroke" d="
  M 210.20 122.27
  C 210.03 129.23 212.77 134.51 218.42 138.10"
/>
<path stroke="#c0eafb" vector-effect="non-scaling-stroke" d="
  M 218.42 138.10
  L 217.79 139.75"
/>
<path stroke="#4e96b4" vector-effect="non-scaling-stroke" d="
  M 217.79 139.75
  L 217.76 139.29
  C 217.74 139.04 217.48 138.87 217.24 138.95
  C 215.45 139.58 214.02 140.68 212.96 142.25"
/>
<path stroke="#c0eafb" vector-effect="non-scaling-stroke" d="
  M 212.96 142.25
  C 203.09 146.94 198.58 155.27 191.92 165.62
  C 191.23 166.69 191.43 167.69 192.29 168.50"
/>
<path stroke="#c0afa8" vector-effect="non-scaling-stroke" d="
  M 192.29 168.50
  C 187.37 175.84 179.29 181.92 172.45 187.45
  C 171.22 188.44 169.59 189.38 167.56 190.26
  C 163.71 191.93 160.29 194.28 157.30 197.32"
/>
<path stroke="#ceeffc" vector-effect="non-scaling-stroke" d="
  M 157.30 197.32
  C 154.95 197.95 152.40 198.21 149.65 198.09
  C 149.37 198.08 149.13 198.29 149.10 198.57
  C 148.84 200.96 148.71 203.02 148.71 204.75
  C 148.74 215.80 148.93 228.66 149.30 243.33
  C 149.34 244.77 149.98 245.42 151.24 245.87
  C 151.54 245.98 151.78 246.22 151.87 246.53
  L 154.31 254.41
  C 154.40 254.71 154.64 254.93 154.94 254.99
  L 161.25 256.29"
/>
<path stroke="#c0eafb" vector-effect="non-scaling-stroke" d="
  M 161.25 256.29
  C 166.27 263.97 171.29 271.65 176.30 279.34
  C 177.43 281.07 177.21 281.87 177.54 283.75"
/>
<path stroke="#ceeffc" vector-effect="non-scaling-stroke" d="
  M 177.54 283.75
  L 174.59 308.15
  C 174.55 308.49 174.30 308.78 173.96 308.87
  L 171.62 309.50
  C 171.32 309.58 171.06 309.77 170.89 310.03
  C 170.43 310.75 170.23 311.57 170.29 312.50"
/>
<path stroke="#9cd2e6" vector-effect="non-scaling-stroke" d="
  M 170.29 312.50
  C 169.72 313.63 158.12 312.79 156.72 312.61"
/>
<path stroke="#24a7f9" vector-effect="non-scaling-stroke" d="
  M 397.05 107.87
  C 394.91 106.48 392.36 105.27 390.56 103.73
  C 384.97 98.94 382.11 92.69 381.96 85.00"
/>
<path stroke="#72a1b5" vector-effect="non-scaling-stroke" d="
  M 348.96 217.25
  C 350.13 219.87 351.00 222.58 351.55 225.39
  C 352.22 228.79 353.87 233.31 353.21 238.00"
/>
<path stroke="#4e96b4" vector-effect="non-scaling-stroke" d="
  M 353.21 238.00
  L 352.00 243.29"
/>
<path stroke="#72a1b5" vector-effect="non-scaling-stroke" d="
  M 352.00 243.29
  C 351.53 241.52 351.10 239.74 350.71 237.94
  C 348.85 229.33 352.66 221.62 345.08 215.36
  C 333.93 206.15 324.70 222.90 323.26 231.50
  C 322.84 234.04 320.73 252.21 323.44 255.98
  C 323.62 256.23 323.93 256.35 324.23 256.29
  C 329.25 255.38 333.62 253.14 337.34 249.57"
/>
<path stroke="#726662" vector-effect="non-scaling-stroke" d="
  M 337.34 249.57
  C 338.61 253.19 339.91 256.63 341.24 259.88
  C 342.37 262.64 344.13 263.38 346.75 264.21"
/>
<path stroke="#4e96b4" vector-effect="non-scaling-stroke" d="
  M 346.75 264.21
  C 346.39 264.35 346.21 264.53 346.22 264.76
  C 346.23 265.26 346.63 265.68 347.13 265.71
  C 356.77 266.28 366.67 266.08 376.00 268.04"
/>
<path stroke="#772f44" vector-effect="non-scaling-stroke" d="
  M 376.00 268.04
  C 374.36 269.27 372.90 273.12 376.38 273.07
  C 376.70 273.06 377.01 272.94 377.26 272.73
  L 381.00 269.46"
/>
<path stroke="#4e96b4" vector-effect="non-scaling-stroke" d="
  M 381.00 269.46
  C 385.44 270.57 389.35 273.57 389.00 278.26
  C 388.52 284.87 378.40 289.52 373.38 292.27
  C 373.17 292.38 373.15 292.67 373.34 292.81
  C 374.99 294.06 376.60 295.38 378.15 296.75
  C 383.11 301.15 381.84 307.66 377.21 311.75"
/>
<path stroke="#4e88a1" vector-effect="non-scaling-stroke" d="
  M 377.21 311.75
  C 375.58 312.58 374.26 312.99 373.25 312.99
  C 359.25 313.00 345.25 313.00 331.24 312.99
  C 330.92 312.99 330.63 312.83 330.46 312.56
  L 329.96 311.75"
/>
<path stroke="#726662" vector-effect="non-scaling-stroke" d="
  M 329.96 311.75
  L 331.05 307.53
  C 331.11 307.32 330.91 307.12 330.70 307.18
  C 328.63 307.73 327.32 309.08 326.75 311.21"
/>
<path stroke="#4e88a1" vector-effect="non-scaling-stroke" d="
  M 326.75 311.21
  C 326.26 312.12 325.61 312.52 324.82 312.42
  C 319.21 311.70 314.02 311.89 309.25 312.99
  C 308.28 313.22 307.04 312.89 305.54 312.00"
/>
<path stroke="#726662" vector-effect="non-scaling-stroke" d="
  M 257.00 187.96
  C 253.26 189.91 249.61 192.02 246.06 194.30
  C 244.03 195.60 243.49 197.43 242.36 199.50"
/>
<path stroke="#f2bfab" vector-effect="non-scaling-stroke" d="
  M 242.36 199.50
  C 240.54 201.09 236.31 207.11 234.58 207.75
  C 233.51 208.15 233.30 207.88 233.94 206.94
  C 234.50 206.11 236.98 202.75 236.76 201.92
  C 236.65 201.53 236.46 201.49 236.18 201.78
  C 235.16 202.86 232.38 207.04 231.07 207.01
  C 230.71 207.00 230.50 206.60 230.70 206.31
  L 234.29 200.90
  C 234.46 200.64 234.54 200.32 234.50 200.00
  L 234.44 199.55
  C 234.41 199.33 234.14 199.25 234.00 199.42
  C 233.40 200.12 228.59 206.30 227.96 204.76
  C 227.81 204.38 227.89 203.94 228.18 203.65
  L 233.15 198.55
  C 233.36 198.34 233.36 198.00 233.15 197.79
  L 232.93 197.55
  C 232.70 197.31 232.32 197.29 232.08 197.52
  C 231.29 198.27 227.34 203.20 226.45 202.15
  C 226.25 201.91 226.25 201.57 226.45 201.33
  L 231.25 195.54"
/>
<path stroke="#a72a28" vector-effect="non-scaling-stroke" d="
  M 230.53 119.93
  C 227.77 117.02 224.93 116.95 222.00 119.71"
/>
<path stroke="#e94938" vector-effect="non-scaling-stroke" d="
  M 222.00 119.71
  C 218.42 121.91 214.49 122.76 210.20 122.27"
/>
<path stroke="#c0eafb" vector-effect="non-scaling-stroke" d="
  M 211.88 171.46
  C 209.46 171.09 207.48 172.34 205.93 175.20
  C 205.36 176.25 204.23 176.60 202.54 176.25"
/>
<path stroke="#e4baa9" vector-effect="non-scaling-stroke" d="
  M 202.54 176.25
  L 202.49 175.81
  C 202.46 175.58 202.34 175.37 202.14 175.24
  L 192.29 168.50"
/>
<path stroke="#71cae7" vector-effect="non-scaling-stroke" d="
  M 455.02 312.90
  L 453.25 312.71"
/>
<path stroke="#71d7fa" vector-effect="non-scaling-stroke" d="
  M 453.25 312.71
  C 453.62 308.99 453.80 306.59 453.79 305.50
  C 453.56 288.04 453.54 270.65 453.73 253.34"
/>
<path stroke="#50a6c3" vector-effect="non-scaling-stroke" d="
  M 453.73 253.34
  L 453.21 243.75"
/>
<path stroke="#71d7fa" vector-effect="non-scaling-stroke" d="
  M 453.21 243.75
  C 454.80 240.70 453.64 228.48 453.46 224.50"
/>
<path stroke="#95e2fc" vector-effect="non-scaling-stroke" d="
  M 453.46 224.50
  L 453.46 202.00"
/>
<path stroke="#a3e7fd" vector-effect="non-scaling-stroke" d="
  M 453.46 202.00
  L 453.46 196.75"
/>
<path stroke="#acbec5" vector-effect="non-scaling-stroke" d="
  M 448.25 196.46
  L 441.50 196.46"
/>
<path stroke="#a36146" vector-effect="non-scaling-stroke" d="
  M 228.46 130.25
  C 227.60 129.46 227.06 128.49 226.83 127.35
  C 226.77 127.03 226.82 126.71 226.97 126.43
  C 227.86 124.79 227.96 123.11 227.26 121.40
  C 227.01 120.76 226.19 120.59 225.69 121.06
  C 224.84 121.87 223.93 122.12 222.95 121.80
  C 222.68 121.71 222.51 121.44 222.56 121.16
  C 222.69 120.47 222.50 119.98 222.00 119.71"
/>
<path stroke="#c0afa8" vector-effect="non-scaling-stroke" d="
  M 202.54 176.25
  C 198.03 181.82 192.91 185.88 187.18 188.44
  C 180.47 191.43 175.07 194.29 170.96 197.02"
/>
<path stroke="#f2bfab" vector-effect="non-scaling-stroke" d="
  M 170.96 197.02
  C 166.81 198.11 162.25 198.21 157.30 197.32"
/>
<path stroke="#f2bfab" vector-effect="non-scaling-stroke" d="
  M 395.27 196.17
  C 392.70 196.41 385.51 195.85 386.93 200.59
  C 387.02 200.89 387.24 201.13 387.54 201.24
  C 388.49 201.61 389.07 202.28 389.29 203.25"
/>
<path stroke="#e4baa9" vector-effect="non-scaling-stroke" d="
  M 389.29 203.25
  C 389.65 206.14 389.40 208.98 388.54 211.75"
/>
<path stroke="#c0afa8" vector-effect="non-scaling-stroke" d="
  M 388.54 211.75
  C 387.88 212.69 387.41 213.72 387.13 214.83
  C 385.34 222.00 382.83 228.91 379.60 235.54
  C 378.00 238.83 376.52 240.37 372.76 239.73
  C 370.19 239.30 365.86 238.80 359.79 238.25"
/>
<path stroke="#e4baa9" vector-effect="non-scaling-stroke" d="
  M 359.79 238.25
  L 361.92 224.12"
/>
<path stroke="#f2fafe" vector-effect="non-scaling-stroke" d="
  M 453.46 202.00
  C 453.26 202.49 452.19 203.27 451.76 202.55
  C 451.65 202.37 451.46 202.26 451.26 202.26
  C 432.67 202.25 414.09 202.25 395.50 202.26
  C 393.37 202.27 391.30 202.60 389.29 203.25"
/>
<path stroke="#72a1b5" vector-effect="non-scaling-stroke" d="
  M 344.67 212.83
  C 335.51 206.53 327.46 215.64 321.72 222.96"
/>
<path stroke="#a36146" vector-effect="non-scaling-stroke" d="
  M 365.50 194.79
  C 361.59 193.65 358.49 194.44 356.21 197.15
  C 355.56 197.93 354.36 197.92 353.72 197.13
  L 351.83 194.81
  C 351.64 194.57 351.32 194.47 351.02 194.55
  C 347.11 195.64 349.93 202.96 341.25 202.46"
/>
<path stroke="#e4baa9" vector-effect="non-scaling-stroke" d="
  M 263.46 164.00
  C 261.18 163.98 254.82 167.99 252.26 169.08
  C 252.02 169.18 251.94 169.48 252.09 169.69
  C 253.51 171.77 256.28 175.67 253.29 177.25"
/>
<path stroke="#72a1b5" vector-effect="non-scaling-stroke" d="
  M 236.75 135.79
  C 233.93 151.88 240.58 165.17 252.40 175.71
  C 252.74 176.02 253.09 176.83 253.29 177.25"
/>
<path stroke="#726662" vector-effect="non-scaling-stroke" d="
  M 253.29 177.25
  C 250.17 180.50 247.01 183.71 243.80 186.88
  C 240.11 190.52 235.56 192.57 231.25 195.54"
/>
<path stroke="#80a6b7" vector-effect="non-scaling-stroke" d="
  M 231.25 195.54
  C 225.34 193.78 219.56 191.68 213.91 189.23
  C 213.82 189.19 213.76 189.12 213.75 189.03
  L 213.71 188.75"
/>
<path stroke="#4e96b4" vector-effect="non-scaling-stroke" d="
  M 213.71 188.75
  C 213.36 182.91 212.12 177.29 211.88 171.46"
/>
<path stroke="#72a1b5" vector-effect="non-scaling-stroke" d="
  M 211.88 171.46
  L 212.96 142.25"
/>
<path stroke="#72a1b5" vector-effect="non-scaling-stroke" d="
  M 217.79 139.75
  C 217.19 144.14 217.05 148.61 217.38 153.16
  C 217.40 153.47 217.68 153.69 217.99 153.64
  L 230.09 151.82
  C 230.35 151.79 230.54 151.56 230.52 151.30
  C 230.19 145.89 230.51 140.55 231.50 135.29"
/>
<path stroke="#e4baa9" vector-effect="non-scaling-stroke" d="
  M 229.79 135.50
  C 228.21 139.70 220.24 144.91 218.42 138.10"
/>
<path stroke="#726662" vector-effect="non-scaling-stroke" d="
  M 348.54 216.75
  L 344.67 212.83"
/>
<path stroke="#e4baa9" vector-effect="non-scaling-stroke" d="
  M 344.67 212.83
  C 342.65 210.28 340.15 208.26 337.18 206.79"
/>
<path stroke="#4e88a1" vector-effect="non-scaling-stroke" d="
  M 261.87 312.25
  C 259.75 313.28 244.00 313.70 243.04 312.00"
/>
<path stroke="#4e96b4" vector-effect="non-scaling-stroke" d="
  M 243.04 312.00
  C 243.17 309.88 243.95 308.50 245.38 307.86
  C 250.71 305.48 249.58 303.22 248.98 297.73
  C 247.90 287.76 246.49 277.84 244.75 267.96"
/>
<path stroke="#80a6b7" vector-effect="non-scaling-stroke" d="
  M 244.75 267.96
  L 245.42 256.00
  C 245.44 255.73 245.68 255.54 245.94 255.59
  C 251.71 256.63 250.49 250.15 249.86 247.01
  C 249.80 246.71 249.57 246.47 249.27 246.40
  C 247.33 245.96 241.64 246.32 241.17 245.28
  C 240.90 244.69 241.33 244.02 241.98 244.02
  L 248.78 244.02
  C 249.17 244.02 249.47 243.70 249.45 243.31
  L 249.35 241.16
  C 249.33 240.78 249.02 240.48 248.64 240.47
  L 240.25 240.21"
/>
<path stroke="#4e96b4" vector-effect="non-scaling-stroke" d="
  M 240.25 240.21
  C 240.14 236.89 239.61 233.65 238.65 230.48
  C 238.55 230.15 238.45 230.15 238.36 230.48
  C 237.44 233.65 237.07 236.90 237.25 240.21"
/>
<path stroke="#80a6b7" vector-effect="non-scaling-stroke" d="
  M 237.25 240.21
  L 217.50 240.46"
/>
<path stroke="#80a6b7" vector-effect="non-scaling-stroke" d="
  M 216.25 215.21
  L 247.80 226.73
  C 248.88 227.12 250.08 226.56 250.48 225.48
  L 257.28 206.84
  C 257.50 206.23 257.20 205.55 256.59 205.30
  L 242.36 199.50"
/>
<path stroke="#ceeffc" vector-effect="non-scaling-stroke" d="
  M 237.25 240.21
  L 240.25 240.21"
/>
<path stroke="#ceeffc" vector-effect="non-scaling-stroke" d="
  M 244.75 267.96
  L 244.42 268.01
  C 244.29 268.03 244.18 268.13 244.14 268.26
  C 242.51 273.51 239.40 277.64 234.81 280.63
  C 234.53 280.81 234.35 281.11 234.32 281.44
  C 234.24 282.27 234.29 283.37 234.46 284.76
  C 235.45 292.46 236.42 300.17 237.38 307.88
  C 237.42 308.24 237.64 308.55 237.96 308.72
  L 239.46 309.50
  C 239.71 309.64 239.91 309.85 240.03 310.11
  C 240.36 310.90 240.44 311.85 240.25 312.94"
/>
<path stroke="#cee2e9" vector-effect="non-scaling-stroke" d="
  M 240.25 312.94
  L 171.66 313.00
  C 171.37 313.00 171.09 312.93 170.83 312.79
  L 170.29 312.50"
/>
<path stroke="#f2fafe" vector-effect="non-scaling-stroke" d="
  M 177.54 283.75
  L 179.01 282.94
  C 179.08 282.90 179.15 282.94 179.17 283.01
  L 179.24 283.28
  C 179.35 283.71 179.50 283.72 179.68 283.31
  C 181.18 279.94 181.81 277.25 186.50 277.00
  C 188.78 276.87 192.29 276.92 197.03 277.13
  C 197.36 277.14 197.67 277.25 197.94 277.44
  C 201.37 279.81 208.32 283.62 208.16 288.37
  C 207.97 294.12 207.74 299.75 207.47 305.27
  C 207.42 306.26 206.61 307.03 205.62 307.04
  L 177.85 307.13
  C 177.55 307.13 177.28 307.33 177.18 307.62
  L 177.01 308.14
  C 176.92 308.43 177.14 308.73 177.45 308.72
  C 188.82 308.25 200.72 308.97 211.89 308.99
  C 212.28 309.00 212.59 308.65 212.55 308.26
  C 211.84 301.41 211.07 294.74 210.24 288.25
  C 209.90 285.54 208.82 283.03 206.27 281.41
  C 197.44 275.82 195.61 268.89 192.24 259.31
  C 192.03 258.72 192.46 258.09 193.09 258.07
  C 207.07 257.72 221.29 257.61 235.76 257.76
  C 238.09 257.78 240.35 257.36 242.63 256.93
  C 242.86 256.89 243.03 256.68 243.03 256.45
  C 243.02 256.22 242.85 256.02 242.62 255.98
  C 241.11 255.74 239.57 255.62 238.00 255.62
  C 213.03 255.53 188.05 255.50 163.08 255.51
  C 162.39 255.51 161.74 255.88 161.25 256.29"
/>
<path stroke="#a72a28" vector-effect="non-scaling-stroke" d="
  M 367.75 193.96
  C 364.80 193.00 362.93 191.82 359.66 192.28
  C 353.52 193.15 347.45 194.39 341.46 196.00"
/>
<path stroke="#c0a295" vector-effect="non-scaling-stroke" d="
  M 329.96 311.75
  L 326.75 311.21"
/>
<path stroke="#c5798a" vector-effect="non-scaling-stroke" d="
  M 380.04 264.50
  C 378.93 265.95 377.58 267.13 376.00 268.04"
/>
<path stroke="#7baec2" vector-effect="non-scaling-stroke" d="
  M 418.25 225.29
  C 419.62 227.68 419.79 230.07 418.74 232.45
  C 418.61 232.74 418.61 233.07 418.73 233.36
  C 420.09 236.67 419.80 241.27 419.76 244.84
  C 419.74 246.81 418.91 249.64 419.55 252.48
  C 420.27 255.66 418.95 258.38 419.30 261.15
  C 421.09 275.31 440.07 275.05 441.46 260.66
  C 441.68 258.48 440.83 256.11 441.38 253.53
  C 441.45 253.23 441.69 253.00 441.99 252.95
  C 445.90 252.33 449.81 252.46 453.73 253.34"
/>
<path stroke="#9cd2e6" vector-effect="non-scaling-stroke" d="
  M 453.25 312.71
  C 452.08 313.85 388.56 313.00 381.48 313.00
  C 379.84 313.00 378.18 313.89 377.21 311.75"
/>
<path stroke="#c5798a" vector-effect="non-scaling-stroke" d="
  M 381.00 269.46
  L 384.54 266.00"
/>
<path stroke="#c0afa8" vector-effect="non-scaling-stroke" d="
  M 384.54 266.00
  C 386.03 265.33 387.40 265.47 388.63 266.44
  C 388.86 266.62 389.18 266.62 389.41 266.44
  C 392.65 263.93 394.50 260.61 394.96 256.50"
/>
<path stroke="#c5798a" vector-effect="non-scaling-stroke" d="
  M 394.96 256.50
  L 404.71 247.47
  C 404.97 247.23 405.30 247.06 405.65 246.99
  L 407.04 246.73
  C 407.53 246.64 407.60 246.41 407.25 246.06
  L 404.00 242.71"
/>
<path stroke="#7baec2" vector-effect="non-scaling-stroke" d="
  M 404.00 242.71
  C 403.32 241.13 403.70 240.04 405.14 239.44
  C 405.38 239.33 405.67 239.43 405.80 239.66
  C 406.82 241.48 408.17 243.01 409.85 244.24
  C 410.12 244.44 410.48 244.47 410.78 244.33
  C 414.25 242.70 409.45 231.83 404.80 236.05
  C 402.31 238.31 400.63 239.72 399.75 240.29"
/>
<path stroke="#c5798a" vector-effect="non-scaling-stroke" d="
  M 399.75 240.29
  C 397.39 238.69 394.62 239.47 394.29 242.50"
/>
<path stroke="#7baec2" vector-effect="non-scaling-stroke" d="
  M 394.29 242.50
  C 394.27 245.58 390.43 249.30 388.52 251.14
  C 388.28 251.36 388.18 251.69 388.24 252.00
  C 388.33 252.41 388.51 252.83 388.78 253.24
  C 389.13 253.76 389.89 253.76 390.25 253.25
  C 390.99 252.18 391.89 251.43 392.96 251.00"
/>
<path stroke="#c5798a" vector-effect="non-scaling-stroke" d="
  M 392.96 251.00
  C 393.08 252.65 392.31 253.95 390.65 254.90"
/>
<path stroke="#c0afa8" vector-effect="non-scaling-stroke" d="
  M 390.65 254.90
  C 384.64 254.37 378.76 254.87 372.75 253.68
  C 366.24 252.39 359.61 251.72 352.87 251.65
  C 352.58 251.65 352.34 251.44 352.30 251.15
  L 351.46 245.00"
/>
<path stroke="#c0eafb" vector-effect="non-scaling-stroke" d="
  M 351.46 245.00
  L 352.00 243.29"
/>
<path stroke="#c0eafb" vector-effect="non-scaling-stroke" d="
  M 353.21 238.00
  C 355.37 238.71 357.56 238.80 359.79 238.25"
/>
<path stroke="#e4baa9" vector-effect="non-scaling-stroke" d="
  M 351.46 245.00
  C 347.07 247.25 342.36 248.78 337.34 249.57"
/>
<path stroke="#e94938" vector-effect="non-scaling-stroke" d="
  M 384.54 266.00
  C 383.27 264.90 381.77 264.40 380.04 264.50"
/>
<path stroke="#c0afa8" vector-effect="non-scaling-stroke" d="
  M 380.04 264.50
  C 378.31 262.25 375.96 261.41 372.99 261.97
  C 364.32 263.62 355.58 264.37 346.75 264.21"
/>
<path stroke="#ceeffc" vector-effect="non-scaling-stroke" d="
  M 213.71 188.75
  C 212.59 189.39 211.72 189.84 211.21 191.13
  C 208.78 197.23 206.60 203.21 204.67 209.08
  C 204.43 209.81 204.80 210.59 205.51 210.88
  L 216.25 215.21"
/>
<path stroke="#4e96b4" vector-effect="non-scaling-stroke" d="
  M 216.25 215.21
  L 217.00 239.72
  C 217.01 239.94 217.11 240.15 217.28 240.28
  L 217.50 240.46"
/>
<path stroke="#ceeffc" vector-effect="non-scaling-stroke" d="
  M 217.50 240.46
  L 180.57 240.50
  C 179.83 240.51 179.24 241.09 179.22 241.83
  L 179.16 245.36
  C 179.15 245.72 178.87 246.00 178.52 246.00
  L 172.45 246.00
  C 172.03 246.00 171.77 245.55 171.98 245.18
  L 172.96 243.47
  C 173.13 243.16 173.22 242.84 173.22 242.49
  L 173.50 199.33
  C 173.50 198.99 173.38 198.66 173.15 198.41
  C 172.70 197.89 171.97 197.43 170.96 197.02"
/>
<path stroke="#7baec2" vector-effect="non-scaling-stroke" d="
  M 453.21 243.75
  C 447.00 245.53 438.74 242.74 434.56 249.43
  C 432.96 251.98 433.23 255.98 432.29 259.25
  C 432.20 259.55 432.24 259.87 432.41 260.14
  C 434.64 263.72 430.44 264.00 428.11 263.03
  C 427.44 262.75 427.20 261.91 427.63 261.32
  L 428.49 260.11
  C 428.68 259.85 428.72 259.51 428.59 259.21
  C 427.40 256.42 427.34 253.61 428.43 250.78
  C 428.55 250.48 428.55 250.14 428.43 249.84
  C 426.81 245.76 427.48 240.19 427.56 235.81
  C 427.57 235.47 427.67 235.14 427.87 234.87
  C 428.87 233.44 428.90 231.95 427.95 230.38
  C 427.76 230.06 427.70 229.68 427.79 229.32
  L 428.75 225.29"
/>
<path stroke="#c0eafb" vector-effect="non-scaling-stroke" d="
  M 453.46 224.50
  L 453.17 224.72
  C 452.94 224.90 452.67 224.99 452.39 224.99
  L 428.75 225.29"
/>
<path stroke="#9fb9c4" vector-effect="non-scaling-stroke" d="
  M 428.75 225.29
  C 425.25 224.82 421.75 224.82 418.25 225.29"
/>
<path stroke="#c0eafb" vector-effect="non-scaling-stroke" d="
  M 418.25 225.29
  C 406.57 224.55 393.19 227.76 389.44 213.09
  C 389.27 212.43 389.00 212.19 388.54 211.75"
/>
<path stroke="#9cd2e6" vector-effect="non-scaling-stroke" d="
  M 243.04 312.00
  C 242.39 312.72 241.46 313.03 240.25 312.94"
/>
<path stroke="#e94938" vector-effect="non-scaling-stroke" d="
  M 394.96 256.50
  C 392.90 257.11 391.46 256.58 390.65 254.90"
/>
<path stroke="#a34753" vector-effect="non-scaling-stroke" d="
  M 392.96 251.00
  C 392.79 249.95 392.95 249.04 393.44 248.29
  C 393.62 248.03 393.98 248.00 394.20 248.22
  L 395.00 249.03
  C 395.24 249.27 395.60 249.35 395.92 249.22
  C 396.72 248.89 397.24 248.32 397.49 247.52
  C 397.58 247.22 397.52 246.89 397.34 246.64
  L 394.29 242.50"
/>
<path stroke="#a34753" vector-effect="non-scaling-stroke" d="
  M 404.00 242.71
  C 402.10 242.70 400.68 241.90 399.75 240.29"
/>
<path stroke="#80d5fc" vector-effect="non-scaling-stroke" d="
  M 309.69 85.46
  L 310.48 84.90
  C 310.74 84.71 310.91 84.43 310.97 84.12
  C 311.19 82.98 310.80 82.27 309.79 81.98
  C 309.48 81.89 309.27 81.60 309.29 81.27
  C 309.75 74.10 323.39 78.83 327.89 78.53
  C 328.23 78.51 328.50 78.22 328.49 77.88
  L 328.27 65.57
  C 328.26 65.21 327.94 64.94 327.59 65.00
  C 322.68 65.83 317.74 66.29 312.76 66.40
  C 304.25 66.58 298.84 72.62 298.07 80.99
  C 298.04 81.32 297.92 81.63 297.72 81.88
  C 297.25 82.50 297.00 83.18 296.98 83.92
  C 296.97 84.23 297.13 84.53 297.39 84.70
  C 300.03 86.51 296.24 91.38 292.19 88.40
  C 291.88 88.17 291.69 87.82 291.68 87.44
  L 291.42 81.24
  C 291.41 80.87 291.54 80.51 291.79 80.23
  C 293.06 78.84 293.07 77.43 291.80 76.02
  C 291.61 75.81 291.50 75.53 291.50 75.24
  C 291.38 64.59 291.68 53.92 292.41 43.23
  C 292.43 42.85 292.13 42.52 291.75 42.51
  L 280.45 42.19
  C 279.77 42.17 279.22 42.74 279.28 43.42
  C 280.11 53.50 280.43 63.64 280.23 73.85
  C 280.20 75.53 279.53 76.67 279.08 78.26
  C 278.99 78.56 279.05 78.89 279.24 79.15
  C 280.09 80.31 280.46 81.42 280.35 82.49
  C 277.72 105.87 309.80 105.79 309.26 86.32
  C 309.25 85.98 309.41 85.65 309.69 85.46"
/>
<path stroke="#80d5fc" vector-effect="non-scaling-stroke" d="
  M 289.6970 48.7335
  C 289.70 48.26 289.32 47.88 288.8499 47.8806
  L 282.8500 47.8596
  C 282.38 47.86 282.00 48.24 281.9970 48.7066
  L 281.9030 75.6265
  C 281.90 76.10 282.28 76.48 282.7501 76.4794
  L 288.7500 76.5004
  C 289.22 76.50 289.60 76.12 289.6030 75.6534
  L 289.6970 48.7335"
/>
<path stroke="#80d5fc" vector-effect="non-scaling-stroke" d="
  M 322.49 68.10
  C 312.40 67.56 300.10 67.87 300.00 81.47
  C 299.99 81.76 300.23 82.00 300.52 82.00
  L 306.94 82.00
  C 307.22 82.00 307.44 81.79 307.46 81.51
  C 307.91 73.38 317.30 75.64 322.49 75.40
  C 322.77 75.39 323.00 75.15 323.00 74.87
  L 323.00 68.63
  C 323.00 68.35 322.78 68.12 322.49 68.10"
/>
<path stroke="#80d5fc" vector-effect="non-scaling-stroke" d="
  M 282.25 80.22
  C 277.76 103.11 308.55 104.36 307.47 85.67
  C 307.45 85.38 307.22 85.16 306.93 85.15
  L 300.71 85.09
  C 300.46 85.09 300.25 85.27 300.23 85.51
  C 299.74 90.14 297.22 91.96 292.66 90.99
  C 292.32 90.92 292.01 90.74 291.78 90.49
  C 288.98 87.46 289.32 84.16 289.61 80.28
  C 289.63 79.99 289.41 79.75 289.12 79.75
  L 282.82 79.75
  C 282.54 79.75 282.30 79.95 282.25 80.22"
/>
<path stroke="#c0eafb" vector-effect="non-scaling-stroke" d="
  M 176.0519 151.2451
  C 176.18 150.86 175.89 150.41 175.4048 150.2482
  C 174.92 150.09 174.42 150.27 174.2881 150.6549
  C 174.16 151.04 174.45 151.49 174.9352 151.6518
  C 175.42 151.81 175.92 151.63 176.0519 151.2451"
/>
<path stroke="#c0eafb" vector-effect="non-scaling-stroke" d="
  M 183.0636 151.7077
  C 183.37 151.94 183.85 151.81 184.1318 151.4343
  C 184.42 151.05 184.40 150.56 184.0964 150.3323
  C 183.79 150.10 183.31 150.23 183.0282 150.6057
  C 182.74 150.99 182.76 151.48 183.0636 151.7077"
/>
<path stroke="#c0eafb" vector-effect="non-scaling-stroke" d="
  M 268.4732 150.5610
  C 268.38 150.26 267.84 150.17 267.2491 150.3436
  C 266.66 150.52 266.26 150.90 266.3468 151.1990
  C 266.44 151.50 266.98 151.59 267.5709 151.4164
  C 268.16 151.24 268.56 150.86 268.4732 150.5610"
/>
<path stroke="#c0eafb" vector-effect="non-scaling-stroke" d="
  M 270.86 150.48
  C 270.54 150.65 270.55 151.11 270.87 151.27
  C 271.38 151.53 271.95 151.61 272.56 151.51
  C 272.86 151.46 273.03 151.15 272.92 150.87
  C 272.58 150.03 271.52 150.13 270.86 150.48"
/>
<path stroke="#c0eafb" vector-effect="non-scaling-stroke" d="
  M 193.7347 151.2729
  C 193.77 150.92 193.26 150.59 192.6002 150.5228
  C 191.94 150.46 191.38 150.70 191.3453 151.0471
  C 191.31 151.40 191.82 151.73 192.4798 151.7972
  C 193.14 151.86 193.70 151.62 193.7347 151.2729"
/>
<path stroke="#c0eafb" vector-effect="non-scaling-stroke" d="
  M 264.0969 151.2177
  C 264.13 150.85 263.71 150.52 263.1618 150.4820
  C 262.62 150.44 262.15 150.70 262.1231 151.0623
  C 262.09 151.43 262.51 151.76 263.0582 151.7980
  C 263.60 151.84 264.07 151.58 264.0969 151.2177"
/>
<path stroke="#c0eafb" vector-effect="non-scaling-stroke" d="
  M 281.7931 151.0322
  C 281.75 150.67 281.27 150.43 280.7130 150.4945
  C 280.16 150.56 279.74 150.91 279.7869 151.2678
  C 279.83 151.63 280.31 151.87 280.8670 151.8055
  C 281.42 151.74 281.84 151.39 281.7931 151.0322"
/>
<path stroke="#c0eafb" vector-effect="non-scaling-stroke" d="
  M 302.78 150.64
  C 302.39 150.60 302.11 151.00 302.28 151.35
  C 302.42 151.63 302.63 151.83 302.91 151.96
  C 303.24 152.12 303.63 151.93 303.72 151.58
  C 303.87 151.03 303.55 150.71 302.78 150.64"
/>
<path stroke="#c0eafb" vector-effect="non-scaling-stroke" d="
  M 299.6731 151.3996
  C 299.70 151.12 299.18 150.83 298.5142 150.7629
  C 297.84 150.69 297.28 150.86 297.2469 151.1404
  C 297.22 151.42 297.74 151.71 298.4058 151.7771
  C 299.08 151.85 299.64 151.68 299.6731 151.3996"
/>
<path stroke="#c0eafb" vector-effect="non-scaling-stroke" d="
  M 369.0399 174.7319
  C 368.97 174.40 368.52 174.22 368.0411 174.3238
  C 367.56 174.43 367.23 174.78 367.3001 175.1081
  C 367.37 175.44 367.82 175.62 368.2989 175.5162
  C 368.78 175.41 369.11 175.06 369.0399 174.7319"
/>
<path stroke="#c0eafb" vector-effect="non-scaling-stroke" d="
  M 378.2174 174.5854
  C 378.14 174.28 377.64 174.15 377.0963 174.2884
  C 376.56 174.43 376.18 174.79 376.2626 175.0946
  C 376.34 175.40 376.84 175.53 377.3837 175.3916
  C 377.92 175.25 378.30 174.89 378.2174 174.5854"
/>
<path stroke="#c0eafb" vector-effect="non-scaling-stroke" d="
  M 381.08 175.55
  C 381.77 175.62 382.31 175.43 382.68 174.98
  C 382.86 174.76 382.79 174.43 382.53 174.32
  C 381.75 173.98 381.14 174.10 380.71 174.69
  C 380.46 175.03 380.67 175.51 381.08 175.55"
/>
<path stroke="#c0eafb" vector-effect="non-scaling-stroke" d="
  M 389.94 175.06
  C 390.31 175.36 390.75 175.52 391.25 175.53
  C 391.53 175.54 391.75 175.32 391.76 175.04
  L 391.76 174.70
  C 391.76 174.41 391.51 174.18 391.22 174.21
  L 389.79 174.36
  C 389.55 174.38 389.42 174.65 389.54 174.85
  C 389.64 175.01 389.77 175.08 389.94 175.06"
/>
<path stroke="#c0eafb" vector-effect="non-scaling-stroke" d="
  M 396.4545 174.4013
  C 396.27 174.10 395.69 174.12 395.1566 174.4437
  C 394.62 174.77 394.34 175.28 394.5255 175.5787
  C 394.71 175.88 395.29 175.86 395.8234 175.5363
  C 396.36 175.21 396.64 174.70 396.4545 174.4013"
/>
<path stroke="#c0eafb" vector-effect="non-scaling-stroke" d="
  M 399.13 174.90
  C 399.81 175.26 400.37 175.37 400.80 175.23
  C 401.15 175.12 401.19 174.64 400.87 174.46
  C 400.10 174.03 399.50 174.08 399.07 174.60
  C 398.99 174.70 399.02 174.84 399.13 174.90"
/>
<path stroke="#c0eafb" vector-effect="non-scaling-stroke" d="
  M 405.5431 174.9678
  C 405.59 174.61 405.17 174.26 404.6170 174.1945
  C 404.06 174.13 403.58 174.37 403.5369 174.7322
  C 403.49 175.09 403.91 175.44 404.4630 175.5055
  C 405.02 175.57 405.50 175.33 405.5431 174.9678"
/>
<path stroke="#c0eafb" vector-effect="non-scaling-stroke" d="
  M 410.12 174.99
  C 410.71 174.47 410.61 174.22 409.82 174.25
  L 408.69 174.29
  C 407.98 174.32 407.88 174.57 408.39 175.06
  C 408.92 175.57 409.50 175.54 410.12 174.99"
/>
<path stroke="#c0eafb" vector-effect="non-scaling-stroke" d="
  M 373.9997 174.9244
  C 373.99 174.65 373.48 174.44 372.8587 174.4501
  C 372.23 174.46 371.73 174.70 371.7403 174.9756
  C 371.75 175.25 372.26 175.46 372.8813 175.4499
  C 373.51 175.44 374.01 175.20 373.9997 174.9244"
/>
<path stroke="#c0eafb" vector-effect="non-scaling-stroke" d="
  M 414.35 174.85
  C 413.74 174.34 413.15 174.28 412.58 174.66
  C 412.35 174.82 412.37 175.16 412.61 175.29
  C 413.10 175.58 413.64 175.61 414.25 175.40
  C 414.49 175.32 414.55 175.01 414.35 174.85"
/>
<path stroke="#4faff8" vector-effect="non-scaling-stroke" d="
  M 428.07 190.95
  L 427.11 193.64
  C 426.96 194.06 427.24 194.51 427.68 194.56
  L 428.95 194.72
  C 429.40 194.78 429.82 194.46 429.88 194.01
  C 430.03 192.78 429.71 191.70 428.90 190.79
  C 428.65 190.51 428.20 190.60 428.07 190.95"
/>
<path stroke="#a3e7fd" vector-effect="non-scaling-stroke" d="
  M 402.04 88.44
  C 399.74 86.07 397.74 84.08 396.04 82.47
  C 393.97 80.50 390.85 83.35 392.74 85.50
  C 395.68 88.84 398.90 91.92 402.39 94.74
  C 402.63 94.93 402.96 94.97 403.23 94.82
  C 403.97 94.42 404.87 93.70 405.92 92.67
  C 410.42 88.26 414.87 83.79 419.26 79.26
  C 419.48 79.03 419.58 78.70 419.51 78.39
  C 419.21 77.02 418.37 76.20 416.99 75.94
  C 416.62 75.87 416.24 75.99 415.97 76.26
  L 403.66 88.46
  C 403.21 88.91 402.48 88.90 402.04 88.44"
/>
<path stroke="#80bffb" vector-effect="non-scaling-stroke" d="
  M 355.03 99.33
  L 360.73 99.57
  C 361.10 99.59 361.44 99.34 361.54 98.97
  L 361.98 97.29
  C 362.07 96.93 361.92 96.55 361.59 96.35
  C 359.14 94.88 356.71 94.17 354.29 94.22
  C 353.12 94.24 352.17 95.16 352.11 96.33
  L 351.80 102.02
  C 351.76 102.84 352.56 103.45 353.34 103.19
  C 354.80 102.71 355.26 101.56 354.71 99.75
  C 354.65 99.53 354.81 99.32 355.03 99.33"
/>
<path stroke="#80bffb" vector-effect="non-scaling-stroke" d="
  M 355.15 103.90
  L 351.52 104.14
  C 351.17 104.17 350.84 104.30 350.57 104.53
  C 348.90 105.98 348.75 107.64 350.10 109.51
  C 350.33 109.82 350.69 110.00 351.07 110.00
  L 355.37 110.00
  C 355.72 110.00 356.00 110.28 356.00 110.62
  L 356.01 111.92
  C 356.01 112.21 355.87 112.47 355.63 112.63
  L 354.15 113.65
  C 353.80 113.89 353.80 114.41 354.16 114.64
  C 355.92 115.76 356.79 117.38 356.78 119.50
  C 356.75 126.64 356.75 133.79 356.77 140.94
  C 356.77 142.82 357.91 143.53 359.64 142.91
  C 360.30 142.68 360.75 142.05 360.75 141.34
  C 360.74 130.12 360.75 118.93 360.76 107.77
  C 360.76 105.99 361.19 104.41 361.62 102.71
  C 361.68 102.47 361.51 102.24 361.26 102.23
  L 356.86 102.05
  C 356.53 102.03 356.23 102.24 356.12 102.56
  L 355.86 103.35
  C 355.76 103.66 355.48 103.88 355.15 103.90"
/>
<path stroke="#80bffb" vector-effect="non-scaling-stroke" d="
  M 369.25 107.66
  C 369.45 107.23 369.83 107.02 370.40 107.02
  C 370.73 107.02 370.96 106.70 370.86 106.39
  L 370.28 104.62
  C 369.99 103.75 369.66 103.73 369.27 104.56
  C 367.91 107.48 368.43 109.86 370.84 111.69
  C 371.07 111.87 371.21 112.14 371.21 112.43
  L 371.33 133.63
  C 371.33 133.95 371.51 134.24 371.79 134.39
  C 373.92 135.49 375.02 134.17 375.01 132.04
  C 375.00 126.13 374.99 120.21 375.00 114.28
  C 375.01 111.00 376.43 108.83 377.66 105.92
  C 377.79 105.63 377.76 105.30 377.60 105.03
  C 376.86 103.81 375.72 103.01 374.17 102.63
  C 373.73 102.52 373.40 103.04 373.69 103.39
  C 374.08 103.85 374.33 104.45 374.44 105.18
  C 374.48 105.49 374.32 105.79 374.04 105.92
  L 369.54 107.95
  C 369.17 108.12 369.07 108.02 369.25 107.66"
/>
<path stroke="#80bffb" vector-effect="non-scaling-stroke" d="
  M 354.78 118.94
  C 354.92 117.25 354.45 115.92 353.37 114.97
  C 353.13 114.76 352.98 114.46 352.93 114.14
  C 352.60 111.56 355.18 112.53 355.19 111.39
  C 355.19 110.99 354.84 110.67 354.44 110.72
  L 351.14 111.09
  C 350.84 111.12 350.66 111.44 350.78 111.72
  C 351.62 113.61 351.95 115.58 351.78 117.63
  C 351.68 118.94 351.87 120.51 353.51 120.28
  C 354.20 120.18 354.72 119.63 354.78 118.94"
/>
<path stroke="#a3e7fd" vector-effect="non-scaling-stroke" d="
  M 372.5248 108.9047
  C 372.34 108.53 371.75 108.44 371.2185 108.7110
  C 370.69 108.98 370.41 109.50 370.5952 109.8753
  C 370.78 110.25 371.37 110.34 371.9015 110.0690
  C 372.43 109.80 372.71 109.28 372.5248 108.9047"
/>
<path stroke="#80a6b7" vector-effect="non-scaling-stroke" d="
  M 217.25 245.46
  L 217.69 245.77
  C 217.88 245.91 218.11 245.98 218.34 245.98
  C 225.33 246.04 235.37 246.66 237.34 245.15
  C 237.61 244.94 237.59 244.79 237.26 244.68
  C 234.25 243.69 219.71 243.25 217.00 244.54"
/>
<path stroke="#ceeffc" vector-effect="non-scaling-stroke" d="
  M 217.00 244.54
  C 210.76 244.16 201.20 244.13 188.32 244.44
  C 187.57 244.46 187.11 244.72 186.96 245.23
  C 186.88 245.50 187.08 245.77 187.36 245.78
  C 196.47 246.07 208.43 247.16 217.25 245.46"
/>
<path stroke="#4e96b4" vector-effect="non-scaling-stroke" d="
  M 217.00 244.54
  L 217.25 245.46"
/>
<path stroke="#238eb5" vector-effect="non-scaling-stroke" d="
  M 337.9936 302.2981
  C 338.06 301.98 337.20 301.53 336.0737 301.2831
  C 334.95 301.04 333.97 301.10 333.9064 301.4219
  C 333.84 301.74 334.70 302.19 335.8263 302.4369
  C 336.95 302.68 337.93 302.62 337.9936 302.2981"
/>
</g>
<path fill="#ffffff" d="
  M 0.00 0.00
  L 612.00 0.00
  L 612.00 350.00
  L 0.00 350.00
  L 0.00 0.00
  Z
  M 260.96 58.25
  C 259.82 58.06 258.87 57.86 257.71 58.21
  C 149.74 91.11 99.06 213.87 156.72 312.61
  C 156.11 312.88 155.45 313.02 154.74 313.01
  C 146.28 312.95 129.22 312.96 103.56 313.04
  C 103.25 313.04 103.00 313.29 103.00 313.60
  L 103.00 320.50
  C 103.00 320.78 103.22 321.00 103.50 321.00
  L 508.37 321.00
  C 508.72 321.00 509.00 320.72 509.00 320.37
  L 509.00 313.65
  C 509.00 313.30 508.71 313.01 508.36 313.01
  L 455.02 312.90
  C 486.10 259.74 486.86 195.57 457.90 141.39
  C 456.84 139.40 455.55 137.42 454.04 135.45
  C 446.57 122.20 437.16 110.34 425.79 99.89
  C 425.62 99.74 425.52 99.53 425.49 99.31
  L 425.46 99.00
  C 442.10 72.85 406.46 47.13 386.25 71.54
  C 375.57 64.72 361.70 60.15 349.48 56.95
  C 348.49 56.69 347.52 56.77 346.50 56.71
  C 346.25 48.81 346.18 40.91 346.30 33.00
  C 346.34 30.37 345.26 29.06 343.07 29.05
  C 317.80 28.94 292.52 28.93 267.25 29.04
  C 265.74 29.05 264.21 29.21 262.66 29.54
  C 261.89 29.70 261.34 30.38 261.33 31.17
  L 260.96 58.25
  Z"
/>
<path fill="#00abf9" d="
  M 346.50 56.71
  L 346.25 84.71
  L 332.01 85.08
  C 330.87 85.11 329.95 86.03 329.93 87.17
  L 329.46 114.25
  C 308.16 114.26 286.86 114.25 265.56 114.22
  C 262.52 114.21 261.10 112.91 261.09 109.77
  C 261.00 92.59 260.96 75.42 260.96 58.25
  L 261.33 31.17
  C 261.34 30.38 261.89 29.70 262.66 29.54
  C 264.21 29.21 265.74 29.05 267.25 29.04
  C 292.52 28.93 317.80 28.94 343.07 29.05
  C 345.26 29.06 346.34 30.37 346.30 33.00
  C 346.18 40.91 346.25 48.81 346.50 56.71
  Z
  M 309.69 85.46
  L 310.48 84.90
  C 310.74 84.71 310.91 84.43 310.97 84.12
  C 311.19 82.98 310.80 82.27 309.79 81.98
  C 309.48 81.89 309.27 81.60 309.29 81.27
  C 309.75 74.10 323.39 78.83 327.89 78.53
  C 328.23 78.51 328.50 78.22 328.49 77.88
  L 328.27 65.57
  C 328.26 65.21 327.94 64.94 327.59 65.00
  C 322.68 65.83 317.74 66.29 312.76 66.40
  C 304.25 66.58 298.84 72.62 298.07 80.99
  C 298.04 81.32 297.92 81.63 297.72 81.88
  C 297.25 82.50 297.00 83.18 296.98 83.92
  C 296.97 84.23 297.13 84.53 297.39 84.70
  C 300.03 86.51 296.24 91.38 292.19 88.40
  C 291.88 88.17 291.69 87.82 291.68 87.44
  L 291.42 81.24
  C 291.41 80.87 291.54 80.51 291.79 80.23
  C 293.06 78.84 293.07 77.43 291.80 76.02
  C 291.61 75.81 291.50 75.53 291.50 75.24
  C 291.38 64.59 291.68 53.92 292.41 43.23
  C 292.43 42.85 292.13 42.52 291.75 42.51
  L 280.45 42.19
  C 279.77 42.17 279.22 42.74 279.28 43.42
  C 280.11 53.50 280.43 63.64 280.23 73.85
  C 280.20 75.53 279.53 76.67 279.08 78.26
  C 278.99 78.56 279.05 78.89 279.24 79.15
  C 280.09 80.31 280.46 81.42 280.35 82.49
  C 277.72 105.87 309.80 105.79 309.26 86.32
  C 309.25 85.98 309.41 85.65 309.69 85.46
  Z"
/>
<path fill="#ffffff" d="
  M 309.26 86.32
  C 309.80 105.79 277.72 105.87 280.35 82.49
  C 280.46 81.42 280.09 80.31 279.24 79.15
  C 279.05 78.89 278.99 78.56 279.08 78.26
  C 279.53 76.67 280.20 75.53 280.23 73.85
  C 280.43 63.64 280.11 53.50 279.28 43.42
  C 279.22 42.74 279.77 42.17 280.45 42.19
  L 291.75 42.51
  C 292.13 42.52 292.43 42.85 292.41 43.23
  C 291.68 53.92 291.38 64.59 291.50 75.24
  C 291.50 75.53 291.61 75.81 291.80 76.02
  C 293.07 77.43 293.06 78.84 291.79 80.23
  C 291.54 80.51 291.41 80.87 291.42 81.24
  L 291.68 87.44
  C 291.69 87.82 291.88 88.17 292.19 88.40
  C 296.24 91.38 300.03 86.51 297.39 84.70
  C 297.13 84.53 296.97 84.23 296.98 83.92
  C 297.00 83.18 297.25 82.50 297.72 81.88
  C 297.92 81.63 298.04 81.32 298.07 80.99
  C 298.84 72.62 304.25 66.58 312.76 66.40
  C 317.74 66.29 322.68 65.83 327.59 65.00
  C 327.94 64.94 328.26 65.21 328.27 65.57
  L 328.49 77.88
  C 328.50 78.22 328.23 78.51 327.89 78.53
  C 323.39 78.83 309.75 74.10 309.29 81.27
  C 309.27 81.60 309.48 81.89 309.79 81.98
  C 310.80 82.27 311.19 82.98 310.97 84.12
  C 310.91 84.43 310.74 84.71 310.48 84.90
  L 309.69 85.46
  C 309.41 85.65 309.25 85.98 309.26 86.32
  Z
  M 289.6970 48.7335
  C 289.70 48.26 289.32 47.88 288.8499 47.8806
  L 282.8500 47.8596
  C 282.38 47.86 282.00 48.24 281.9970 48.7066
  L 281.9030 75.6265
  C 281.90 76.10 282.28 76.48 282.7501 76.4794
  L 288.7500 76.5004
  C 289.22 76.50 289.60 76.12 289.6030 75.6534
  L 289.6970 48.7335
  Z
  M 322.49 68.10
  C 312.40 67.56 300.10 67.87 300.00 81.47
  C 299.99 81.76 300.23 82.00 300.52 82.00
  L 306.94 82.00
  C 307.22 82.00 307.44 81.79 307.46 81.51
  C 307.91 73.38 317.30 75.64 322.49 75.40
  C 322.77 75.39 323.00 75.15 323.00 74.87
  L 323.00 68.63
  C 323.00 68.35 322.78 68.12 322.49 68.10
  Z
  M 282.25 80.22
  C 277.76 103.11 308.55 104.36 307.47 85.67
  C 307.45 85.38 307.22 85.16 306.93 85.15
  L 300.71 85.09
  C 300.46 85.09 300.25 85.27 300.23 85.51
  C 299.74 90.14 297.22 91.96 292.66 90.99
  C 292.32 90.92 292.01 90.74 291.78 90.49
  C 288.98 87.46 289.32 84.16 289.61 80.28
  C 289.63 79.99 289.41 79.75 289.12 79.75
  L 282.82 79.75
  C 282.54 79.75 282.30 79.95 282.25 80.22
  Z"
/>
<rect fill="#00abf9" x="-3.85" y="-14.31" transform="translate(285.80,62.18) rotate(0.2)" width="7.70" height="28.62" rx="0.85"/>
<path fill="#9cdff9" d="
  M 346.50 56.71
  C 347.52 56.77 348.49 56.69 349.48 56.95
  C 361.70 60.15 375.57 64.72 386.25 71.54
  C 383.76 75.67 382.33 80.16 381.96 85.00
  L 346.25 84.71
  L 346.50 56.71
  Z"
/>
<path fill="#9cdff9" d="
  M 260.96 58.25
  C 260.96 75.42 261.00 92.59 261.09 109.77
  C 261.10 112.91 262.52 114.21 265.56 114.22
  C 286.86 114.25 308.16 114.26 329.46 114.25
  C 329.81 125.64 329.94 137.04 329.84 148.44
  C 329.82 150.95 331.04 152.20 333.50 152.21
  C 353.25 152.26 373.01 152.26 392.77 152.23
  C 395.26 152.23 396.97 151.81 396.97 149.00
  C 396.97 135.40 397.00 121.69 397.05 107.87
  C 408.67 111.13 418.14 108.17 425.46 99.00
  L 425.49 99.31
  C 425.52 99.53 425.62 99.74 425.79 99.89
  C 437.16 110.34 446.57 122.20 454.04 135.45
  C 453.51 155.63 453.34 168.79 453.51 174.94
  C 453.78 184.55 453.77 191.82 453.46 196.75
  L 448.25 196.46
  L 448.22 179.50
  C 448.22 179.22 448.00 179.00 447.72 179.00
  L 432.92 179.00
  C 432.66 179.00 432.48 179.25 432.56 179.50
  C 432.59 179.61 440.42 181.17 440.50 181.19
  C 440.80 181.27 441.00 181.54 441.00 181.84
  L 441.00 185.80
  C 441.00 186.10 440.74 186.34 440.44 186.32
  L 428.64 185.32
  C 428.28 185.29 427.95 185.53 427.86 185.88
  L 427.54 187.23
  C 427.46 187.60 427.63 187.98 427.96 188.16
  C 430.07 189.35 432.09 189.16 434.12 190.15
  C 436.13 191.14 438.15 192.13 440.18 193.14
  C 440.46 193.28 440.67 193.53 440.76 193.84
  L 441.50 196.46
  L 395.27 196.17
  C 389.50 194.17 385.46 195.68 383.15 200.70
  C 381.13 205.09 383.22 208.48 379.99 213.30
  C 377.04 217.70 374.18 222.18 371.41 226.73
  C 371.26 226.98 370.97 227.09 370.69 227.00
  L 361.92 224.12
  L 361.41 223.08
  C 361.26 222.77 361.00 222.52 360.68 222.39
  C 356.86 220.88 353.24 218.99 349.82 216.72
  C 349.61 216.58 349.32 216.64 349.19 216.86
  L 348.96 217.25
  L 348.54 216.75
  L 350.22 213.28
  C 350.35 213.01 350.68 212.90 350.94 213.06
  C 352.73 214.15 354.68 214.73 356.77 214.78
  C 357.10 214.79 357.41 214.63 357.61 214.37
  C 359.28 212.18 360.53 208.49 363.51 208.22
  C 363.80 208.20 364.04 207.98 364.07 207.69
  C 364.20 206.54 364.10 205.39 363.77 204.24
  C 363.68 203.93 363.66 203.61 363.73 203.29
  L 365.50 194.79
  L 367.75 193.96
  C 369.91 195.05 371.96 195.01 373.91 193.82
  C 374.28 193.60 374.27 193.39 373.89 193.19
  L 365.84 188.96
  C 365.54 188.80 365.29 188.55 365.13 188.25
  C 363.28 184.79 361.82 182.79 360.75 182.25
  C 350.05 176.89 338.81 183.68 341.46 196.00
  L 341.25 202.46
  C 340.20 204.35 338.85 205.79 337.18 206.79
  C 329.55 209.76 324.39 215.15 321.72 222.96
  C 319.39 227.30 317.83 230.98 317.03 234.00
  C 313.13 248.75 312.28 265.56 312.16 281.48
  C 312.10 290.69 316.39 296.41 325.04 298.62
  C 325.37 298.71 325.38 298.83 325.09 298.99
  C 318.95 302.36 309.49 304.47 305.23 309.84
  C 305.03 310.09 304.94 310.41 304.99 310.73
  C 305.06 311.22 305.25 311.64 305.54 312.00
  C 305.16 312.61 304.80 313.00 304.01 313.00
  C 290.28 313.01 276.54 313.01 262.81 312.98
  C 262.08 312.98 261.77 312.74 261.87 312.25
  C 261.25 296.02 261.24 278.87 261.83 260.82
  C 262.41 242.98 262.15 224.38 261.06 205.01
  C 260.79 200.30 259.44 194.62 257.00 187.96
  C 260.50 185.23 269.51 181.67 268.49 176.57
  C 267.84 173.33 266.16 169.14 263.46 164.00
  C 264.36 161.05 260.50 154.40 259.37 151.29
  C 259.26 150.98 259.05 150.72 258.78 150.54
  C 254.56 147.78 253.87 141.33 248.65 138.65
  C 245.68 137.12 240.54 135.77 236.75 135.79
  C 235.03 135.22 233.28 135.06 231.50 135.29
  L 229.79 135.50
  L 228.46 130.25
  C 230.15 126.89 230.84 123.45 230.53 119.93
  C 233.15 99.71 205.00 102.60 207.81 118.53
  C 207.87 118.85 207.79 119.18 207.59 119.43
  L 204.49 123.34
  C 204.06 123.88 204.64 124.64 205.28 124.37
  L 210.20 122.27
  C 210.03 129.23 212.77 134.51 218.42 138.10
  L 217.79 139.75
  L 217.76 139.29
  C 217.74 139.04 217.48 138.87 217.24 138.95
  C 215.45 139.58 214.02 140.68 212.96 142.25
  C 203.09 146.94 198.58 155.27 191.92 165.62
  C 191.23 166.69 191.43 167.69 192.29 168.50
  C 187.37 175.84 179.29 181.92 172.45 187.45
  C 171.22 188.44 169.59 189.38 167.56 190.26
  C 163.71 191.93 160.29 194.28 157.30 197.32
  C 154.95 197.95 152.40 198.21 149.65 198.09
  C 149.37 198.08 149.13 198.29 149.10 198.57
  C 148.84 200.96 148.71 203.02 148.71 204.75
  C 148.74 215.80 148.93 228.66 149.30 243.33
  C 149.34 244.77 149.98 245.42 151.24 245.87
  C 151.54 245.98 151.78 246.22 151.87 246.53
  L 154.31 254.41
  C 154.40 254.71 154.64 254.93 154.94 254.99
  L 161.25 256.29
  C 166.27 263.97 171.29 271.65 176.30 279.34
  C 177.43 281.07 177.21 281.87 177.54 283.75
  L 174.59 308.15
  C 174.55 308.49 174.30 308.78 173.96 308.87
  L 171.62 309.50
  C 171.32 309.58 171.06 309.77 170.89 310.03
  C 170.43 310.75 170.23 311.57 170.29 312.50
  C 169.72 313.63 158.12 312.79 156.72 312.61
  C 99.06 213.87 149.74 91.11 257.71 58.21
  C 258.87 57.86 259.82 58.06 260.96 58.25
  Z
  M 176.0519 151.2451
  C 176.18 150.86 175.89 150.41 175.4048 150.2482
  C 174.92 150.09 174.42 150.27 174.2881 150.6549
  C 174.16 151.04 174.45 151.49 174.9352 151.6518
  C 175.42 151.81 175.92 151.63 176.0519 151.2451
  Z
  M 183.0636 151.7077
  C 183.37 151.94 183.85 151.81 184.1318 151.4343
  C 184.42 151.05 184.40 150.56 184.0964 150.3323
  C 183.79 150.10 183.31 150.23 183.0282 150.6057
  C 182.74 150.99 182.76 151.48 183.0636 151.7077
  Z
  M 268.4732 150.5610
  C 268.38 150.26 267.84 150.17 267.2491 150.3436
  C 266.66 150.52 266.26 150.90 266.3468 151.1990
  C 266.44 151.50 266.98 151.59 267.5709 151.4164
  C 268.16 151.24 268.56 150.86 268.4732 150.5610
  Z
  M 270.86 150.48
  C 270.54 150.65 270.55 151.11 270.87 151.27
  C 271.38 151.53 271.95 151.61 272.56 151.51
  C 272.86 151.46 273.03 151.15 272.92 150.87
  C 272.58 150.03 271.52 150.13 270.86 150.48
  Z
  M 193.7347 151.2729
  C 193.77 150.92 193.26 150.59 192.6002 150.5228
  C 191.94 150.46 191.38 150.70 191.3453 151.0471
  C 191.31 151.40 191.82 151.73 192.4798 151.7972
  C 193.14 151.86 193.70 151.62 193.7347 151.2729
  Z
  M 264.0969 151.2177
  C 264.13 150.85 263.71 150.52 263.1618 150.4820
  C 262.62 150.44 262.15 150.70 262.1231 151.0623
  C 262.09 151.43 262.51 151.76 263.0582 151.7980
  C 263.60 151.84 264.07 151.58 264.0969 151.2177
  Z
  M 281.7931 151.0322
  C 281.75 150.67 281.27 150.43 280.7130 150.4945
  C 280.16 150.56 279.74 150.91 279.7869 151.2678
  C 279.83 151.63 280.31 151.87 280.8670 151.8055
  C 281.42 151.74 281.84 151.39 281.7931 151.0322
  Z
  M 302.78 150.64
  C 302.39 150.60 302.11 151.00 302.28 151.35
  C 302.42 151.63 302.63 151.83 302.91 151.96
  C 303.24 152.12 303.63 151.93 303.72 151.58
  C 303.87 151.03 303.55 150.71 302.78 150.64
  Z
  M 299.6731 151.3996
  C 299.70 151.12 299.18 150.83 298.5142 150.7629
  C 297.84 150.69 297.28 150.86 297.2469 151.1404
  C 297.22 151.42 297.74 151.71 298.4058 151.7771
  C 299.08 151.85 299.64 151.68 299.6731 151.3996
  Z
  M 369.0399 174.7319
  C 368.97 174.40 368.52 174.22 368.0411 174.3238
  C 367.56 174.43 367.23 174.78 367.3001 175.1081
  C 367.37 175.44 367.82 175.62 368.2989 175.5162
  C 368.78 175.41 369.11 175.06 369.0399 174.7319
  Z
  M 378.2174 174.5854
  C 378.14 174.28 377.64 174.15 377.0963 174.2884
  C 376.56 174.43 376.18 174.79 376.2626 175.0946
  C 376.34 175.40 376.84 175.53 377.3837 175.3916
  C 377.92 175.25 378.30 174.89 378.2174 174.5854
  Z
  M 381.08 175.55
  C 381.77 175.62 382.31 175.43 382.68 174.98
  C 382.86 174.76 382.79 174.43 382.53 174.32
  C 381.75 173.98 381.14 174.10 380.71 174.69
  C 380.46 175.03 380.67 175.51 381.08 175.55
  Z
  M 389.94 175.06
  C 390.31 175.36 390.75 175.52 391.25 175.53
  C 391.53 175.54 391.75 175.32 391.76 175.04
  L 391.76 174.70
  C 391.76 174.41 391.51 174.18 391.22 174.21
  L 389.79 174.36
  C 389.55 174.38 389.42 174.65 389.54 174.85
  C 389.64 175.01 389.77 175.08 389.94 175.06
  Z
  M 396.4545 174.4013
  C 396.27 174.10 395.69 174.12 395.1566 174.4437
  C 394.62 174.77 394.34 175.28 394.5255 175.5787
  C 394.71 175.88 395.29 175.86 395.8234 175.5363
  C 396.36 175.21 396.64 174.70 396.4545 174.4013
  Z
  M 399.13 174.90
  C 399.81 175.26 400.37 175.37 400.80 175.23
  C 401.15 175.12 401.19 174.64 400.87 174.46
  C 400.10 174.03 399.50 174.08 399.07 174.60
  C 398.99 174.70 399.02 174.84 399.13 174.90
  Z
  M 405.5431 174.9678
  C 405.59 174.61 405.17 174.26 404.6170 174.1945
  C 404.06 174.13 403.58 174.37 403.5369 174.7322
  C 403.49 175.09 403.91 175.44 404.4630 175.5055
  C 405.02 175.57 405.50 175.33 405.5431 174.9678
  Z
  M 410.12 174.99
  C 410.71 174.47 410.61 174.22 409.82 174.25
  L 408.69 174.29
  C 407.98 174.32 407.88 174.57 408.39 175.06
  C 408.92 175.57 409.50 175.54 410.12 174.99
  Z
  M 373.9997 174.9244
  C 373.99 174.65 373.48 174.44 372.8587 174.4501
  C 372.23 174.46 371.73 174.70 371.7403 174.9756
  C 371.75 175.25 372.26 175.46 372.8813 175.4499
  C 373.51 175.44 374.01 175.20 373.9997 174.9244
  Z
  M 414.35 174.85
  C 413.74 174.34 413.15 174.28 412.58 174.66
  C 412.35 174.82 412.37 175.16 412.61 175.29
  C 413.10 175.58 413.64 175.61 414.25 175.40
  C 414.49 175.32 414.55 175.01 414.35 174.85
  Z
  M 428.07 190.95
  L 427.11 193.64
  C 426.96 194.06 427.24 194.51 427.68 194.56
  L 428.95 194.72
  C 429.40 194.78 429.82 194.46 429.88 194.01
  C 430.03 192.78 429.71 191.70 428.90 190.79
  C 428.65 190.51 428.20 190.60 428.07 190.95
  Z"
/>
<path fill="#46cffb" d="
  M 425.46 99.00
  C 418.14 108.17 408.67 111.13 397.05 107.87
  C 394.91 106.48 392.36 105.27 390.56 103.73
  C 384.97 98.94 382.11 92.69 381.96 85.00
  C 382.33 80.16 383.76 75.67 386.25 71.54
  C 406.46 47.13 442.10 72.85 425.46 99.00
  Z
  M 402.04 88.44
  C 399.74 86.07 397.74 84.08 396.04 82.47
  C 393.97 80.50 390.85 83.35 392.74 85.50
  C 395.68 88.84 398.90 91.92 402.39 94.74
  C 402.63 94.93 402.96 94.97 403.23 94.82
  C 403.97 94.42 404.87 93.70 405.92 92.67
  C 410.42 88.26 414.87 83.79 419.26 79.26
  C 419.48 79.03 419.58 78.70 419.51 78.39
  C 419.21 77.02 418.37 76.20 416.99 75.94
  C 416.62 75.87 416.24 75.99 415.97 76.26
  L 403.66 88.46
  C 403.21 88.91 402.48 88.90 402.04 88.44
  Z"
/>
<path fill="#00abf9" d="
  M 300.00 81.47
  C 300.10 67.87 312.40 67.56 322.49 68.10
  C 322.78 68.12 323.00 68.35 323.00 68.63
  L 323.00 74.87
  C 323.00 75.15 322.77 75.39 322.49 75.40
  C 317.30 75.64 307.91 73.38 307.46 81.51
  C 307.44 81.79 307.22 82.00 306.94 82.00
  L 300.52 82.00
  C 300.23 82.00 299.99 81.76 300.00 81.47
  Z"
/>
<path fill="#ffffff" d="
  M 402.04 88.44
  C 402.48 88.90 403.21 88.91 403.66 88.46
  L 415.97 76.26
  C 416.24 75.99 416.62 75.87 416.99 75.94
  C 418.37 76.20 419.21 77.02 419.51 78.39
  C 419.58 78.70 419.48 79.03 419.26 79.26
  C 414.87 83.79 410.42 88.26 405.92 92.67
  C 404.87 93.70 403.97 94.42 403.23 94.82
  C 402.96 94.97 402.63 94.93 402.39 94.74
  C 398.90 91.92 395.68 88.84 392.74 85.50
  C 390.85 83.35 393.97 80.50 396.04 82.47
  C 397.74 84.08 399.74 86.07 402.04 88.44
  Z"
/>
<path fill="#00abf9" d="
  M 307.47 85.67
  C 308.55 104.36 277.76 103.11 282.25 80.22
  C 282.30 79.95 282.54 79.75 282.82 79.75
  L 289.12 79.75
  C 289.41 79.75 289.63 79.99 289.61 80.28
  C 289.32 84.16 288.98 87.46 291.78 90.49
  C 292.01 90.74 292.32 90.92 292.66 90.99
  C 297.22 91.96 299.74 90.14 300.23 85.51
  C 300.25 85.27 300.46 85.09 300.71 85.09
  L 306.93 85.15
  C 307.22 85.16 307.45 85.38 307.47 85.67
  Z"
/>
<path fill="#017ef6" d="
  M 346.25 84.71
  L 381.96 85.00
  C 382.11 92.69 384.97 98.94 390.56 103.73
  C 392.36 105.27 394.91 106.48 397.05 107.87
  C 397.00 121.69 396.97 135.40 396.97 149.00
  C 396.97 151.81 395.26 152.23 392.77 152.23
  C 373.01 152.26 353.25 152.26 333.50 152.21
  C 331.04 152.20 329.82 150.95 329.84 148.44
  C 329.94 137.04 329.81 125.64 329.46 114.25
  L 329.93 87.17
  C 329.95 86.03 330.87 85.11 332.01 85.08
  L 346.25 84.71
  Z
  M 355.03 99.33
  L 360.73 99.57
  C 361.10 99.59 361.44 99.34 361.54 98.97
  L 361.98 97.29
  C 362.07 96.93 361.92 96.55 361.59 96.35
  C 359.14 94.88 356.71 94.17 354.29 94.22
  C 353.12 94.24 352.17 95.16 352.11 96.33
  L 351.80 102.02
  C 351.76 102.84 352.56 103.45 353.34 103.19
  C 354.80 102.71 355.26 101.56 354.71 99.75
  C 354.65 99.53 354.81 99.32 355.03 99.33
  Z
  M 355.15 103.90
  L 351.52 104.14
  C 351.17 104.17 350.84 104.30 350.57 104.53
  C 348.90 105.98 348.75 107.64 350.10 109.51
  C 350.33 109.82 350.69 110.00 351.07 110.00
  L 355.37 110.00
  C 355.72 110.00 356.00 110.28 356.00 110.62
  L 356.01 111.92
  C 356.01 112.21 355.87 112.47 355.63 112.63
  L 354.15 113.65
  C 353.80 113.89 353.80 114.41 354.16 114.64
  C 355.92 115.76 356.79 117.38 356.78 119.50
  C 356.75 126.64 356.75 133.79 356.77 140.94
  C 356.77 142.82 357.91 143.53 359.64 142.91
  C 360.30 142.68 360.75 142.05 360.75 141.34
  C 360.74 130.12 360.75 118.93 360.76 107.77
  C 360.76 105.99 361.19 104.41 361.62 102.71
  C 361.68 102.47 361.51 102.24 361.26 102.23
  L 356.86 102.05
  C 356.53 102.03 356.23 102.24 356.12 102.56
  L 355.86 103.35
  C 355.76 103.66 355.48 103.88 355.15 103.90
  Z
  M 369.25 107.66
  C 369.45 107.23 369.83 107.02 370.40 107.02
  C 370.73 107.02 370.96 106.70 370.86 106.39
  L 370.28 104.62
  C 369.99 103.75 369.66 103.73 369.27 104.56
  C 367.91 107.48 368.43 109.86 370.84 111.69
  C 371.07 111.87 371.21 112.14 371.21 112.43
  L 371.33 133.63
  C 371.33 133.95 371.51 134.24 371.79 134.39
  C 373.92 135.49 375.02 134.17 375.01 132.04
  C 375.00 126.13 374.99 120.21 375.00 114.28
  C 375.01 111.00 376.43 108.83 377.66 105.92
  C 377.79 105.63 377.76 105.30 377.60 105.03
  C 376.86 103.81 375.72 103.01 374.17 102.63
  C 373.73 102.52 373.40 103.04 373.69 103.39
  C 374.08 103.85 374.33 104.45 374.44 105.18
  C 374.48 105.49 374.32 105.79 374.04 105.92
  L 369.54 107.95
  C 369.17 108.12 369.07 108.02 369.25 107.66
  Z
  M 354.78 118.94
  C 354.92 117.25 354.45 115.92 353.37 114.97
  C 353.13 114.76 352.98 114.46 352.93 114.14
  C 352.60 111.56 355.18 112.53 355.19 111.39
  C 355.19 110.99 354.84 110.67 354.44 110.72
  L 351.14 111.09
  C 350.84 111.12 350.66 111.44 350.78 111.72
  C 351.62 113.61 351.95 115.58 351.78 117.63
  C 351.68 118.94 351.87 120.51 353.51 120.28
  C 354.20 120.18 354.72 119.63 354.78 118.94
  Z"
/>
<path fill="#ffffff" d="
  M 354.71 99.75
  C 355.26 101.56 354.80 102.71 353.34 103.19
  C 352.56 103.45 351.76 102.84 351.80 102.02
  L 352.11 96.33
  C 352.17 95.16 353.12 94.24 354.29 94.22
  C 356.71 94.17 359.14 94.88 361.59 96.35
  C 361.92 96.55 362.07 96.93 361.98 97.29
  L 361.54 98.97
  C 361.44 99.34 361.10 99.59 360.73 99.57
  L 355.03 99.33
  C 354.81 99.32 354.65 99.53 354.71 99.75
  Z"
/>
<path fill="#ffffff" d="
  M 355.86 103.35
  L 356.12 102.56
  C 356.23 102.24 356.53 102.03 356.86 102.05
  L 361.26 102.23
  C 361.51 102.24 361.68 102.47 361.62 102.71
  C 361.19 104.41 360.76 105.99 360.76 107.77
  C 360.75 118.93 360.74 130.12 360.75 141.34
  C 360.75 142.05 360.30 142.68 359.64 142.91
  C 357.91 143.53 356.77 142.82 356.77 140.94
  C 356.75 133.79 356.75 126.64 356.78 119.50
  C 356.79 117.38 355.92 115.76 354.16 114.64
  C 353.80 114.41 353.80 113.89 354.15 113.65
  L 355.63 112.63
  C 355.87 112.47 356.01 112.21 356.01 111.92
  L 356.00 110.62
  C 356.00 110.28 355.72 110.00 355.37 110.00
  L 351.07 110.00
  C 350.69 110.00 350.33 109.82 350.10 109.51
  C 348.75 107.64 348.90 105.98 350.57 104.53
  C 350.84 104.30 351.17 104.17 351.52 104.14
  L 355.15 103.90
  C 355.48 103.88 355.76 103.66 355.86 103.35
  Z"
/>
<path fill="#ffffff" d="
  M 369.54 107.95
  L 374.04 105.92
  C 374.32 105.79 374.48 105.49 374.44 105.18
  C 374.33 104.45 374.08 103.85 373.69 103.39
  C 373.40 103.04 373.73 102.52 374.17 102.63
  C 375.72 103.01 376.86 103.81 377.60 105.03
  C 377.76 105.30 377.79 105.63 377.66 105.92
  C 376.43 108.83 375.01 111.00 375.00 114.28
  C 374.99 120.21 375.00 126.13 375.01 132.04
  C 375.02 134.17 373.92 135.49 371.79 134.39
  C 371.51 134.24 371.33 133.95 371.33 133.63
  L 371.21 112.43
  C 371.21 112.14 371.07 111.87 370.84 111.69
  C 368.43 109.86 367.91 107.48 369.27 104.56
  C 369.66 103.73 369.99 103.75 370.28 104.62
  L 370.86 106.39
  C 370.96 106.70 370.73 107.02 370.40 107.02
  C 369.83 107.02 369.45 107.23 369.25 107.66
  C 369.07 108.02 369.17 108.12 369.54 107.95
  Z
  M 372.5248 108.9047
  C 372.34 108.53 371.75 108.44 371.2185 108.7110
  C 370.69 108.98 370.41 109.50 370.5952 109.8753
  C 370.78 110.25 371.37 110.34 371.9015 110.0690
  C 372.43 109.80 372.71 109.28 372.5248 108.9047
  Z"
/>
<path fill="#ed121a" d="
  M 230.53 119.93
  C 227.77 117.02 224.93 116.95 222.00 119.71
  C 218.42 121.91 214.49 122.76 210.20 122.27
  L 205.28 124.37
  C 204.64 124.64 204.06 123.88 204.49 123.34
  L 207.59 119.43
  C 207.79 119.18 207.87 118.85 207.81 118.53
  C 205.00 102.60 233.15 99.71 230.53 119.93
  Z"
/>
<ellipse fill="#46cffb" cx="0.00" cy="0.00" transform="translate(371.56,109.39) rotate(-26.7)" rx="1.08" ry="0.76"/>
<path fill="#ffffff" d="
  M 354.78 118.94
  C 354.72 119.63 354.20 120.18 353.51 120.28
  C 351.87 120.51 351.68 118.94 351.78 117.63
  C 351.95 115.58 351.62 113.61 350.78 111.72
  C 350.66 111.44 350.84 111.12 351.14 111.09
  L 354.44 110.72
  C 354.84 110.67 355.19 110.99 355.19 111.39
  C 355.18 112.53 352.60 111.56 352.93 114.14
  C 352.98 114.46 353.13 114.76 353.37 114.97
  C 354.45 115.92 354.92 117.25 354.78 118.94
  Z"
/>
<path fill="#614236" d="
  M 230.53 119.93
  C 230.84 123.45 230.15 126.89 228.46 130.25
  C 227.60 129.46 227.06 128.49 226.83 127.35
  C 226.77 127.03 226.82 126.71 226.97 126.43
  C 227.86 124.79 227.96 123.11 227.26 121.40
  C 227.01 120.76 226.19 120.59 225.69 121.06
  C 224.84 121.87 223.93 122.12 222.95 121.80
  C 222.68 121.71 222.51 121.44 222.56 121.16
  C 222.69 120.47 222.50 119.98 222.00 119.71
  C 224.93 116.95 227.77 117.02 230.53 119.93
  Z"
/>
<path fill="#e47f56" d="
  M 222.00 119.71
  C 222.50 119.98 222.69 120.47 222.56 121.16
  C 222.51 121.44 222.68 121.71 222.95 121.80
  C 223.93 122.12 224.84 121.87 225.69 121.06
  C 226.19 120.59 227.01 120.76 227.26 121.40
  C 227.96 123.11 227.86 124.79 226.97 126.43
  C 226.82 126.71 226.77 127.03 226.83 127.35
  C 227.06 128.49 227.60 129.46 228.46 130.25
  L 229.79 135.50
  C 228.21 139.70 220.24 144.91 218.42 138.10
  C 212.77 134.51 210.03 129.23 210.20 122.27
  C 214.49 122.76 218.42 121.91 222.00 119.71
  Z"
/>
<path fill="#004c6e" d="
  M 236.75 135.79
  C 233.93 151.88 240.58 165.17 252.40 175.71
  C 252.74 176.02 253.09 176.83 253.29 177.25
  C 250.17 180.50 247.01 183.71 243.80 186.88
  C 240.11 190.52 235.56 192.57 231.25 195.54
  C 225.34 193.78 219.56 191.68 213.91 189.23
  C 213.82 189.19 213.76 189.12 213.75 189.03
  L 213.71 188.75
  C 213.36 182.91 212.12 177.29 211.88 171.46
  L 212.96 142.25
  C 214.02 140.68 215.45 139.58 217.24 138.95
  C 217.48 138.87 217.74 139.04 217.76 139.29
  L 217.79 139.75
  C 217.19 144.14 217.05 148.61 217.38 153.16
  C 217.40 153.47 217.68 153.69 217.99 153.64
  L 230.09 151.82
  C 230.35 151.79 230.54 151.56 230.52 151.30
  C 230.19 145.89 230.51 140.55 231.50 135.29
  C 233.28 135.06 235.03 135.22 236.75 135.79
  Z"
/>
<path fill="#e4f5fc" d="
  M 231.50 135.29
  C 230.51 140.55 230.19 145.89 230.52 151.30
  C 230.54 151.56 230.35 151.79 230.09 151.82
  L 217.99 153.64
  C 217.68 153.69 217.40 153.47 217.38 153.16
  C 217.05 148.61 217.19 144.14 217.79 139.75
  L 218.42 138.10
  C 220.24 144.91 228.21 139.70 229.79 135.50
  L 231.50 135.29
  Z"
/>
<path fill="#e4f5fc" d="
  M 263.46 164.00
  C 261.18 163.98 254.82 167.99 252.26 169.08
  C 252.02 169.18 251.94 169.48 252.09 169.69
  C 253.51 171.77 256.28 175.67 253.29 177.25
  C 253.09 176.83 252.74 176.02 252.40 175.71
  C 240.58 165.17 233.93 151.88 236.75 135.79
  C 240.54 135.77 245.68 137.12 248.65 138.65
  C 253.87 141.33 254.56 147.78 258.78 150.54
  C 259.05 150.72 259.26 150.98 259.37 151.29
  C 260.50 154.40 264.36 161.05 263.46 164.00
  Z"
/>
<path fill="#46cffb" d="
  M 454.04 135.45
  C 455.55 137.42 456.84 139.40 457.90 141.39
  C 486.86 195.57 486.10 259.74 455.02 312.90
  L 453.25 312.71
  C 453.62 308.99 453.80 306.59 453.79 305.50
  C 453.56 288.04 453.54 270.65 453.73 253.34
  L 453.21 243.75
  C 454.80 240.70 453.64 228.48 453.46 224.50
  L 453.46 202.00
  L 453.46 196.75
  C 453.77 191.82 453.78 184.55 453.51 174.94
  C 453.34 168.79 453.51 155.63 454.04 135.45
  Z"
/>
<path fill="#e4f5fc" d="
  M 212.96 142.25
  L 211.88 171.46
  C 209.46 171.09 207.48 172.34 205.93 175.20
  C 205.36 176.25 204.23 176.60 202.54 176.25
  L 202.49 175.81
  C 202.46 175.58 202.34 175.37 202.14 175.24
  L 192.29 168.50
  C 191.43 167.69 191.23 166.69 191.92 165.62
  C 198.58 155.27 203.09 146.94 212.96 142.25
  Z"
/>
<ellipse fill="#e4f5fc" cx="0.00" cy="0.00" transform="translate(175.17,150.95) rotate(18.5)" rx="0.93" ry="0.74"/>
<ellipse fill="#e4f5fc" cx="0.00" cy="0.00" transform="translate(183.58,151.02) rotate(126.9)" rx="0.86" ry="0.69"/>
<ellipse fill="#e4f5fc" cx="0.00" cy="0.00" transform="translate(267.41,150.88) rotate(-16.7)" rx="1.11" ry="0.56"/>
<path fill="#e4f5fc" d="
  M 270.86 150.48
  C 271.52 150.13 272.58 150.03 272.92 150.87
  C 273.03 151.15 272.86 151.46 272.56 151.51
  C 271.95 151.61 271.38 151.53 270.87 151.27
  C 270.55 151.11 270.54 150.65 270.86 150.48
  Z"
/>
<ellipse fill="#e4f5fc" cx="0.00" cy="0.00" transform="translate(192.54,151.16) rotate(5.4)" rx="1.20" ry="0.64"/>
<ellipse fill="#e4f5fc" cx="0.00" cy="0.00" transform="translate(263.11,151.14) rotate(4.5)" rx="0.99" ry="0.66"/>
<ellipse fill="#e4f5fc" cx="0.00" cy="0.00" transform="translate(280.79,151.15) rotate(-6.7)" rx="1.01" ry="0.66"/>
<path fill="#e4f5fc" d="
  M 302.78 150.64
  C 303.55 150.71 303.87 151.03 303.72 151.58
  C 303.63 151.93 303.24 152.12 302.91 151.96
  C 302.63 151.83 302.42 151.63 302.28 151.35
  C 302.11 151.00 302.39 150.60 302.78 150.64
  Z"
/>
<ellipse fill="#e4f5fc" cx="0.00" cy="0.00" transform="translate(298.46,151.27) rotate(6.1)" rx="1.22" ry="0.51"/>
<path fill="#e47f56" d="
  M 263.46 164.00
  C 266.16 169.14 267.84 173.33 268.49 176.57
  C 269.51 181.67 260.50 185.23 257.00 187.96
  C 253.26 189.91 249.61 192.02 246.06 194.30
  C 244.03 195.60 243.49 197.43 242.36 199.50
  C 240.54 201.09 236.31 207.11 234.58 207.75
  C 233.51 208.15 233.30 207.88 233.94 206.94
  C 234.50 206.11 236.98 202.75 236.76 201.92
  C 236.65 201.53 236.46 201.49 236.18 201.78
  C 235.16 202.86 232.38 207.04 231.07 207.01
  C 230.71 207.00 230.50 206.60 230.70 206.31
  L 234.29 200.90
  C 234.46 200.64 234.54 200.32 234.50 200.00
  L 234.44 199.55
  C 234.41 199.33 234.14 199.25 234.00 199.42
  C 233.40 200.12 228.59 206.30 227.96 204.76
  C 227.81 204.38 227.89 203.94 228.18 203.65
  L 233.15 198.55
  C 233.36 198.34 233.36 198.00 233.15 197.79
  L 232.93 197.55
  C 232.70 197.31 232.32 197.29 232.08 197.52
  C 231.29 198.27 227.34 203.20 226.45 202.15
  C 226.25 201.91 226.25 201.57 226.45 201.33
  L 231.25 195.54
  C 235.56 192.57 240.11 190.52 243.80 186.88
  C 247.01 183.71 250.17 180.50 253.29 177.25
  C 256.28 175.67 253.51 171.77 252.09 169.69
  C 251.94 169.48 252.02 169.18 252.26 169.08
  C 254.82 167.99 261.18 163.98 263.46 164.00
  Z"
/>
<path fill="#e47f56" d="
  M 192.29 168.50
  L 202.14 175.24
  C 202.34 175.37 202.46 175.58 202.49 175.81
  L 202.54 176.25
  C 198.03 181.82 192.91 185.88 187.18 188.44
  C 180.47 191.43 175.07 194.29 170.96 197.02
  C 166.81 198.11 162.25 198.21 157.30 197.32
  C 160.29 194.28 163.71 191.93 167.56 190.26
  C 169.59 189.38 171.22 188.44 172.45 187.45
  C 179.29 181.92 187.37 175.84 192.29 168.50
  Z"
/>
<path fill="#9cdff9" d="
  M 211.88 171.46
  C 212.12 177.29 213.36 182.91 213.71 188.75
  C 212.59 189.39 211.72 189.84 211.21 191.13
  C 208.78 197.23 206.60 203.21 204.67 209.08
  C 204.43 209.81 204.80 210.59 205.51 210.88
  L 216.25 215.21
  L 217.00 239.72
  C 217.01 239.94 217.11 240.15 217.28 240.28
  L 217.50 240.46
  L 180.57 240.50
  C 179.83 240.51 179.24 241.09 179.22 241.83
  L 179.16 245.36
  C 179.15 245.72 178.87 246.00 178.52 246.00
  L 172.45 246.00
  C 172.03 246.00 171.77 245.55 171.98 245.18
  L 172.96 243.47
  C 173.13 243.16 173.22 242.84 173.22 242.49
  L 173.50 199.33
  C 173.50 198.99 173.38 198.66 173.15 198.41
  C 172.70 197.89 171.97 197.43 170.96 197.02
  C 175.07 194.29 180.47 191.43 187.18 188.44
  C 192.91 185.88 198.03 181.82 202.54 176.25
  C 204.23 176.60 205.36 176.25 205.93 175.20
  C 207.48 172.34 209.46 171.09 211.88 171.46
  Z"
/>
<ellipse fill="#e4f5fc" cx="0.00" cy="0.00" transform="translate(368.17,174.92) rotate(-12.2)" rx="0.89" ry="0.61"/>
<ellipse fill="#e4f5fc" cx="0.00" cy="0.00" transform="translate(377.24,174.84) rotate(-14.6)" rx="1.01" ry="0.57"/>
<path fill="#e4f5fc" d="
  M 381.08 175.55
  C 380.67 175.51 380.46 175.03 380.71 174.69
  C 381.14 174.10 381.75 173.98 382.53 174.32
  C 382.79 174.43 382.86 174.76 382.68 174.98
  C 382.31 175.43 381.77 175.62 381.08 175.55
  Z"
/>
<path fill="#e4f5fc" d="
  M 389.94 175.06
  C 389.77 175.08 389.64 175.01 389.54 174.85
  C 389.42 174.65 389.55 174.38 389.79 174.36
  L 391.22 174.21
  C 391.51 174.18 391.76 174.41 391.76 174.70
  L 391.76 175.04
  C 391.75 175.32 391.53 175.54 391.25 175.53
  C 390.75 175.52 390.31 175.36 389.94 175.06
  Z"
/>
<ellipse fill="#e4f5fc" cx="0.00" cy="0.00" transform="translate(395.49,174.99) rotate(-31.4)" rx="1.13" ry="0.64"/>
<path fill="#e4f5fc" d="
  M 399.13 174.90
  C 399.02 174.84 398.99 174.70 399.07 174.60
  C 399.50 174.08 400.10 174.03 400.87 174.46
  C 401.19 174.64 401.15 175.12 400.80 175.23
  C 400.37 175.37 399.81 175.26 399.13 174.90
  Z"
/>
<ellipse fill="#e4f5fc" cx="0.00" cy="0.00" transform="translate(404.54,174.85) rotate(6.7)" rx="1.01" ry="0.66"/>
<path fill="#e4f5fc" d="
  M 410.12 174.99
  C 409.50 175.54 408.92 175.57 408.39 175.06
  C 407.88 174.57 407.98 174.32 408.69 174.29
  L 409.82 174.25
  C 410.61 174.22 410.71 174.47 410.12 174.99
  Z"
/>
<ellipse fill="#e4f5fc" cx="0.00" cy="0.00" transform="translate(372.87,174.95) rotate(-1.3)" rx="1.13" ry="0.50"/>
<path fill="#e4f5fc" d="
  M 414.35 174.85
  C 414.55 175.01 414.49 175.32 414.25 175.40
  C 413.64 175.61 413.10 175.58 412.61 175.29
  C 412.37 175.16 412.35 174.82 412.58 174.66
  C 413.15 174.28 413.74 174.34 414.35 174.85
  Z"
/>
<path fill="#597c8b" d="
  M 448.25 196.46
  L 441.50 196.46
  L 440.76 193.84
  C 440.67 193.53 440.46 193.28 440.18 193.14
  C 438.15 192.13 436.13 191.14 434.12 190.15
  C 432.09 189.16 430.07 189.35 427.96 188.16
  C 427.63 187.98 427.46 187.60 427.54 187.23
  L 427.86 185.88
  C 427.95 185.53 428.28 185.29 428.64 185.32
  L 440.44 186.32
  C 440.74 186.34 441.00 186.10 441.00 185.80
  L 441.00 181.84
  C 441.00 181.54 440.80 181.27 440.50 181.19
  C 440.42 181.17 432.59 179.61 432.56 179.50
  C 432.48 179.25 432.66 179.00 432.92 179.00
  L 447.72 179.00
  C 448.00 179.00 448.22 179.22 448.22 179.50
  L 448.25 196.46
  Z"
/>
<path fill="#ed121a" d="
  M 367.75 193.96
  C 364.80 193.00 362.93 191.82 359.66 192.28
  C 353.52 193.15 347.45 194.39 341.46 196.00
  C 338.81 183.68 350.05 176.89 360.75 182.25
  C 361.82 182.79 363.28 184.79 365.13 188.25
  C 365.29 188.55 365.54 188.80 365.84 188.96
  L 373.89 193.19
  C 374.27 193.39 374.28 193.60 373.91 193.82
  C 371.96 195.01 369.91 195.05 367.75 193.96
  Z"
/>
<path fill="#004c6e" d="
  M 257.00 187.96
  C 259.44 194.62 260.79 200.30 261.06 205.01
  C 262.15 224.38 262.41 242.98 261.83 260.82
  C 261.24 278.87 261.25 296.02 261.87 312.25
  C 259.75 313.28 244.00 313.70 243.04 312.00
  C 243.17 309.88 243.95 308.50 245.38 307.86
  C 250.71 305.48 249.58 303.22 248.98 297.73
  C 247.90 287.76 246.49 277.84 244.75 267.96
  L 245.42 256.00
  C 245.44 255.73 245.68 255.54 245.94 255.59
  C 251.71 256.63 250.49 250.15 249.86 247.01
  C 249.80 246.71 249.57 246.47 249.27 246.40
  C 247.33 245.96 241.64 246.32 241.17 245.28
  C 240.90 244.69 241.33 244.02 241.98 244.02
  L 248.78 244.02
  C 249.17 244.02 249.47 243.70 249.45 243.31
  L 249.35 241.16
  C 249.33 240.78 249.02 240.48 248.64 240.47
  L 240.25 240.21
  C 240.14 236.89 239.61 233.65 238.65 230.48
  C 238.55 230.15 238.45 230.15 238.36 230.48
  C 237.44 233.65 237.07 236.90 237.25 240.21
  L 217.50 240.46
  L 217.28 240.28
  C 217.11 240.15 217.01 239.94 217.00 239.72
  L 216.25 215.21
  L 247.80 226.73
  C 248.88 227.12 250.08 226.56 250.48 225.48
  L 257.28 206.84
  C 257.50 206.23 257.20 205.55 256.59 205.30
  L 242.36 199.50
  C 243.49 197.43 244.03 195.60 246.06 194.30
  C 249.61 192.02 253.26 189.91 257.00 187.96
  Z"
/>
<path fill="#ffffff" d="
  M 213.71 188.75
  L 213.75 189.03
  C 213.76 189.12 213.82 189.19 213.91 189.23
  C 219.56 191.68 225.34 193.78 231.25 195.54
  L 226.45 201.33
  C 226.25 201.57 226.25 201.91 226.45 202.15
  C 227.34 203.20 231.29 198.27 232.08 197.52
  C 232.32 197.29 232.70 197.31 232.93 197.55
  L 233.15 197.79
  C 233.36 198.00 233.36 198.34 233.15 198.55
  L 228.18 203.65
  C 227.89 203.94 227.81 204.38 227.96 204.76
  C 228.59 206.30 233.40 200.12 234.00 199.42
  C 234.14 199.25 234.41 199.33 234.44 199.55
  L 234.50 200.00
  C 234.54 200.32 234.46 200.64 234.29 200.90
  L 230.70 206.31
  C 230.50 206.60 230.71 207.00 231.07 207.01
  C 232.38 207.04 235.16 202.86 236.18 201.78
  C 236.46 201.49 236.65 201.53 236.76 201.92
  C 236.98 202.75 234.50 206.11 233.94 206.94
  C 233.30 207.88 233.51 208.15 234.58 207.75
  C 236.31 207.11 240.54 201.09 242.36 199.50
  L 256.59 205.30
  C 257.20 205.55 257.50 206.23 257.28 206.84
  L 250.48 225.48
  C 250.08 226.56 248.88 227.12 247.80 226.73
  L 216.25 215.21
  L 205.51 210.88
  C 204.80 210.59 204.43 209.81 204.67 209.08
  C 206.60 203.21 208.78 197.23 211.21 191.13
  C 211.72 189.84 212.59 189.39 213.71 188.75
  Z"
/>
<path fill="#017ef6" d="
  M 428.07 190.95
  C 428.20 190.60 428.65 190.51 428.90 190.79
  C 429.71 191.70 430.03 192.78 429.88 194.01
  C 429.82 194.46 429.40 194.78 428.95 194.72
  L 427.68 194.56
  C 427.24 194.51 426.96 194.06 427.11 193.64
  L 428.07 190.95
  Z"
/>
<path fill="#614236" d="
  M 367.75 193.96
  L 365.50 194.79
  C 361.59 193.65 358.49 194.44 356.21 197.15
  C 355.56 197.93 354.36 197.92 353.72 197.13
  L 351.83 194.81
  C 351.64 194.57 351.32 194.47 351.02 194.55
  C 347.11 195.64 349.93 202.96 341.25 202.46
  L 341.46 196.00
  C 347.45 194.39 353.52 193.15 359.66 192.28
  C 362.93 191.82 364.80 193.00 367.75 193.96
  Z"
/>
<path fill="#e47f56" d="
  M 365.50 194.79
  L 363.73 203.29
  C 363.66 203.61 363.68 203.93 363.77 204.24
  C 364.10 205.39 364.20 206.54 364.07 207.69
  C 364.04 207.98 363.80 208.20 363.51 208.22
  C 360.53 208.49 359.28 212.18 357.61 214.37
  C 357.41 214.63 357.10 214.79 356.77 214.78
  C 354.68 214.73 352.73 214.15 350.94 213.06
  C 350.68 212.90 350.35 213.01 350.22 213.28
  L 348.54 216.75
  L 344.67 212.83
  C 342.65 210.28 340.15 208.26 337.18 206.79
  C 338.85 205.79 340.20 204.35 341.25 202.46
  C 349.93 202.96 347.11 195.64 351.02 194.55
  C 351.32 194.47 351.64 194.57 351.83 194.81
  L 353.72 197.13
  C 354.36 197.92 355.56 197.93 356.21 197.15
  C 358.49 194.44 361.59 193.65 365.50 194.79
  Z"
/>
<path fill="#e47f56" d="
  M 395.27 196.17
  C 392.70 196.41 385.51 195.85 386.93 200.59
  C 387.02 200.89 387.24 201.13 387.54 201.24
  C 388.49 201.61 389.07 202.28 389.29 203.25
  C 389.65 206.14 389.40 208.98 388.54 211.75
  C 387.88 212.69 387.41 213.72 387.13 214.83
  C 385.34 222.00 382.83 228.91 379.60 235.54
  C 378.00 238.83 376.52 240.37 372.76 239.73
  C 370.19 239.30 365.86 238.80 359.79 238.25
  L 361.92 224.12
  L 370.69 227.00
  C 370.97 227.09 371.26 226.98 371.41 226.73
  C 374.18 222.18 377.04 217.70 379.99 213.30
  C 383.22 208.48 381.13 205.09 383.15 200.70
  C 385.46 195.68 389.50 194.17 395.27 196.17
  Z"
/>
<path fill="#ffffff" d="
  M 395.27 196.17
  L 441.50 196.46
  L 448.25 196.46
  L 453.46 196.75
  L 453.46 202.00
  C 453.26 202.49 452.19 203.27 451.76 202.55
  C 451.65 202.37 451.46 202.26 451.26 202.26
  C 432.67 202.25 414.09 202.25 395.50 202.26
  C 393.37 202.27 391.30 202.60 389.29 203.25
  C 389.07 202.28 388.49 201.61 387.54 201.24
  C 387.24 201.13 387.02 200.89 386.93 200.59
  C 385.51 195.85 392.70 196.41 395.27 196.17
  Z"
/>
<path fill="#ffffff" d="
  M 157.30 197.32
  C 162.25 198.21 166.81 198.11 170.96 197.02
  C 171.97 197.43 172.70 197.89 173.15 198.41
  C 173.38 198.66 173.50 198.99 173.50 199.33
  L 173.22 242.49
  C 173.22 242.84 173.13 243.16 172.96 243.47
  L 171.98 245.18
  C 171.77 245.55 172.03 246.00 172.45 246.00
  L 178.52 246.00
  C 178.87 246.00 179.15 245.72 179.16 245.36
  L 179.22 241.83
  C 179.24 241.09 179.83 240.51 180.57 240.50
  L 217.50 240.46
  L 237.25 240.21
  L 240.25 240.21
  L 248.64 240.47
  C 249.02 240.48 249.33 240.78 249.35 241.16
  L 249.45 243.31
  C 249.47 243.70 249.17 244.02 248.78 244.02
  L 241.98 244.02
  C 241.33 244.02 240.90 244.69 241.17 245.28
  C 241.64 246.32 247.33 245.96 249.27 246.40
  C 249.57 246.47 249.80 246.71 249.86 247.01
  C 250.49 250.15 251.71 256.63 245.94 255.59
  C 245.68 255.54 245.44 255.73 245.42 256.00
  L 244.75 267.96
  L 244.42 268.01
  C 244.29 268.03 244.18 268.13 244.14 268.26
  C 242.51 273.51 239.40 277.64 234.81 280.63
  C 234.53 280.81 234.35 281.11 234.32 281.44
  C 234.24 282.27 234.29 283.37 234.46 284.76
  C 235.45 292.46 236.42 300.17 237.38 307.88
  C 237.42 308.24 237.64 308.55 237.96 308.72
  L 239.46 309.50
  C 239.71 309.64 239.91 309.85 240.03 310.11
  C 240.36 310.90 240.44 311.85 240.25 312.94
  L 171.66 313.00
  C 171.37 313.00 171.09 312.93 170.83 312.79
  L 170.29 312.50
  C 170.23 311.57 170.43 310.75 170.89 310.03
  C 171.06 309.77 171.32 309.58 171.62 309.50
  L 173.96 308.87
  C 174.30 308.78 174.55 308.49 174.59 308.15
  L 177.54 283.75
  L 179.01 282.94
  C 179.08 282.90 179.15 282.94 179.17 283.01
  L 179.24 283.28
  C 179.35 283.71 179.50 283.72 179.68 283.31
  C 181.18 279.94 181.81 277.25 186.50 277.00
  C 188.78 276.87 192.29 276.92 197.03 277.13
  C 197.36 277.14 197.67 277.25 197.94 277.44
  C 201.37 279.81 208.32 283.62 208.16 288.37
  C 207.97 294.12 207.74 299.75 207.47 305.27
  C 207.42 306.26 206.61 307.03 205.62 307.04
  L 177.85 307.13
  C 177.55 307.13 177.28 307.33 177.18 307.62
  L 177.01 308.14
  C 176.92 308.43 177.14 308.73 177.45 308.72
  C 188.82 308.25 200.72 308.97 211.89 308.99
  C 212.28 309.00 212.59 308.65 212.55 308.26
  C 211.84 301.41 211.07 294.74 210.24 288.25
  C 209.90 285.54 208.82 283.03 206.27 281.41
  C 197.44 275.82 195.61 268.89 192.24 259.31
  C 192.03 258.72 192.46 258.09 193.09 258.07
  C 207.07 257.72 221.29 257.61 235.76 257.76
  C 238.09 257.78 240.35 257.36 242.63 256.93
  C 242.86 256.89 243.03 256.68 243.03 256.45
  C 243.02 256.22 242.85 256.02 242.62 255.98
  C 241.11 255.74 239.57 255.62 238.00 255.62
  C 213.03 255.53 188.05 255.50 163.08 255.51
  C 162.39 255.51 161.74 255.88 161.25 256.29
  L 154.94 254.99
  C 154.64 254.93 154.40 254.71 154.31 254.41
  L 151.87 246.53
  C 151.78 246.22 151.54 245.98 151.24 245.87
  C 149.98 245.42 149.34 244.77 149.30 243.33
  C 148.93 228.66 148.74 215.80 148.71 204.75
  C 148.71 203.02 148.84 200.96 149.10 198.57
  C 149.13 198.29 149.37 198.08 149.65 198.09
  C 152.40 198.21 154.95 197.95 157.30 197.32
  Z
  M 217.25 245.46
  L 217.69 245.77
  C 217.88 245.91 218.11 245.98 218.34 245.98
  C 225.33 246.04 235.37 246.66 237.34 245.15
  C 237.61 244.94 237.59 244.79 237.26 244.68
  C 234.25 243.69 219.71 243.25 217.00 244.54
  C 210.76 244.16 201.20 244.13 188.32 244.44
  C 187.57 244.46 187.11 244.72 186.96 245.23
  C 186.88 245.50 187.08 245.77 187.36 245.78
  C 196.47 246.07 208.43 247.16 217.25 245.46
  Z"
/>
<path fill="#e4f5fc" d="
  M 453.46 202.00
  L 453.46 224.50
  L 453.17 224.72
  C 452.94 224.90 452.67 224.99 452.39 224.99
  L 428.75 225.29
  C 425.25 224.82 421.75 224.82 418.25 225.29
  C 406.57 224.55 393.19 227.76 389.44 213.09
  C 389.27 212.43 389.00 212.19 388.54 211.75
  C 389.40 208.98 389.65 206.14 389.29 203.25
  C 391.30 202.60 393.37 202.27 395.50 202.26
  C 414.09 202.25 432.67 202.25 451.26 202.26
  C 451.46 202.26 451.65 202.37 451.76 202.55
  C 452.19 203.27 453.26 202.49 453.46 202.00
  Z"
/>
<path fill="#e4f5fc" d="
  M 337.18 206.79
  C 340.15 208.26 342.65 210.28 344.67 212.83
  C 335.51 206.53 327.46 215.64 321.72 222.96
  C 324.39 215.15 329.55 209.76 337.18 206.79
  Z"
/>
<path fill="#004c6e" d="
  M 344.67 212.83
  L 348.54 216.75
  L 348.96 217.25
  C 350.13 219.87 351.00 222.58 351.55 225.39
  C 352.22 228.79 353.87 233.31 353.21 238.00
  L 352.00 243.29
  C 351.53 241.52 351.10 239.74 350.71 237.94
  C 348.85 229.33 352.66 221.62 345.08 215.36
  C 333.93 206.15 324.70 222.90 323.26 231.50
  C 322.84 234.04 320.73 252.21 323.44 255.98
  C 323.62 256.23 323.93 256.35 324.23 256.29
  C 329.25 255.38 333.62 253.14 337.34 249.57
  C 338.61 253.19 339.91 256.63 341.24 259.88
  C 342.37 262.64 344.13 263.38 346.75 264.21
  C 346.39 264.35 346.21 264.53 346.22 264.76
  C 346.23 265.26 346.63 265.68 347.13 265.71
  C 356.77 266.28 366.67 266.08 376.00 268.04
  C 374.36 269.27 372.90 273.12 376.38 273.07
  C 376.70 273.06 377.01 272.94 377.26 272.73
  L 381.00 269.46
  C 385.44 270.57 389.35 273.57 389.00 278.26
  C 388.52 284.87 378.40 289.52 373.38 292.27
  C 373.17 292.38 373.15 292.67 373.34 292.81
  C 374.99 294.06 376.60 295.38 378.15 296.75
  C 383.11 301.15 381.84 307.66 377.21 311.75
  C 375.58 312.58 374.26 312.99 373.25 312.99
  C 359.25 313.00 345.25 313.00 331.24 312.99
  C 330.92 312.99 330.63 312.83 330.46 312.56
  L 329.96 311.75
  L 331.05 307.53
  C 331.11 307.32 330.91 307.12 330.70 307.18
  C 328.63 307.73 327.32 309.08 326.75 311.21
  C 326.26 312.12 325.61 312.52 324.82 312.42
  C 319.21 311.70 314.02 311.89 309.25 312.99
  C 308.28 313.22 307.04 312.89 305.54 312.00
  C 305.25 311.64 305.06 311.22 304.99 310.73
  C 304.94 310.41 305.03 310.09 305.23 309.84
  C 309.49 304.47 318.95 302.36 325.09 298.99
  C 325.38 298.83 325.37 298.71 325.04 298.62
  C 316.39 296.41 312.10 290.69 312.16 281.48
  C 312.28 265.56 313.13 248.75 317.03 234.00
  C 317.83 230.98 319.39 227.30 321.72 222.96
  C 327.46 215.64 335.51 206.53 344.67 212.83
  Z
  M 337.9936 302.2981
  C 338.06 301.98 337.20 301.53 336.0737 301.2831
  C 334.95 301.04 333.97 301.10 333.9064 301.4219
  C 333.84 301.74 334.70 302.19 335.8263 302.4369
  C 336.95 302.68 337.93 302.62 337.9936 302.2981
  Z"
/>
<path fill="#9cdff9" d="
  M 388.54 211.75
  C 389.00 212.19 389.27 212.43 389.44 213.09
  C 393.19 227.76 406.57 224.55 418.25 225.29
  C 419.62 227.68 419.79 230.07 418.74 232.45
  C 418.61 232.74 418.61 233.07 418.73 233.36
  C 420.09 236.67 419.80 241.27 419.76 244.84
  C 419.74 246.81 418.91 249.64 419.55 252.48
  C 420.27 255.66 418.95 258.38 419.30 261.15
  C 421.09 275.31 440.07 275.05 441.46 260.66
  C 441.68 258.48 440.83 256.11 441.38 253.53
  C 441.45 253.23 441.69 253.00 441.99 252.95
  C 445.90 252.33 449.81 252.46 453.73 253.34
  C 453.54 270.65 453.56 288.04 453.79 305.50
  C 453.80 306.59 453.62 308.99 453.25 312.71
  C 452.08 313.85 388.56 313.00 381.48 313.00
  C 379.84 313.00 378.18 313.89 377.21 311.75
  C 381.84 307.66 383.11 301.15 378.15 296.75
  C 376.60 295.38 374.99 294.06 373.34 292.81
  C 373.15 292.67 373.17 292.38 373.38 292.27
  C 378.40 289.52 388.52 284.87 389.00 278.26
  C 389.35 273.57 385.44 270.57 381.00 269.46
  L 384.54 266.00
  C 386.03 265.33 387.40 265.47 388.63 266.44
  C 388.86 266.62 389.18 266.62 389.41 266.44
  C 392.65 263.93 394.50 260.61 394.96 256.50
  L 404.71 247.47
  C 404.97 247.23 405.30 247.06 405.65 246.99
  L 407.04 246.73
  C 407.53 246.64 407.60 246.41 407.25 246.06
  L 404.00 242.71
  C 403.32 241.13 403.70 240.04 405.14 239.44
  C 405.38 239.33 405.67 239.43 405.80 239.66
  C 406.82 241.48 408.17 243.01 409.85 244.24
  C 410.12 244.44 410.48 244.47 410.78 244.33
  C 414.25 242.70 409.45 231.83 404.80 236.05
  C 402.31 238.31 400.63 239.72 399.75 240.29
  C 397.39 238.69 394.62 239.47 394.29 242.50
  C 394.27 245.58 390.43 249.30 388.52 251.14
  C 388.28 251.36 388.18 251.69 388.24 252.00
  C 388.33 252.41 388.51 252.83 388.78 253.24
  C 389.13 253.76 389.89 253.76 390.25 253.25
  C 390.99 252.18 391.89 251.43 392.96 251.00
  C 393.08 252.65 392.31 253.95 390.65 254.90
  C 384.64 254.37 378.76 254.87 372.75 253.68
  C 366.24 252.39 359.61 251.72 352.87 251.65
  C 352.58 251.65 352.34 251.44 352.30 251.15
  L 351.46 245.00
  L 352.00 243.29
  L 353.21 238.00
  C 355.37 238.71 357.56 238.80 359.79 238.25
  C 365.86 238.80 370.19 239.30 372.76 239.73
  C 376.52 240.37 378.00 238.83 379.60 235.54
  C 382.83 228.91 385.34 222.00 387.13 214.83
  C 387.41 213.72 387.88 212.69 388.54 211.75
  Z"
/>
<path fill="#e4f5fc" d="
  M 352.00 243.29
  L 351.46 245.00
  C 347.07 247.25 342.36 248.78 337.34 249.57
  C 333.62 253.14 329.25 255.38 324.23 256.29
  C 323.93 256.35 323.62 256.23 323.44 255.98
  C 320.73 252.21 322.84 234.04 323.26 231.50
  C 324.70 222.90 333.93 206.15 345.08 215.36
  C 352.66 221.62 348.85 229.33 350.71 237.94
  C 351.10 239.74 351.53 241.52 352.00 243.29
  Z"
/>
<path fill="#e4f5fc" d="
  M 361.92 224.12
  L 359.79 238.25
  C 357.56 238.80 355.37 238.71 353.21 238.00
  C 353.87 233.31 352.22 228.79 351.55 225.39
  C 351.00 222.58 350.13 219.87 348.96 217.25
  L 349.19 216.86
  C 349.32 216.64 349.61 216.58 349.82 216.72
  C 353.24 218.99 356.86 220.88 360.68 222.39
  C 361.00 222.52 361.26 222.77 361.41 223.08
  L 361.92 224.12
  Z"
/>
<path fill="#9cdff9" d="
  M 453.46 224.50
  C 453.64 228.48 454.80 240.70 453.21 243.75
  C 447.00 245.53 438.74 242.74 434.56 249.43
  C 432.96 251.98 433.23 255.98 432.29 259.25
  C 432.20 259.55 432.24 259.87 432.41 260.14
  C 434.64 263.72 430.44 264.00 428.11 263.03
  C 427.44 262.75 427.20 261.91 427.63 261.32
  L 428.49 260.11
  C 428.68 259.85 428.72 259.51 428.59 259.21
  C 427.40 256.42 427.34 253.61 428.43 250.78
  C 428.55 250.48 428.55 250.14 428.43 249.84
  C 426.81 245.76 427.48 240.19 427.56 235.81
  C 427.57 235.47 427.67 235.14 427.87 234.87
  C 428.87 233.44 428.90 231.95 427.95 230.38
  C 427.76 230.06 427.70 229.68 427.79 229.32
  L 428.75 225.29
  L 452.39 224.99
  C 452.67 224.99 452.94 224.90 453.17 224.72
  L 453.46 224.50
  Z"
/>
<path fill="#597c8b" d="
  M 428.75 225.29
  L 427.79 229.32
  C 427.70 229.68 427.76 230.06 427.95 230.38
  C 428.90 231.95 428.87 233.44 427.87 234.87
  C 427.67 235.14 427.57 235.47 427.56 235.81
  C 427.48 240.19 426.81 245.76 428.43 249.84
  C 428.55 250.14 428.55 250.48 428.43 250.78
  C 427.34 253.61 427.40 256.42 428.59 259.21
  C 428.72 259.51 428.68 259.85 428.49 260.11
  L 427.63 261.32
  C 427.20 261.91 427.44 262.75 428.11 263.03
  C 430.44 264.00 434.64 263.72 432.41 260.14
  C 432.24 259.87 432.20 259.55 432.29 259.25
  C 433.23 255.98 432.96 251.98 434.56 249.43
  C 438.74 242.74 447.00 245.53 453.21 243.75
  L 453.73 253.34
  C 449.81 252.46 445.90 252.33 441.99 252.95
  C 441.69 253.00 441.45 253.23 441.38 253.53
  C 440.83 256.11 441.68 258.48 441.46 260.66
  C 440.07 275.05 421.09 275.31 419.30 261.15
  C 418.95 258.38 420.27 255.66 419.55 252.48
  C 418.91 249.64 419.74 246.81 419.76 244.84
  C 419.80 241.27 420.09 236.67 418.73 233.36
  C 418.61 233.07 418.61 232.74 418.74 232.45
  C 419.79 230.07 419.62 227.68 418.25 225.29
  C 421.75 224.82 425.25 224.82 428.75 225.29
  Z"
/>
<path fill="#9cdff9" d="
  M 240.25 240.21
  L 237.25 240.21
  C 237.07 236.90 237.44 233.65 238.36 230.48
  C 238.45 230.15 238.55 230.15 238.65 230.48
  C 239.61 233.65 240.14 236.89 240.25 240.21
  Z"
/>
<path fill="#597c8b" d="
  M 404.00 242.71
  C 402.10 242.70 400.68 241.90 399.75 240.29
  C 400.63 239.72 402.31 238.31 404.80 236.05
  C 409.45 231.83 414.25 242.70 410.78 244.33
  C 410.48 244.47 410.12 244.44 409.85 244.24
  C 408.17 243.01 406.82 241.48 405.80 239.66
  C 405.67 239.43 405.38 239.33 405.14 239.44
  C 403.70 240.04 403.32 241.13 404.00 242.71
  Z"
/>
<path fill="#ed121a" d="
  M 399.75 240.29
  C 400.68 241.90 402.10 242.70 404.00 242.71
  L 407.25 246.06
  C 407.60 246.41 407.53 246.64 407.04 246.73
  L 405.65 246.99
  C 405.30 247.06 404.97 247.23 404.71 247.47
  L 394.96 256.50
  C 392.90 257.11 391.46 256.58 390.65 254.90
  C 392.31 253.95 393.08 252.65 392.96 251.00
  C 392.79 249.95 392.95 249.04 393.44 248.29
  C 393.62 248.03 393.98 248.00 394.20 248.22
  L 395.00 249.03
  C 395.24 249.27 395.60 249.35 395.92 249.22
  C 396.72 248.89 397.24 248.32 397.49 247.52
  C 397.58 247.22 397.52 246.89 397.34 246.64
  L 394.29 242.50
  C 394.62 239.47 397.39 238.69 399.75 240.29
  Z"
/>
<path fill="#597c8b" d="
  M 394.29 242.50
  L 397.34 246.64
  C 397.52 246.89 397.58 247.22 397.49 247.52
  C 397.24 248.32 396.72 248.89 395.92 249.22
  C 395.60 249.35 395.24 249.27 395.00 249.03
  L 394.20 248.22
  C 393.98 248.00 393.62 248.03 393.44 248.29
  C 392.95 249.04 392.79 249.95 392.96 251.00
  C 391.89 251.43 390.99 252.18 390.25 253.25
  C 389.89 253.76 389.13 253.76 388.78 253.24
  C 388.51 252.83 388.33 252.41 388.24 252.00
  C 388.18 251.69 388.28 251.36 388.52 251.14
  C 390.43 249.30 394.27 245.58 394.29 242.50
  Z"
/>
<path fill="#9cdff9" d="
  M 217.00 244.54
  L 217.25 245.46
  C 208.43 247.16 196.47 246.07 187.36 245.78
  C 187.08 245.77 186.88 245.50 186.96 245.23
  C 187.11 244.72 187.57 244.46 188.32 244.44
  C 201.20 244.13 210.76 244.16 217.00 244.54
  Z"
/>
<path fill="#004c6e" d="
  M 217.25 245.46
  L 217.00 244.54
  C 219.71 243.25 234.25 243.69 237.26 244.68
  C 237.59 244.79 237.61 244.94 237.34 245.15
  C 235.37 246.66 225.33 246.04 218.34 245.98
  C 218.11 245.98 217.88 245.91 217.69 245.77
  L 217.25 245.46
  Z"
/>
<path fill="#e47f56" d="
  M 351.46 245.00
  L 352.30 251.15
  C 352.34 251.44 352.58 251.65 352.87 251.65
  C 359.61 251.72 366.24 252.39 372.75 253.68
  C 378.76 254.87 384.64 254.37 390.65 254.90
  C 391.46 256.58 392.90 257.11 394.96 256.50
  C 394.50 260.61 392.65 263.93 389.41 266.44
  C 389.18 266.62 388.86 266.62 388.63 266.44
  C 387.40 265.47 386.03 265.33 384.54 266.00
  C 383.27 264.90 381.77 264.40 380.04 264.50
  C 378.31 262.25 375.96 261.41 372.99 261.97
  C 364.32 263.62 355.58 264.37 346.75 264.21
  C 344.13 263.38 342.37 262.64 341.24 259.88
  C 339.91 256.63 338.61 253.19 337.34 249.57
  C 342.36 248.78 347.07 247.25 351.46 245.00
  Z"
/>
<path fill="#e4f5fc" d="
  M 177.54 283.75
  C 177.21 281.87 177.43 281.07 176.30 279.34
  C 171.29 271.65 166.27 263.97 161.25 256.29
  C 161.74 255.88 162.39 255.51 163.08 255.51
  C 188.05 255.50 213.03 255.53 238.00 255.62
  C 239.57 255.62 241.11 255.74 242.62 255.98
  C 242.85 256.02 243.02 256.22 243.03 256.45
  C 243.03 256.68 242.86 256.89 242.63 256.93
  C 240.35 257.36 238.09 257.78 235.76 257.76
  C 221.29 257.61 207.07 257.72 193.09 258.07
  C 192.46 258.09 192.03 258.72 192.24 259.31
  C 195.61 268.89 197.44 275.82 206.27 281.41
  C 208.82 283.03 209.90 285.54 210.24 288.25
  C 211.07 294.74 211.84 301.41 212.55 308.26
  C 212.59 308.65 212.28 309.00 211.89 308.99
  C 200.72 308.97 188.82 308.25 177.45 308.72
  C 177.14 308.73 176.92 308.43 177.01 308.14
  L 177.18 307.62
  C 177.28 307.33 177.55 307.13 177.85 307.13
  L 205.62 307.04
  C 206.61 307.03 207.42 306.26 207.47 305.27
  C 207.74 299.75 207.97 294.12 208.16 288.37
  C 208.32 283.62 201.37 279.81 197.94 277.44
  C 197.67 277.25 197.36 277.14 197.03 277.13
  C 192.29 276.92 188.78 276.87 186.50 277.00
  C 181.81 277.25 181.18 279.94 179.68 283.31
  C 179.50 283.72 179.35 283.71 179.24 283.28
  L 179.17 283.01
  C 179.15 282.94 179.08 282.90 179.01 282.94
  L 177.54 283.75
  Z"
/>
<path fill="#9cdff9" d="
  M 380.04 264.50
  C 378.93 265.95 377.58 267.13 376.00 268.04
  C 366.67 266.08 356.77 266.28 347.13 265.71
  C 346.63 265.68 346.23 265.26 346.22 264.76
  C 346.21 264.53 346.39 264.35 346.75 264.21
  C 355.58 264.37 364.32 263.62 372.99 261.97
  C 375.96 261.41 378.31 262.25 380.04 264.50
  Z"
/>
<path fill="#ed121a" d="
  M 380.04 264.50
  C 381.77 264.40 383.27 264.90 384.54 266.00
  L 381.00 269.46
  L 377.26 272.73
  C 377.01 272.94 376.70 273.06 376.38 273.07
  C 372.90 273.12 374.36 269.27 376.00 268.04
  C 377.58 267.13 378.93 265.95 380.04 264.50
  Z"
/>
<path fill="#9cdff9" d="
  M 244.75 267.96
  C 246.49 277.84 247.90 287.76 248.98 297.73
  C 249.58 303.22 250.71 305.48 245.38 307.86
  C 243.95 308.50 243.17 309.88 243.04 312.00
  C 242.39 312.72 241.46 313.03 240.25 312.94
  C 240.44 311.85 240.36 310.90 240.03 310.11
  C 239.91 309.85 239.71 309.64 239.46 309.50
  L 237.96 308.72
  C 237.64 308.55 237.42 308.24 237.38 307.88
  C 236.42 300.17 235.45 292.46 234.46 284.76
  C 234.29 283.37 234.24 282.27 234.32 281.44
  C 234.35 281.11 234.53 280.81 234.81 280.63
  C 239.40 277.64 242.51 273.51 244.14 268.26
  C 244.18 268.13 244.29 268.03 244.42 268.01
  L 244.75 267.96
  Z"
/>
<ellipse fill="#46cffb" cx="0.00" cy="0.00" transform="translate(335.95,301.86) rotate(12.1)" rx="2.09" ry="0.59"/>
<path fill="#e47f56" d="
  M 329.96 311.75
  L 326.75 311.21
  C 327.32 309.08 328.63 307.73 330.70 307.18
  C 330.91 307.12 331.11 307.32 331.05 307.53
  L 329.96 311.75
  Z"
/>
<path fill="#9cc4d3" d="
  M 326.75 311.21
  L 329.96 311.75
  L 330.46 312.56
  C 330.63 312.83 330.92 312.99 331.24 312.99
  C 345.25 313.00 359.25 313.00 373.25 312.99
  C 374.26 312.99 375.58 312.58 377.21 311.75
  C 378.18 313.89 379.84 313.00 381.48 313.00
  C 388.56 313.00 452.08 313.85 453.25 312.71
  L 455.02 312.90
  L 508.36 313.01
  C 508.71 313.01 509.00 313.30 509.00 313.65
  L 509.00 320.37
  C 509.00 320.72 508.72 321.00 508.37 321.00
  L 103.50 321.00
  C 103.22 321.00 103.00 320.78 103.00 320.50
  L 103.00 313.60
  C 103.00 313.29 103.25 313.04 103.56 313.04
  C 129.22 312.96 146.28 312.95 154.74 313.01
  C 155.45 313.02 156.11 312.88 156.72 312.61
  C 158.12 312.79 169.72 313.63 170.29 312.50
  L 170.83 312.79
  C 171.09 312.93 171.37 313.00 171.66 313.00
  L 240.25 312.94
  C 241.46 313.03 242.39 312.72 243.04 312.00
  C 244.00 313.70 259.75 313.28 261.87 312.25
  C 261.77 312.74 262.08 312.98 262.81 312.98
  C 276.54 313.01 290.28 313.01 304.01 313.00
  C 304.80 313.00 305.16 312.61 305.54 312.00
  C 307.04 312.89 308.28 313.22 309.25 312.99
  C 314.02 311.89 319.21 311.70 324.82 312.42
  C 325.61 312.52 326.26 312.12 326.75 311.21
  Z"
/>
</svg>
