<?xml version="1.0" encoding="UTF-8" standalone="no"?>
<!DOCTYPE svg PUBLIC "-//W3C//DTD SVG 1.1//EN" "http://www.w3.org/Graphics/SVG/1.1/DTD/svg11.dtd">
<svg xmlns="http://www.w3.org/2000/svg" version="1.1" viewBox="0 0 612 612">
<g stroke-width="2.00" fill="none" stroke-linecap="butt">
<path stroke="#989898" vector-effect="non-scaling-stroke" d="
  M 204.78 426.09
  L 244.34 388.95
  C 244.56 388.74 244.89 388.73 245.12 388.92
  C 282.54 419.27 329.87 402.92 359.72 371.63
  C 359.87 371.47 359.87 371.22 359.72 371.06
  L 244.55 248.37
  C 244.36 248.16 244.04 248.13 243.81 248.30
  C 208.41 274.93 190.85 322.68 219.46 361.49
  C 219.62 361.71 219.59 362.01 219.40 362.20
  L 156.98 420.90
  C 156.77 421.10 156.74 421.42 156.92 421.65
  C 216.77 498.34 324.84 517.37 407.30 465.29
  C 521.98 392.88 523.42 225.96 412.06 149.95
  C 331.36 94.86 220.44 111.24 159.10 187.44
  C 133.55 219.19 119.67 255.87 117.48 297.50
  C 117.44 298.32 117.46 299.71 117.55 301.66
  C 117.56 301.95 117.84 302.16 118.13 302.10
  L 148.45 295.67
  C 148.77 295.60 149.01 295.34 149.03 295.01
  C 151.84 259.24 164.82 228.23 187.96 201.96
  C 253.04 128.08 370.94 131.67 430.79 210.20
  C 467.32 258.13 473.45 322.11 446.93 375.91
  C 401.81 467.45 283.02 491.35 204.80 426.49
  C 204.67 426.39 204.66 426.20 204.78 426.09"
/>
<path stroke="#989898" vector-effect="non-scaling-stroke" d="
  M 339.46 227.29
  C 344.07 216.94 334.50 206.46 323.78 207.94
  C 321.22 208.29 319.21 209.15 317.76 210.51
  C 302.46 224.79 287.19 239.09 271.95 253.42
  C 271.77 253.58 271.77 253.86 271.94 254.04
  L 290.75 274.09
  C 290.94 274.29 291.25 274.30 291.45 274.12
  C 305.72 260.97 319.85 247.65 333.83 234.18
  C 336.82 231.29 338.70 229.00 339.46 227.29"
/>
<path stroke="#989898" vector-effect="non-scaling-stroke" d="
  M 402.48 294.97
  C 409.19 280.25 390.65 268.80 378.73 280.00
  C 364.25 293.60 349.77 307.20 335.28 320.79
  C 335.07 320.98 335.06 321.31 335.25 321.51
  L 354.16 341.46
  C 354.35 341.66 354.66 341.67 354.87 341.48
  C 368.61 328.55 382.34 315.67 396.06 302.85
  C 399.33 299.79 401.47 297.16 402.48 294.97"
/>
</g>
<path fill="#ffffff" d="
  M 0.00 0.00
  L 612.00 0.00
  L 612.00 612.00
  L 0.00 612.00
  L 0.00 0.00
  Z
  M 204.78 426.09
  L 244.34 388.95
  C 244.56 388.74 244.89 388.73 245.12 388.92
  C 282.54 419.27 329.87 402.92 359.72 371.63
  C 359.87 371.47 359.87 371.22 359.72 371.06
  L 244.55 248.37
  C 244.36 248.16 244.04 248.13 243.81 248.30
  C 208.41 274.93 190.85 322.68 219.46 361.49
  C 219.62 361.71 219.59 362.01 219.40 362.20
  L 156.98 420.90
  C 156.77 421.10 156.74 421.42 156.92 421.65
  C 216.77 498.34 324.84 517.37 407.30 465.29
  C 521.98 392.88 523.42 225.96 412.06 149.95
  C 331.36 94.86 220.44 111.24 159.10 187.44
  C 133.55 219.19 119.67 255.87 117.48 297.50
  C 117.44 298.32 117.46 299.71 117.55 301.66
  C 117.56 301.95 117.84 302.16 118.13 302.10
  L 148.45 295.67
  C 148.77 295.60 149.01 295.34 149.03 295.01
  C 151.84 259.24 164.82 228.23 187.96 201.96
  C 253.04 128.08 370.94 131.67 430.79 210.20
  C 467.32 258.13 473.45 322.11 446.93 375.91
  C 401.81 467.45 283.02 491.35 204.80 426.49
  C 204.67 426.39 204.66 426.20 204.78 426.09
  Z
  M 339.46 227.29
  C 344.07 216.94 334.50 206.46 323.78 207.94
  C 321.22 208.29 319.21 209.15 317.76 210.51
  C 302.46 224.79 287.19 239.09 271.95 253.42
  C 271.77 253.58 271.77 253.86 271.94 254.04
  L 290.75 274.09
  C 290.94 274.29 291.25 274.30 291.45 274.12
  C 305.72 260.97 319.85 247.65 333.83 234.18
  C 336.82 231.29 338.70 229.00 339.46 227.29
  Z
  M 402.48 294.97
  C 409.19 280.25 390.65 268.80 378.73 280.00
  C 364.25 293.60 349.77 307.20 335.28 320.79
  C 335.07 320.98 335.06 321.31 335.25 321.51
  L 354.16 341.46
  C 354.35 341.66 354.66 341.67 354.87 341.48
  C 368.61 328.55 382.34 315.67 396.06 302.85
  C 399.33 299.79 401.47 297.16 402.48 294.97
  Z"
/>
<path fill="#303030" d="
  M 204.78 426.09
  C 204.66 426.20 204.67 426.39 204.80 426.49
  C 283.02 491.35 401.81 467.45 446.93 375.91
  C 473.45 322.11 467.32 258.13 430.79 210.20
  C 370.94 131.67 253.04 128.08 187.96 201.96
  C 164.82 228.23 151.84 259.24 149.03 295.01
  C 149.01 295.34 148.77 295.60 148.45 295.67
  L 118.13 302.10
  C 117.84 302.16 117.56 301.95 117.55 301.66
  C 117.46 299.71 117.44 298.32 117.48 297.50
  C 119.67 255.87 133.55 219.19 159.10 187.44
  C 220.44 111.24 331.36 94.86 412.06 149.95
  C 523.42 225.96 521.98 392.88 407.30 465.29
  C 324.84 517.37 216.77 498.34 156.92 421.65
  C 156.74 421.42 156.77 421.10 156.98 420.90
  L 219.40 362.20
  C 219.59 362.01 219.62 361.71 219.46 361.49
  C 190.85 322.68 208.41 274.93 243.81 248.30
  C 244.04 248.13 244.36 248.16 244.55 248.37
  L 359.72 371.06
  C 359.87 371.22 359.87 371.47 359.72 371.63
  C 329.87 402.92 282.54 419.27 245.12 388.92
  C 244.89 388.73 244.56 388.74 244.34 388.95
  L 204.78 426.09
  Z"
/>
<path fill="#303030" d="
  M 333.83 234.18
  C 319.85 247.65 305.72 260.97 291.45 274.12
  C 291.25 274.30 290.94 274.29 290.75 274.09
  L 271.94 254.04
  C 271.77 253.86 271.77 253.58 271.95 253.42
  C 287.19 239.09 302.46 224.79 317.76 210.51
  C 319.21 209.15 321.22 208.29 323.78 207.94
  C 334.50 206.46 344.07 216.94 339.46 227.29
  C 338.70 229.00 336.82 231.29 333.83 234.18
  Z"
/>
<path fill="#303030" d="
  M 378.73 280.00
  C 390.65 268.80 409.19 280.25 402.48 294.97
  C 401.47 297.16 399.33 299.79 396.06 302.85
  C 382.34 315.67 368.61 328.55 354.87 341.48
  C 354.66 341.67 354.35 341.66 354.16 341.46
  L 335.25 321.51
  C 335.06 321.31 335.07 320.98 335.28 320.79
  C 349.77 307.20 364.25 293.60 378.73 280.00
  Z"
/>
</svg>
