<?xml version="1.0" encoding="UTF-8" standalone="no"?>
<!DOCTYPE svg PUBLIC "-//W3C//DTD SVG 1.1//EN" "http://www.w3.org/Graphics/SVG/1.1/DTD/svg11.dtd">
<svg xmlns="http://www.w3.org/2000/svg" version="1.1" viewBox="0 0 676 691"><link xmlns="" type="text/css" rel="stylesheet" id="dark-mode-custom-link"/><link xmlns="" type="text/css" rel="stylesheet" id="dark-mode-general-link"/><style xmlns="" lang="en" type="text/css" id="dark-mode-custom-style"/><style xmlns="" lang="en" type="text/css" id="dark-mode-native-style"/><style xmlns="" lang="en" type="text/css" id="dark-mode-native-sheet"/>
<g stroke-width="2.00" fill="none" stroke-linecap="butt">
<path stroke="#7dc4d6" vector-effect="non-scaling-stroke" d="   M 159.75 245.96   L 159.50 246.23   C 159.34 246.40 159.25 246.63 159.25 246.87   L 159.29 258.50"/>
<path stroke="#f4ebe8" vector-effect="non-scaling-stroke" d="   M 159.29 258.50   C 158.02 259.84 157.39 261.01 157.40 262.00   C 157.45 271.67 156.57 280.18 154.78 287.53   C 148.19 314.59 124.88 312.27 103.60 320.96   C 75.12 332.59 58.04 366.46 53.10 394.85   C 50.36 410.55 50.57 428.54 52.24 444.50   C 52.58 447.77 52.70 450.41 52.61 452.43"/>
<path stroke="#cdeaec" vector-effect="non-scaling-stroke" d="   M 52.61 452.43   C 52.38 462.32 53.35 473.43 55.54 485.74   C 60.93 516.04 72.90 545.27 100.47 560.94   C 148.44 588.21 204.03 577.45 256.06 579.92   C 285.44 581.31 314.57 584.69 343.45 590.04   C 363.15 593.70 382.70 599.02 402.25 603.46   C 465.87 617.91 540.44 613.56 582.18 555.19   C 586.21 549.54 590.24 543.89 594.25 538.23   C 603.53 525.13 614.98 515.07 626.02 504.04   C 633.15 496.93 637.64 488.92 639.49 480.01   C 641.12 472.20 639.77 464.78 635.44 457.76"/>
<path stroke="#f4ebe8" vector-effect="non-scaling-stroke" d="   M 635.44 457.76   C 637.31 440.47 636.59 423.80 633.26 407.75   C 621.81 352.50 598.73 311.04 595.88 259.78   C 594.50 234.82 594.48 218.41 590.32 199.44   C 582.44 163.46 554.00 133.63 518.51 124.25   C 518.38 124.21 518.12 124.22 517.75 124.29"/>
<path stroke="#efc9ba" vector-effect="non-scaling-stroke" d="   M 517.75 124.29   L 513.21 120.50"/>
<path stroke="#8395ac" vector-effect="non-scaling-stroke" d="   M 513.21 120.50   C 513.12 119.99 513.01 119.79 513.14 119.26   C 515.39 110.05 514.10 101.36 509.29 93.21"/>
<path stroke="#f09b96" vector-effect="non-scaling-stroke" d="   M 509.29 93.21   C 506.81 87.98 503.20 83.75 498.45 80.50   C 493.84 77.35 484.26 80.44 479.75 82.49   C 466.47 88.55 464.19 100.03 468.44 113.34"/>
<path stroke="#f4ebe8" vector-effect="non-scaling-stroke" d="   M 468.44 113.34   C 465.29 112.74 462.19 112.16 459.15 111.59   C 411.06 102.58 388.88 60.36 348.80 38.00   C 307.54 14.97 254.27 14.20 215.50 43.42   C 183.27 67.71 170.83 108.07 167.11 146.49   C 164.04 178.29 161.80 210.15 159.23 242.00   C 159.15 243.04 159.32 244.36 159.75 245.96"/>
<path stroke="#ec928d" vector-effect="non-scaling-stroke" d="   M 468.44 113.34   C 467.97 116.27 467.20 119.15 466.14 121.98   C 465.21 124.49 461.89 136.41 469.17 133.27   C 471.14 132.42 473.17 131.65 475.25 130.96"/>
<path stroke="#ebc0b1" vector-effect="non-scaling-stroke" d="   M 475.25 130.96   C 477.87 134.45 482.16 140.74 485.25 141.79"/>
<path stroke="#f8a69a" vector-effect="non-scaling-stroke" d="   M 485.25 141.79   C 478.93 154.31 472.61 166.83 466.30 179.35   C 465.51 180.90 465.41 181.85 465.00 183.46"/>
<path stroke="#ebc0b1" vector-effect="non-scaling-stroke" d="   M 465.00 183.46   C 452.18 205.94 435.35 224.86 414.50 240.21"/>
<path stroke="#7f8ca3" vector-effect="non-scaling-stroke" d="   M 414.50 240.21   C 415.09 238.84 415.23 237.38 414.92 235.82   C 414.86 235.49 414.57 235.25 414.23 235.25   L 406.49 235.25   C 406.14 235.25 405.86 235.52 405.84 235.87   L 405.71 239.25"/>
<path stroke="#79bbcd" vector-effect="non-scaling-stroke" d="   M 405.71 239.25   L 381.82 239.19   C 381.51 239.19 381.21 239.04 381.02 238.79   C 377.31 233.81 372.39 230.70 366.25 229.46"/>
<path stroke="#7f8ca3" vector-effect="non-scaling-stroke" d="   M 366.25 229.46   C 365.60 226.87 365.47 224.22 365.88 221.52   C 365.92 221.25 366.15 221.05 366.43 221.04   L 381.05 220.91   C 381.37 220.90 381.68 220.80 381.94 220.60   C 384.21 218.84 384.57 216.65 383.00 214.02   C 382.56 213.29 381.78 212.83 380.92 212.81   L 366.38 212.52   C 366.13 212.51 365.91 212.32 365.87 212.07   L 365.32 208.79   C 365.26 208.42 364.98 208.13 364.61 208.06   C 361.47 207.44 356.36 206.75 357.17 212.04   C 357.21 212.30 357.01 212.53 356.75 212.52   C 353.61 212.45 342.97 211.76 340.68 213.35   C 338.44 214.90 338.40 218.97 340.66 220.30   C 343.23 221.82 353.32 221.01 356.71 221.02   C 356.99 221.02 357.21 221.24 357.21 221.52   L 357.25 229.21"/>
<path stroke="#79bbcd" vector-effect="non-scaling-stroke" d="   M 357.25 229.21   C 351.12 230.62 346.19 233.81 342.48 238.78   C 342.29 239.04 341.99 239.19 341.68 239.19   L 321.50 239.29"/>
<path stroke="#7f8ca3" vector-effect="non-scaling-stroke" d="   M 321.50 239.29   L 321.18 235.71   C 321.16 235.45 320.94 235.25 320.68 235.25   L 312.53 235.25   C 312.25 235.25 312.02 235.48 312.01 235.76   L 311.71 246.25"/>
<path stroke="#79bbcd" vector-effect="non-scaling-stroke" d="   M 311.71 246.25   C 300.90 245.86 290.10 245.86 279.29 246.25"/>
<path stroke="#7f8ca3" vector-effect="non-scaling-stroke" d="   M 279.29 246.25   L 279.08 241.29   C 279.07 240.99 278.82 240.75 278.52 240.75   L 270.56 240.75   C 270.30 240.75 270.08 240.96 270.06 241.22   L 269.71 246.25"/>
<path stroke="#79bbcd" vector-effect="non-scaling-stroke" d="   M 269.71 246.25   C 257.31 245.88 244.91 245.87 232.50 246.21"/>
<path stroke="#ebc0b1" vector-effect="non-scaling-stroke" d="   M 232.50 246.21   C 235.98 240.60 238.65 234.62 240.50 228.29"/>
<path stroke="#f8a69a" vector-effect="non-scaling-stroke" d="   M 240.50 228.29   C 244.15 228.43 247.52 227.55 250.63 225.66   C 250.90 225.49 251.23 225.42 251.55 225.46   L 255.34 225.98   C 255.70 226.03 256.06 225.85 256.24 225.54   C 257.49 223.36 245.98 217.00 244.21 216.00"/>
<path stroke="#ec928d" vector-effect="non-scaling-stroke" d="   M 244.21 216.00   C 244.26 213.63 244.51 210.70 244.96 207.22   C 246.93 191.76 224.94 189.02 214.27 188.05   C 213.94 188.02 213.61 188.09 213.32 188.23   C 208.66 190.50 197.93 199.60 199.38 205.63"/>
<path stroke="#7f8ca3" vector-effect="non-scaling-stroke" d="   M 199.38 205.63   C 196.17 214.79 196.56 223.66 200.54 232.25"/>
<path stroke="#ebc0b1" vector-effect="non-scaling-stroke" d="   M 200.54 232.25   C 198.89 237.06 196.79 241.68 194.24 246.10   C 194.20 246.18 194.11 246.24 194.02 246.25   L 193.75 246.29"/>
<path stroke="#79bbcd" vector-effect="non-scaling-stroke" d="   M 193.75 246.29   C 183.08 246.14 172.42 246.12 161.75 246.25   C 161.07 246.26 160.40 246.16 159.75 245.96"/>
<path stroke="#79bbcd" vector-effect="non-scaling-stroke" d="   M 311.75 258.46   L 279.29 258.75"/>
<path stroke="#e7705e" vector-effect="non-scaling-stroke" d="   M 493.04 199.25   C 492.67 200.58 492.58 201.58 492.75 202.25   C 494.65 209.51 496.22 216.84 497.46 224.25"/>
<path stroke="#ebc0b1" vector-effect="non-scaling-stroke" d="   M 497.79 228.25   C 490.78 234.54 483.48 240.48 475.89 246.08"/>
<path stroke="#ebc0b1" vector-effect="non-scaling-stroke" d="   M 463.96 258.50   C 461.23 261.90 458.50 264.49 453.91 265.20   C 446.58 266.34 439.52 267.37 432.24 265.17   C 431.93 265.08 431.69 264.84 431.59 264.54   C 430.80 262.17 436.66 260.79 438.25 258.79"/>
<path stroke="#73999e" vector-effect="non-scaling-stroke" d="   M 438.25 258.79   C 440.94 257.81 443.15 253.50 444.29 251.00"/>
<path stroke="#796a75" vector-effect="non-scaling-stroke" d="   M 444.29 251.00   C 446.31 247.68 449.30 245.75 453.25 245.21"/>
<path stroke="#ebc0b1" vector-effect="non-scaling-stroke" d="   M 453.25 245.21   L 454.05 245.26   C 454.38 245.29 454.71 245.18 454.97 244.97   C 468.49 233.86 479.76 220.79 488.77 205.78   C 488.98 205.44 488.91 205.38 488.57 205.59   C 487.08 206.56 485.81 208.65 484.94 209.51   C 473.57 220.91 461.01 230.82 447.26 239.25   C 446.79 239.54 446.54 240.02 446.50 240.71"/>
<path stroke="#796a75" vector-effect="non-scaling-stroke" d="   M 446.50 240.71   C 445.14 240.48 444.38 241.00 444.21 242.25"/>
<path stroke="#efc9ba" vector-effect="non-scaling-stroke" d="   M 444.21 242.25   L 437.00 246.21"/>
<path stroke="#73999e" vector-effect="non-scaling-stroke" d="   M 437.00 246.21   C 430.56 249.17 424.88 253.18 419.96 258.25"/>
<path stroke="#ebc0b1" vector-effect="non-scaling-stroke" d="   M 419.96 258.25   C 417.83 259.36 416.16 260.95 414.96 263.00"/>
<path stroke="#796a75" vector-effect="non-scaling-stroke" d="   M 414.96 263.00   C 412.38 265.65 409.31 267.49 405.75 268.54"/>
<path stroke="#ebc0b1" vector-effect="non-scaling-stroke" d="   M 405.75 268.54   C 396.87 267.77 390.71 269.40 381.04 265.75"/>
<path stroke="#73999e" vector-effect="non-scaling-stroke" d="   M 381.04 265.75   C 380.45 265.18 380.17 264.51 380.18 263.76   C 380.19 263.46 380.39 263.19 380.68 263.09   C 386.31 261.20 391.19 258.38 395.32 254.62   C 395.90 254.09 395.56 253.13 394.78 253.08   C 391.53 252.87 388.54 253.10 385.79 253.76   C 383.99 254.19 379.51 253.84 380.42 251.00   C 380.51 250.70 380.74 250.45 381.04 250.34   C 384.26 249.07 388.23 247.68 392.94 246.18   C 397.39 244.76 401.64 245.86 405.75 245.71"/>
<path stroke="#796a75" vector-effect="non-scaling-stroke" d="   M 405.75 245.71   L 414.50 240.21"/>
<path stroke="#7f8ca3" vector-effect="non-scaling-stroke" d="   M 321.29 265.25   L 321.15 269.39   C 321.13 269.73 320.86 270.00 320.52 270.00   L 312.54 270.00   C 312.26 270.00 312.02 269.77 312.01 269.49   L 311.75 258.46"/>
<path stroke="#076591" vector-effect="non-scaling-stroke" d="   M 311.75 258.46   C 312.18 254.39 312.17 250.32 311.71 246.25"/>
<path stroke="#f45648" vector-effect="non-scaling-stroke" d="   M 504.29 217.25   C 511.25 214.02 515.41 203.07 516.70 196.59   C 519.60 182.00 518.23 167.87 512.59 154.21   C 512.35 153.64 511.50 153.82 511.52 154.44   C 511.89 167.44 506.40 180.11 499.74 191.18"/>
<path stroke="#f45648" vector-effect="non-scaling-stroke" d="   M 495.71 197.00   C 495.24 198.17 494.35 198.92 493.04 199.25"/>
<path stroke="#f2846c" vector-effect="non-scaling-stroke" d="   M 493.04 199.25   L 492.82 198.94   C 492.67 198.73 492.43 198.60 492.16 198.58   C 481.00 197.83 472.21 192.96 465.78 183.99   C 465.67 183.83 465.41 183.65 465.00 183.46"/>
<path stroke="#86505e" vector-effect="non-scaling-stroke" d="   M 212.50 213.54   L 217.48 216.42"/>
<path stroke="#796a75" vector-effect="non-scaling-stroke" d="   M 217.48 216.42   L 211.14 221.49   C 210.81 221.75 210.33 221.54 210.29 221.13   C 209.83 217.00 204.49 215.05 203.00 220.02   C 202.15 222.90 202.12 225.66 202.91 228.29   C 203.00 228.60 202.99 228.92 202.88 229.23   C 202.43 230.52 201.65 231.52 200.54 232.25"/>
<path stroke="#79bbcd" vector-effect="non-scaling-stroke" d="   M 269.75 258.46   L 228.64 258.48"/>
<path stroke="#756b7a" vector-effect="non-scaling-stroke" d="   M 228.64 258.48   C 225.89 256.47 222.92 254.83 219.75 253.54"/>
<path stroke="#807f88" vector-effect="non-scaling-stroke" d="   M 219.75 253.54   L 218.04 251.75"/>
<path stroke="#f45648" vector-effect="non-scaling-stroke" d="   M 244.21 216.00   C 234.45 210.95 223.80 214.63 213.48 212.80   C 213.20 212.75 212.92 212.88 212.77 213.12   L 212.50 213.54"/>
<path stroke="#7b3b51" vector-effect="non-scaling-stroke" d="   M 212.50 213.54   C 207.87 211.33 203.49 208.70 199.38 205.63"/>
<path stroke="#ebc0b1" vector-effect="non-scaling-stroke" d="   M 517.75 124.29   L 523.75 130.96"/>
<path stroke="#f2846c" vector-effect="non-scaling-stroke" d="   M 523.75 130.96   C 520.99 132.07 514.12 130.86 510.71 131.04   C 510.38 131.06 510.08 131.15 509.80 131.32   L 509.00 131.79"/>
<path stroke="#73999e" vector-effect="non-scaling-stroke" d="   M 509.00 131.79   C 506.90 130.19 505.03 130.34 503.40 132.24"/>
<path stroke="#f2846c" vector-effect="non-scaling-stroke" d="   M 503.40 132.24   C 495.22 131.51 489.17 134.69 485.25 141.79"/>
<path stroke="#076591" vector-effect="non-scaling-stroke" d="   M 405.71 239.25   L 405.75 245.71"/>
<path stroke="#79bbcd" vector-effect="non-scaling-stroke" d="   M 381.04 265.75   C 378.62 269.29 375.47 271.98 371.59 273.82   C 371.17 274.02 370.91 274.43 370.91 274.88   L 370.75 290.46"/>
<path stroke="#076591" vector-effect="non-scaling-stroke" d="   M 370.75 290.46   L 366.04 290.25"/>
<path stroke="#807f88" vector-effect="non-scaling-stroke" d="   M 366.04 290.25   C 365.71 287.72 364.45 285.79 362.25 284.46"/>
<path stroke="#73999e" vector-effect="non-scaling-stroke" d="   M 362.25 284.46   L 363.76 281.13   C 363.88 280.86 363.93 280.55 363.89 280.26   L 363.02 274.35   C 362.97 274.05 362.84 273.77 362.64 273.56   C 360.70 271.54 358.43 270.04 355.82 269.06   C 352.85 267.94 348.80 269.39 345.54 269.50"/>
<path stroke="#79bbcd" vector-effect="non-scaling-stroke" d="   M 345.54 269.50   L 341.88 265.62   C 341.66 265.38 341.35 265.25 341.03 265.25   L 321.29 265.25"/>
<path stroke="#076591" vector-effect="non-scaling-stroke" d="   M 321.29 265.25   L 321.50 239.29"/>
<path stroke="#79bbcd" vector-effect="non-scaling-stroke" d="   M 182.50 258.54   L 159.29 258.50"/>
<path stroke="#7b3b51" vector-effect="non-scaling-stroke" d="   M 509.29 93.21   C 507.79 92.94 506.64 92.22 505.18 92.17   C 490.63 91.74 481.19 101.41 473.46 112.25"/>
<path stroke="#e7705e" vector-effect="non-scaling-stroke" d="   M 473.46 112.25   C 468.16 117.79 473.03 125.11 475.25 130.96"/>
<path stroke="#076591" vector-effect="non-scaling-stroke" d="   M 366.25 229.46   C 363.27 228.95 360.27 228.87 357.25 229.21"/>
<path stroke="#076591" vector-effect="non-scaling-stroke" d="   M 279.29 246.25   L 279.29 258.75"/>
<path stroke="#7f8ca3" vector-effect="non-scaling-stroke" d="   M 279.29 258.75   L 279.21 265.00   C 279.20 265.28 278.98 265.50 278.70 265.50   L 270.62 265.50   C 270.34 265.50 270.12 265.29 270.10 265.01   L 269.75 258.46"/>
<path stroke="#076591" vector-effect="non-scaling-stroke" d="   M 269.75 258.46   C 270.18 254.39 270.17 250.32 269.71 246.25"/>
<path stroke="#f2846c" vector-effect="non-scaling-stroke" d="   M 240.50 228.29   C 232.29 225.41 224.61 221.45 217.48 216.42"/>
<path stroke="#73999e" vector-effect="non-scaling-stroke" d="   M 232.50 246.21   L 230.56 249.31   C 230.40 249.56 230.14 249.71 229.84 249.74   C 226.05 250.07 222.36 249.58 218.75 248.29"/>
<path stroke="#796a75" vector-effect="non-scaling-stroke" d="   M 218.75 248.29   C 212.92 246.66 210.10 243.76 205.81 240.54   C 205.54 240.33 205.42 240.40 205.47 240.73   C 206.53 247.84 210.36 252.77 216.96 255.50"/>
<path stroke="#f2846c" vector-effect="non-scaling-stroke" d="   M 216.96 255.50   C 217.40 258.09 217.56 264.87 213.48 264.57   C 205.38 263.99 197.42 259.79 190.09 256.55   C 189.47 256.27 188.75 256.31 188.15 256.65   L 182.75 259.71"/>
<path stroke="#ebc0b1" vector-effect="non-scaling-stroke" d="   M 182.75 259.71   L 182.50 258.54"/>
<path stroke="#73999e" vector-effect="non-scaling-stroke" d="   M 182.50 258.54   C 187.99 256.07 191.74 251.99 193.75 246.29"/>
<path stroke="#ebc0b1" vector-effect="non-scaling-stroke" d="   M 345.54 269.50   C 341.17 272.41 337.19 275.80 333.61 279.67   C 333.38 279.91 333.09 280.08 332.77 280.15   C 317.24 283.87 300.99 286.33 284.00 287.52   C 278.14 287.93 274.47 287.25 269.24 284.01   C 263.77 280.62 258.28 277.30 252.75 274.04"/>
<path stroke="#c9e1e3" vector-effect="non-scaling-stroke" d="   M 494.46 456.00   C 490.89 455.76 487.32 455.62 483.75 455.59   C 459.76 455.40 435.78 455.23 411.80 455.10"/>
<path stroke="#79bbcd" vector-effect="non-scaling-stroke" d="   M 411.80 455.10   L 411.96 423.50"/>
<path stroke="#7f8ca3" vector-effect="non-scaling-stroke" d="   M 411.96 423.50   C 413.65 409.70 413.72 393.17 398.36 386.93   C 391.22 384.03 379.47 385.16 371.52 385.24   C 371.23 385.24 371.00 385.01 371.00 384.73   L 371.00 369.75   C 371.00 369.43 370.76 369.16 370.44 369.13   L 365.75 368.71"/>
<path stroke="#79bbcd" vector-effect="non-scaling-stroke" d="   M 365.75 368.71   C 366.17 351.80 366.16 334.90 365.71 318.00"/>
<path stroke="#7f8ca3" vector-effect="non-scaling-stroke" d="   M 365.71 318.00   C 366.18 316.83 366.94 315.92 368.01 315.26   C 368.28 315.09 368.59 315.00 368.91 315.00   L 373.63 315.00   C 373.97 315.00 374.25 314.72 374.25 314.38   L 374.25 303.13   C 374.25 302.78 373.97 302.50 373.62 302.50   L 370.31 302.50   C 370.01 302.50 369.72 302.36 369.52 302.13   L 366.17 298.15   C 365.95 297.89 366.14 297.49 366.48 297.49   L 377.74 297.47   C 378.02 297.47 378.25 297.25 378.25 296.97   L 378.25 291.04   C 378.25 290.76 378.03 290.54 377.75 290.53   L 370.75 290.46"/>
<path stroke="#7f8ca3" vector-effect="non-scaling-stroke" d="   M 405.75 268.54   C 405.66 268.96 405.73 269.32 405.96 269.61   C 406.15 269.86 406.44 270.00 406.75 270.00   L 414.40 270.00   C 414.68 270.00 414.90 269.77 414.91 269.49   L 414.96 263.00"/>
<path stroke="#7dc4d6" vector-effect="non-scaling-stroke" d="   M 443.96 246.25   L 437.00 246.21"/>
<path stroke="#807f88" vector-effect="non-scaling-stroke" d="   M 509.00 131.79   C 515.75 139.37 523.97 146.50 529.91 153.99   C 532.84 157.68 534.99 161.94 538.09 165.44   C 540.22 167.83 541.82 172.04 543.66 174.82   C 543.96 175.27 544.66 175.04 544.63 174.50   C 543.88 161.89 543.93 150.81 538.65 139.01   C 538.54 138.76 538.35 138.56 538.11 138.43   C 537.64 138.17 537.25 137.74 537.79 137.25"/>
<path stroke="#807f88" vector-effect="non-scaling-stroke" d="   M 546.29 148.25   C 548.15 160.71 549.48 173.23 550.28 185.81   C 550.42 187.96 550.88 190.02 551.65 192.00   C 559.70 212.56 567.52 233.20 575.11 253.93   C 575.17 254.11 575.29 254.25 575.45 254.35   L 575.71 254.50"/>
<path stroke="#018aa8" vector-effect="non-scaling-stroke" d="   M 572.21 266.41   C 567.12 269.84 558.99 274.84 559.52 278.50   C 562.01 295.78 563.51 310.38 558.64 327.51   C 556.49 335.10 553.10 345.01 548.49 357.24   C 540.06 379.57 533.89 403.32 529.98 428.49   C 529.81 429.60 529.60 431.93 529.37 435.50"/>
<path stroke="#7dc4d6" vector-effect="non-scaling-stroke" d="   M 529.37 435.50   C 528.22 442.03 527.51 448.72 527.22 455.56"/>
<path stroke="#51bad0" vector-effect="non-scaling-stroke" d="   M 527.22 455.56   C 525.76 478.85 526.60 502.11 529.74 525.32   C 529.77 525.60 529.58 525.86 529.30 525.90   C 528.99 525.94 520.70 526.56 520.71 527.50"/>
<path stroke="#076591" vector-effect="non-scaling-stroke" d="   M 520.71 527.50   L 520.46 527.17   C 520.30 526.95 520.04 526.84 519.77 526.86   C 512.19 527.51 503.85 527.64 496.54 529.50"/>
<path stroke="#51bad0" vector-effect="non-scaling-stroke" d="   M 496.54 529.50   L 495.65 528.69   C 495.41 528.47 495.29 528.15 495.32 527.83   C 497.66 504.00 496.18 479.83 494.46 456.00"/>
<path stroke="#79bbcd" vector-effect="non-scaling-stroke" d="   M 494.46 456.00   C 493.68 441.94 492.72 427.48 493.21 413.75   C 493.80 397.08 495.20 380.48 497.41 363.93   C 500.96 337.27 504.66 310.58 508.50 283.85   C 508.59 283.23 508.20 282.64 507.59 282.47   C 505.21 281.80 502.43 282.13 502.30 278.69   C 502.05 272.18 501.62 265.69 500.99 259.23   C 500.96 258.93 500.71 258.70 500.41 258.70   L 464.25 258.64   C 464.13 258.64 464.03 258.64 464.02 258.63   L 463.96 258.50"/>
<path stroke="#73999e" vector-effect="non-scaling-stroke" d="   M 463.96 258.50   C 467.15 253.57 471.12 249.43 475.89 246.08"/>
<path stroke="#79bbcd" vector-effect="non-scaling-stroke" d="   M 475.89 246.08   L 499.51 246.00   C 499.78 246.00 499.99 245.77 499.97 245.50   C 499.64 239.70 498.91 233.95 497.79 228.25"/>
<path stroke="#73999e" vector-effect="non-scaling-stroke" d="   M 497.79 228.25   L 497.46 224.25"/>
<path stroke="#756b7a" vector-effect="non-scaling-stroke" d="   M 497.46 224.25   C 499.07 220.62 499.56 217.71 498.63 213.58   C 497.40 208.10 496.43 202.57 495.71 197.00"/>
<path stroke="#807f88" vector-effect="non-scaling-stroke" d="   M 495.71 197.00   C 496.63 194.96 497.97 193.02 499.74 191.18"/>
<path stroke="#756b7a" vector-effect="non-scaling-stroke" d="   M 499.74 191.18   L 504.29 217.25"/>
<path stroke="#807f88" vector-effect="non-scaling-stroke" d="   M 504.29 217.25   C 507.74 233.95 513.77 255.64 530.75 263.49   C 532.73 264.41 534.58 264.92 536.31 265.01   C 537.26 265.06 538.11 264.42 538.32 263.49   C 543.72 239.34 545.78 215.08 544.50 190.69   C 544.44 189.56 544.25 188.68 543.93 188.06   C 533.38 167.35 519.87 148.74 503.40 132.24"/>
<path stroke="#79bbcd" vector-effect="non-scaling-stroke" d="   M 438.25 258.79   L 419.96 258.25"/>
<path stroke="#076591" vector-effect="non-scaling-stroke" d="   M 444.29 251.00   L 444.05 250.59   C 443.89 250.32 443.86 249.99 443.97 249.69   C 444.42 248.56 444.41 247.42 443.96 246.25"/>
<path stroke="#8395ac" vector-effect="non-scaling-stroke" d="   M 443.96 246.25   L 444.21 242.25"/>
<path stroke="#7f8ca3" vector-effect="non-scaling-stroke" d="   M 453.25 245.21   C 453.75 243.83 453.72 242.52 453.17 241.27   C 453.04 240.99 452.76 240.81 452.45 240.80   L 446.50 240.71"/>
<path stroke="#076591" vector-effect="non-scaling-stroke" d="   M 218.75 248.29   C 217.97 249.30 217.73 250.45 218.04 251.75"/>
<path stroke="#86505e" vector-effect="non-scaling-stroke" d="   M 218.04 251.75   L 216.96 255.50"/>
<path stroke="#f45648" vector-effect="non-scaling-stroke" d="   M 219.75 253.54   C 227.66 265.87 232.40 279.34 233.97 293.97   C 234.02 294.45 234.21 294.61 234.50 294.96"/>
<path stroke="#f8a69a" vector-effect="non-scaling-stroke" d="   M 234.50 294.96   L 234.28 295.14   C 234.14 295.25 234.07 295.42 234.08 295.59   L 234.79 307.00"/>
<path stroke="#807f88" vector-effect="non-scaling-stroke" d="   M 234.79 307.00   L 234.59 308.16   C 234.54 308.47 234.34 308.74 234.05 308.88   C 228.08 311.79 222.41 315.16 217.02 319.01   C 216.47 319.40 215.70 319.03 215.67 318.36   C 214.62 297.33 202.52 265.62 175.75 267.46"/>
<path stroke="#f8a69a" vector-effect="non-scaling-stroke" d="   M 175.75 267.46   L 175.75 267.07   C 175.75 266.84 175.84 266.62 176.00 266.46   L 182.75 259.71"/>
<path stroke="#ec928d" vector-effect="non-scaling-stroke" d="   M 228.64 258.48   L 252.75 274.04"/>
<path stroke="#e7705e" vector-effect="non-scaling-stroke" d="   M 252.75 274.04   C 248.90 281.70 244.64 289.12 239.98 296.31   C 239.69 296.75 239.76 297.01 239.71 297.50"/>
<path stroke="#ec928d" vector-effect="non-scaling-stroke" d="   M 239.71 297.50   L 234.50 294.96"/>
<path stroke="#796a75" vector-effect="non-scaling-stroke" d="   M 513.21 120.50   L 512.93 120.72   C 512.73 120.88 512.45 120.91 512.22 120.79   C 503.86 116.53 494.52 120.35 485.69 118.61   C 485.40 118.55 485.20 118.29 485.23 117.99   C 485.60 113.93 483.99 111.08 480.40 109.43   C 480.07 109.28 479.69 109.31 479.38 109.51   C 477.45 110.74 476.82 112.47 477.49 114.71   C 477.60 115.07 477.47 115.20 477.11 115.11   C 475.40 114.67 474.19 113.72 473.46 112.25"/>
<path stroke="#c9e1e3" vector-effect="non-scaling-stroke" d="   M 635.44 457.76   C 632.51 456.92 629.38 456.52 626.06 456.56   C 614.62 456.67 598.25 456.54 576.94 456.15   C 576.24 456.14 575.36 456.34 574.29 456.75"/>
<path stroke="#78b1ba" vector-effect="non-scaling-stroke" d="   M 574.29 456.75   C 566.17 428.80 560.20 401.67 564.73 372.26   C 569.97 338.27 582.70 301.78 572.21 266.41"/>
<path stroke="#79bbcd" vector-effect="non-scaling-stroke" d="   M 572.21 266.41   C 572.15 266.35 572.10 266.26 572.07 266.14   C 572.01 265.94 572.04 265.72 572.17 265.55   C 574.39 262.46 576.80 258.32 575.71 254.50"/>
<path stroke="#f8a69a" vector-effect="non-scaling-stroke" d="   M 575.71 254.50   C 576.06 253.62 576.17 252.95 576.05 252.49   C 571.60 235.42 567.66 218.25 564.22 200.96   C 561.09 185.28 557.11 171.14 552.27 158.54   C 551.09 155.48 549.10 152.05 546.29 148.25"/>
<path stroke="#79bbcd" vector-effect="non-scaling-stroke" d="   M 546.29 148.25   C 544.35 142.84 543.09 138.45 537.79 137.25"/>
<path stroke="#f8a69a" vector-effect="non-scaling-stroke" d="   M 537.79 137.25   C 533.36 134.62 528.68 132.53 523.75 130.96"/>
<path stroke="#86505e" vector-effect="non-scaling-stroke" d="   M 366.04 290.25   L 362.68 293.94   C 362.46 294.18 362.09 294.22 361.83 294.03   L 359.13 292.12"/>
<path stroke="#f2846c" vector-effect="non-scaling-stroke" d="   M 359.13 292.12   C 359.86 290.02 359.20 288.43 357.15 287.34   C 356.88 287.20 356.54 287.25 356.32 287.47   L 350.96 293.00"/>
<path stroke="#86505e" vector-effect="non-scaling-stroke" d="   M 350.96 293.00   C 349.60 292.19 348.52 291.11 347.71 289.75"/>
<path stroke="#076591" vector-effect="non-scaling-stroke" d="   M 365.71 318.00   C 361.37 319.08 359.19 320.07 354.74 318.50   C 354.23 318.32 353.75 318.49 353.29 319.00"/>
<path stroke="#7f8ca3" vector-effect="non-scaling-stroke" d="   M 353.29 319.00   L 353.27 318.70   C 353.24 318.39 353.09 318.10 352.84 317.90   L 349.57 315.32   C 349.32 315.11 349.00 315.00 348.67 315.00   L 345.37 315.00   C 345.03 315.00 344.75 314.72 344.75 314.37   L 344.75 313.28   C 344.76 312.96 344.61 312.66 344.35 312.47   C 340.83 309.82 337.93 311.11 335.04 314.09   C 329.49 319.80 323.97 325.52 318.46 331.25"/>
<path stroke="#796a75" vector-effect="non-scaling-stroke" d="   M 318.46 331.25   L 310.71 326.00"/>
<path stroke="#7f8ca3" vector-effect="non-scaling-stroke" d="   M 310.71 326.00   C 320.63 317.65 327.24 312.17 330.55 309.56   C 333.72 307.05 334.13 304.24 331.77 301.11   C 331.61 300.89 331.64 300.59 331.83 300.40   L 338.42 294.05"/>
<path stroke="#f2846c" vector-effect="non-scaling-stroke" d="   M 362.25 284.46   L 357.62 281.64   C 357.34 281.47 357.02 281.41 356.71 281.47   C 353.32 282.06 349.13 287.44 347.71 289.75"/>
<path stroke="#796a75" vector-effect="non-scaling-stroke" d="   M 347.71 289.75   C 344.17 287.72 340.63 292.73 338.42 294.05"/>
<path stroke="#ebc0b1" vector-effect="non-scaling-stroke" d="   M 338.42 294.05   C 321.75 300.76 277.80 317.35 261.42 308.60   C 254.25 304.77 247.01 301.07 239.71 297.50"/>
<path stroke="#79bbcd" vector-effect="non-scaling-stroke" d="   M 175.75 267.46   C 173.40 268.59 171.99 270.44 171.54 273.00"/>
<path stroke="#f8a69a" vector-effect="non-scaling-stroke" d="   M 171.54 273.00   C 153.40 305.39 171.02 344.16 170.52 378.59   C 170.46 382.81 171.24 385.33 175.54 386.25"/>
<path stroke="#79bbcd" vector-effect="non-scaling-stroke" d="   M 175.54 386.25   C 179.32 406.05 188.96 421.35 204.24 434.06   C 207.27 436.58 210.27 439.13 213.25 441.71"/>
<path stroke="#78b1ba" vector-effect="non-scaling-stroke" d="   M 213.25 441.71   C 203.48 441.40 194.90 440.92 187.50 440.25   C 185.97 440.11 184.63 440.26 183.50 440.71"/>
<path stroke="#7f8ca3" vector-effect="non-scaling-stroke" d="   M 183.50 440.71   L 182.85 440.75   C 182.53 440.78 182.21 440.67 181.95 440.46   C 178.32 437.46 175.55 433.96 170.99 432.19   C 170.71 432.08 170.40 432.19 170.24 432.44   L 159.69 449.63   C 159.51 449.93 159.10 449.97 158.86 449.72   C 157.31 448.08 155.50 446.87 153.43 446.10   C 152.89 445.90 152.28 446.11 151.97 446.60   L 147.75 453.29"/>
<path stroke="#c9e1e3" vector-effect="non-scaling-stroke" d="   M 147.75 453.29   C 146.92 453.10 145.83 453.01 144.50 453.00   C 128.04 452.95 97.41 452.76 52.61 452.43"/>
<path stroke="#076591" vector-effect="non-scaling-stroke" d="   M 365.75 368.71   C 361.58 369.19 357.42 369.19 353.25 368.71"/>
<path stroke="#578aa7" vector-effect="non-scaling-stroke" d="   M 397.96 471.00   C 395.05 471.36 387.90 473.36 389.47 477.55   C 389.88 478.65 390.85 479.52 392.38 480.17   C 400.97 483.77 409.56 483.66 418.16 479.83   C 419.82 479.09 420.57 477.69 420.57 475.98   C 420.57 475.65 420.45 475.34 420.24 475.09   C 418.02 472.59 415.20 471.23 411.79 471.00"/>
<path stroke="#578aa7" vector-effect="non-scaling-stroke" d="   M 496.54 529.50   C 491.98 534.53 484.85 534.83 477.75 536.70   C 472.69 538.04 467.53 540.77 469.18 546.79   C 469.26 547.06 469.50 547.25 469.78 547.25   L 522.03 547.25   C 522.36 547.25 522.64 547.02 522.71 546.70   C 523.92 541.32 521.42 533.12 520.71 527.50"/>
<path stroke="#578aa7" vector-effect="non-scaling-stroke" d="   M 560.04 516.00   C 554.48 518.10 535.30 520.29 538.86 530.04   C 538.96 530.32 539.23 530.50 539.52 530.50   L 586.05 530.50   C 586.83 530.50 587.45 529.83 587.40 529.05   C 586.98 522.90 585.58 517.14 583.21 511.75"/>
<path stroke="#51bad0" vector-effect="non-scaling-stroke" d="   M 411.80 455.10   L 411.79 471.00"/>
<path stroke="#076591" vector-effect="non-scaling-stroke" d="   M 411.79 471.00   C 411.46 471.88 411.38 472.96 411.56 474.24   C 411.65 474.87 411.29 475.47 410.69 475.69   C 406.66 477.10 402.85 477.11 399.26 475.72   C 398.51 475.43 398.08 474.66 398.21 473.87   C 398.38 472.83 398.30 471.87 397.96 471.00"/>
<path stroke="#51bad0" vector-effect="non-scaling-stroke" d="   M 397.96 471.00   C 398.42 465.43 398.43 459.98 397.98 454.64"/>
<path stroke="#076591" vector-effect="non-scaling-stroke" d="   M 411.96 423.50   L 398.00 423.29"/>
<path stroke="#51b0be" vector-effect="non-scaling-stroke" d="   M 574.29 456.75   C 579.01 474.82 583.30 492.94 583.21 511.75"/>
<path stroke="#075b7e" vector-effect="non-scaling-stroke" d="   M 583.21 511.75   C 582.30 511.78 581.42 511.99 580.59 512.37   C 574.07 515.33 567.22 516.54 560.04 516.00"/>
<path stroke="#51b0be" vector-effect="non-scaling-stroke" d="   M 560.04 516.00   L 537.21 456.50"/>
<path stroke="#7cbac3" vector-effect="non-scaling-stroke" d="   M 537.21 456.50   L 529.37 435.50"/>
<path stroke="#cdeaec" vector-effect="non-scaling-stroke" d="   M 537.21 456.50   L 527.22 455.56"/>
<path stroke="#79bbcd" vector-effect="non-scaling-stroke" d="   M 234.79 307.00   C 235.03 308.18 235.18 309.37 235.25 310.57   C 235.76 319.53 236.09 328.49 236.25 337.46"/>
<path stroke="#73999e" vector-effect="non-scaling-stroke" d="   M 236.25 337.46   L 219.08 338.91   C 218.77 338.93 218.47 338.78 218.31 338.51   C 214.90 332.68 212.28 326.51 210.46 320.00"/>
<path stroke="#807f88" vector-effect="non-scaling-stroke" d="   M 210.46 320.00   C 209.56 304.26 204.32 290.70 194.73 279.31   C 190.35 274.11 178.16 267.62 171.54 273.00"/>
<path stroke="#ebc0b1" vector-effect="non-scaling-stroke" d="   M 310.71 326.00   C 308.16 324.80 305.60 324.70 303.01 325.71   C 302.69 325.83 302.33 325.85 302.00 325.75   L 298.39 324.63   C 298.06 324.53 297.72 324.52 297.39 324.60   C 296.16 324.91 294.86 325.63 293.48 326.75   C 290.79 328.94 286.66 329.35 283.07 330.00   C 267.52 332.83 251.91 335.31 236.25 337.46"/>
<path stroke="#796a75" vector-effect="non-scaling-stroke" d="   M 359.13 292.12   C 356.32 293.01 353.59 293.31 350.96 293.00"/>
<path stroke="#796a75" vector-effect="non-scaling-stroke" d="   M 300.50 349.71   C 295.03 349.93 291.99 349.45 287.64 346.09"/>
<path stroke="#73999e" vector-effect="non-scaling-stroke" d="   M 238.94 362.11   C 233.01 364.00 227.05 365.83 221.08 367.58   C 214.00 369.66 208.66 369.46 204.36 363.38   C 202.99 361.44 199.27 355.14 197.29 354.50"/>
<path stroke="#79bbcd" vector-effect="non-scaling-stroke" d="   M 353.29 319.00   C 352.82 335.57 352.81 352.14 353.25 368.71"/>
<path stroke="#7f8ca3" vector-effect="non-scaling-stroke" d="   M 353.25 368.71   L 349.52 369.13   C 349.25 369.16 349.05 369.39 349.05 369.66   C 349.02 376.43 348.28 384.75 350.01 390.69   C 355.66 410.09 373.39 406.93 390.00 407.35   C 390.28 407.36 390.50 407.59 390.50 407.86   L 390.50 422.53   C 390.50 422.86 390.76 423.12 391.09 423.13   L 398.00 423.29"/>
<path stroke="#79bbcd" vector-effect="non-scaling-stroke" d="   M 398.00 423.29   L 397.98 454.64"/>
<path stroke="#c9e1e3" vector-effect="non-scaling-stroke" d="   M 397.98 454.64   L 377.53 455.03"/>
<path stroke="#f8a69a" vector-effect="non-scaling-stroke" d="   M 377.53 455.03   L 376.21 452.00"/>
<path stroke="#7f8ca3" vector-effect="non-scaling-stroke" d="   M 376.21 452.00   L 376.08 424.19   C 376.07 423.91 375.85 423.67 375.57 423.65   C 370.98 423.34 366.38 423.38 361.79 423.75"/>
<path stroke="#f8a69a" vector-effect="non-scaling-stroke" d="   M 361.79 423.75   L 361.18 421.32   C 361.10 421.01 360.82 420.79 360.50 420.79   L 310.93 420.73   C 310.58 420.73 310.27 420.96 310.17 421.30   L 309.46 423.75"/>
<path stroke="#7f8ca3" vector-effect="non-scaling-stroke" d="   M 309.46 423.75   C 304.12 423.38 298.78 423.35 293.44 423.66   C 293.16 423.68 292.93 423.91 292.92 424.19   C 292.57 434.04 292.61 443.90 293.04 453.75"/>
<path stroke="#f8a69a" vector-effect="non-scaling-stroke" d="   M 293.04 453.75   L 292.96 454.00"/>
<path stroke="#c9e1e3" vector-effect="non-scaling-stroke" d="   M 292.96 454.00   L 284.93 454.42   C 284.71 454.43 284.51 454.30 284.43 454.10   L 284.29 453.75"/>
<path stroke="#78b1ba" vector-effect="non-scaling-stroke" d="   M 284.29 453.75   C 283.73 441.19 275.47 428.75 267.29 417.97   C 259.15 407.25 249.89 396.52 243.79 384.50"/>
<path stroke="#79bbcd" vector-effect="non-scaling-stroke" d="   M 243.79 384.50   C 244.43 384.04 245.00 383.79 245.51 383.75   C 245.91 383.72 246.16 383.30 245.99 382.94   C 242.89 376.19 240.54 369.25 238.94 362.11"/>
<path stroke="#ebc0b1" vector-effect="non-scaling-stroke" d="   M 238.94 362.11   C 255.02 356.94 269.87 351.65 283.50 346.24   C 284.99 345.65 286.37 345.60 287.64 346.09"/>
<path stroke="#7f8ca3" vector-effect="non-scaling-stroke" d="   M 287.64 346.09   C 285.65 349.67 284.26 359.28 291.46 357.47   C 294.42 356.73 297.55 352.98 300.50 349.71"/>
<path stroke="#ebc0b1" vector-effect="non-scaling-stroke" d="   M 300.50 349.71   L 306.42 349.55   C 307.08 349.53 307.62 349.03 307.68 348.37   C 307.73 347.72 308.17 346.89 308.98 345.90   C 309.19 345.65 309.50 345.52 309.82 345.55   C 312.44 345.80 313.56 344.59 313.17 341.90   C 313.12 341.52 313.29 341.14 313.62 340.93   L 315.80 339.55   C 316.09 339.37 316.27 339.05 316.28 338.71   C 316.42 336.07 317.15 333.58 318.46 331.25"/>
<path stroke="#018aa8" vector-effect="non-scaling-stroke" d="   M 243.79 384.50   C 241.40 384.01 239.15 384.52 237.05 386.03   C 236.81 386.20 236.72 386.51 236.83 386.79   C 242.97 401.93 250.58 412.69 261.05 428.70   C 269.21 441.18 275.79 453.44 280.79 465.48   C 280.90 465.77 281.13 465.86 281.46 465.75"/>
<path stroke="#51bad0" vector-effect="non-scaling-stroke" d="   M 281.46 465.75   L 281.06 466.88   C 280.96 467.18 280.99 467.50 281.14 467.77   C 283.63 472.10 283.55 476.14 280.92 479.88   C 278.60 483.18 271.58 492.75 267.76 493.51   C 250.73 496.90 234.17 497.29 218.07 494.68   C 203.69 492.34 185.04 488.24 166.44 487.87   C 166.15 487.86 165.91 487.65 165.88 487.36   L 164.72 476.41"/>
<path stroke="#076591" vector-effect="non-scaling-stroke" d="   M 164.72 476.41   C 164.55 469.04 164.88 461.64 165.70 454.22   C 165.74 453.87 166.08 453.65 166.42 453.74   L 182.46 458.25"/>
<path stroke="#018aa8" vector-effect="non-scaling-stroke" d="   M 182.46 458.25   C 200.95 462.74 220.23 464.61 240.28 463.87   C 240.76 463.85 241.05 463.34 240.83 462.92   C 240.54 462.36 240.09 461.81 239.48 461.27   C 231.27 454.03 222.52 447.51 213.25 441.71"/>
<path stroke="#f2846c" vector-effect="non-scaling-stroke" d="   M 210.46 320.00   C 209.85 319.95 209.47 319.97 209.31 320.06   C 201.22 324.66 193.12 329.24 185.00 333.79"/>
<path stroke="#f45648" vector-effect="non-scaling-stroke" d="   M 185.00 333.79   C 180.41 326.28 176.61 318.33 173.62 309.96   C 173.56 309.80 173.40 309.71 173.24 309.74   C 173.08 309.77 172.96 309.91 172.96 310.08   C 173.02 327.11 175.38 343.90 180.05 360.44   C 181.10 364.18 184.72 365.43 187.98 363.57   C 191.03 361.83 193.65 354.91 195.71 351.75"/>
<path stroke="#f2846c" vector-effect="non-scaling-stroke" d="   M 195.71 351.75   L 197.29 354.50"/>
<path stroke="#807f88" vector-effect="non-scaling-stroke" d="   M 197.29 354.50   C 196.19 366.71 187.05 375.93 179.62 385.40   C 179.42 385.65 179.13 385.81 178.82 385.85   L 175.54 386.25"/>
<path stroke="#075b7e" vector-effect="non-scaling-stroke" d="   M 183.50 440.71   L 182.46 458.25"/>
<path stroke="#578aa7" vector-effect="non-scaling-stroke" d="   M 164.72 476.41   C 155.42 475.91 148.35 481.20 141.77 487.04   C 137.98 490.40 129.89 496.28 125.28 490.88   C 125.09 490.65 125.07 490.33 125.22 490.08   L 147.75 453.29"/>
<path stroke="#51b0be" vector-effect="non-scaling-stroke" d="   M 284.29 453.75   C 284.28 457.98 283.33 461.98 281.46 465.75"/>
<path stroke="#d0a59e" vector-effect="non-scaling-stroke" d="   M 377.53 455.03   C 378.98 458.34 380.61 461.03 380.52 464.77   C 380.35 472.33 380.32 479.61 380.43 486.60   C 380.44 487.50 379.72 488.23 378.83 488.23   C 352.56 488.26 326.48 488.26 300.61 488.23   C 298.24 488.23 293.86 487.70 290.40 488.23   C 289.87 488.31 289.40 487.89 289.42 487.35   C 289.69 478.98 289.81 470.84 289.76 462.93   C 289.74 459.63 291.72 456.96 292.96 454.00"/>
<path stroke="#e7705e" vector-effect="non-scaling-stroke" d="   M 185.00 333.79   L 195.71 351.75"/>
<path stroke="#7f8ca3" vector-effect="non-scaling-stroke" d="   M 309.50 427.71   L 297.56 427.81   C 297.28 427.81 297.06 428.03 297.05 428.31   L 296.79 445.75"/>
<path stroke="#86505e" vector-effect="non-scaling-stroke" d="   M 296.79 445.75   L 293.04 453.75"/>
<path stroke="#86505e" vector-effect="non-scaling-stroke" d="   M 361.79 423.75   C 361.42 424.98 361.42 426.23 361.79 427.50"/>
<path stroke="#f8a69a" vector-effect="non-scaling-stroke" d="   M 361.79 427.50   L 361.17 430.04   C 361.10 430.33 360.84 430.53 360.54 430.53   L 310.72 430.37   C 310.43 430.37 310.18 430.14 310.15 429.85   C 310.09 429.04 309.87 428.33 309.50 427.71"/>
<path stroke="#86505e" vector-effect="non-scaling-stroke" d="   M 309.50 427.71   C 309.93 426.38 309.92 425.06 309.46 423.75"/>
<path stroke="#86505e" vector-effect="non-scaling-stroke" d="   M 376.21 452.00   L 372.00 442.96"/>
<path stroke="#7f8ca3" vector-effect="non-scaling-stroke" d="   M 372.00 442.96   L 371.82 428.21   C 371.81 427.94 371.60 427.73 371.33 427.72   L 361.79 427.50"/>
<path stroke="#f8a69a" vector-effect="non-scaling-stroke" d="   M 372.00 442.96   C 371.40 442.68 370.99 442.21 370.76 441.54   C 370.66 441.26 370.41 441.07 370.12 441.06   C 347.52 440.01 324.47 440.73 301.80 440.72   C 299.34 440.72 298.05 441.88 297.93 444.21   C 297.92 444.51 297.79 444.79 297.57 445.00   L 296.79 445.75"/>
<path stroke="#807f88" vector-effect="non-scaling-stroke" d="   M 551.18 205.93   C 551.01 216.96 550.93 227.98 550.96 239.01   C 550.99 247.25 550.10 256.77 550.16 265.71   C 550.17 265.93 550.35 266.11 550.57 266.09   C 557.82 265.56 564.70 263.87 571.19 261.02   C 571.54 260.87 571.71 260.48 571.59 260.12   C 566.57 245.17 561.49 230.46 556.36 215.97   C 555.09 212.40 553.46 209.03 551.46 205.86   C 551.28 205.57 551.19 205.60 551.18 205.93"/>
<path stroke="#076591" vector-effect="non-scaling-stroke" d="   M 373.52 252.37   C 373.52 245.84 368.23 240.55 361.70 240.55   C 355.17 240.55 349.88 245.84 349.88 252.37   C 349.88 258.90 355.17 264.19 361.70 264.19   C 368.23 264.19 373.52 258.90 373.52 252.37"/>
<path stroke="#86505e" vector-effect="non-scaling-stroke" d="   M 339.12 302.12   C 339.29 302.31 339.59 302.33 339.78 302.16   L 343.44 298.98   C 343.60 298.83 343.85 298.82 344.02 298.95   L 346.82 301.02   C 346.99 301.14 347.22 301.14 347.39 301.01   L 348.46 300.19   C 348.70 300.00 348.70 299.64 348.46 299.45   L 346.27 297.75   C 346.09 297.61 346.04 297.35 346.16 297.14   L 347.28 295.20   C 347.39 295.02 347.36 294.79 347.21 294.63   L 344.81 292.17   C 344.64 291.99 344.35 291.98 344.16 292.15   L 336.77 298.73   C 336.58 298.90 336.56 299.20 336.73 299.39   L 339.12 302.12"/>
<path stroke="#86505e" vector-effect="non-scaling-stroke" d="   M 354.83 312.20   C 355.09 312.69 355.60 313.00 356.15 313.00   L 361.63 313.00   C 362.18 313.00 362.68 312.70 362.95 312.22   L 365.29 307.93   C 365.54 307.46 365.53 306.90 365.26 306.45   L 362.77 302.23   C 362.50 301.78 362.01 301.50 361.48 301.50   L 356.20 301.50   C 355.66 301.50 355.17 301.79 354.90 302.25   L 352.53 306.38   C 352.28 306.83 352.27 307.38 352.51 307.83   L 354.83 312.20"/>
<path stroke="#86505e" vector-effect="non-scaling-stroke" d="   M 327.95 463.90   C 328.01 467.35 328.02 470.97 327.99 474.75   C 327.92 482.44 342.85 480.46 343.29 476.76   C 343.82 472.44 343.95 468.19 343.68 464.01   C 343.65 463.46 344.08 463.00 344.63 463.00   L 377.23 462.99   C 377.54 462.99 377.81 462.80 377.92 462.51   C 378.45 461.07 377.48 460.50 376.14 460.50   C 365.93 460.49 355.43 460.50 344.62 460.52   C 344.15 460.52 343.77 460.14 343.75 459.67   C 343.61 455.88 343.79 452.84 339.26 451.98   C 336.01 451.37 332.83 451.63 329.72 452.77   C 328.82 453.10 328.20 453.93 328.15 454.88   L 327.86 459.82   C 327.85 460.11 327.63 460.35 327.34 460.39   C 325.50 460.67 323.22 460.72 320.50 460.53   C 315.79 460.20 306.95 460.32 294.00 460.88   C 293.69 460.89 293.45 461.16 293.49 461.47   L 293.59 462.33   C 293.63 462.67 293.91 462.92 294.25 462.92   L 327.08 463.04   C 327.55 463.04 327.94 463.42 327.95 463.90"/>
<path stroke="#86505e" vector-effect="non-scaling-stroke" d="   M 339.6215 457.0630   C 339.63 456.50 339.17 456.04 338.6104 456.0342   L 333.0906 455.9860   C 332.53 455.98 332.07 456.43 332.0618 456.9971   L 332.0385 459.6570   C 332.03 460.22 332.49 460.68 333.0496 460.6858   L 338.5694 460.7340   C 339.13 460.74 339.59 460.29 339.5982 459.7229   L 339.6215 457.0630"/>
<path stroke="#86505e" vector-effect="non-scaling-stroke" d="   M 339.5493 463.6255   C 339.55 463.30 339.29 463.03 338.9634 463.0314   L 332.8636 462.9889   C 332.54 462.99 332.27 463.25 332.2695 463.5747   L 332.1907 474.8545   C 332.19 475.18 332.45 475.45 332.7766 475.4486   L 338.8764 475.4911   C 339.20 475.49 339.47 475.23 339.4705 474.9053   L 339.5493 463.6255"/>
</g>

<path fill="#f0e2df" d="   M 468.44 113.34   C 467.97 116.27 467.20 119.15 466.14 121.98   C 465.21 124.49 461.89 136.41 469.17 133.27   C 471.14 132.42 473.17 131.65 475.25 130.96   C 477.87 134.45 482.16 140.74 485.25 141.79   C 478.93 154.31 472.61 166.83 466.30 179.35   C 465.51 180.90 465.41 181.85 465.00 183.46   C 452.18 205.94 435.35 224.86 414.50 240.21   C 415.09 238.84 415.23 237.38 414.92 235.82   C 414.86 235.49 414.57 235.25 414.23 235.25   L 406.49 235.25   C 406.14 235.25 405.86 235.52 405.84 235.87   L 405.71 239.25   L 381.82 239.19   C 381.51 239.19 381.21 239.04 381.02 238.79   C 377.31 233.81 372.39 230.70 366.25 229.46   C 365.60 226.87 365.47 224.22 365.88 221.52   C 365.92 221.25 366.15 221.05 366.43 221.04   L 381.05 220.91   C 381.37 220.90 381.68 220.80 381.94 220.60   C 384.21 218.84 384.57 216.65 383.00 214.02   C 382.56 213.29 381.78 212.83 380.92 212.81   L 366.38 212.52   C 366.13 212.51 365.91 212.32 365.87 212.07   L 365.32 208.79   C 365.26 208.42 364.98 208.13 364.61 208.06   C 361.47 207.44 356.36 206.75 357.17 212.04   C 357.21 212.30 357.01 212.53 356.75 212.52   C 353.61 212.45 342.97 211.76 340.68 213.35   C 338.44 214.90 338.40 218.97 340.66 220.30   C 343.23 221.82 353.32 221.01 356.71 221.02   C 356.99 221.02 357.21 221.24 357.21 221.52   L 357.25 229.21   C 351.12 230.62 346.19 233.81 342.48 238.78   C 342.29 239.04 341.99 239.19 341.68 239.19   L 321.50 239.29   L 321.18 235.71   C 321.16 235.45 320.94 235.25 320.68 235.25   L 312.53 235.25   C 312.25 235.25 312.02 235.48 312.01 235.76   L 311.71 246.25   C 300.90 245.86 290.10 245.86 279.29 246.25   L 279.08 241.29   C 279.07 240.99 278.82 240.75 278.52 240.75   L 270.56 240.75   C 270.30 240.75 270.08 240.96 270.06 241.22   L 269.71 246.25   C 257.31 245.88 244.91 245.87 232.50 246.21   C 235.98 240.60 238.65 234.62 240.50 228.29   C 244.15 228.43 247.52 227.55 250.63 225.66   C 250.90 225.49 251.23 225.42 251.55 225.46   L 255.34 225.98   C 255.70 226.03 256.06 225.85 256.24 225.54   C 257.49 223.36 245.98 217.00 244.21 216.00   C 244.26 213.63 244.51 210.70 244.96 207.22   C 246.93 191.76 224.94 189.02 214.27 188.05   C 213.94 188.02 213.61 188.09 213.32 188.23   C 208.66 190.50 197.93 199.60 199.38 205.63   C 196.17 214.79 196.56 223.66 200.54 232.25   C 198.89 237.06 196.79 241.68 194.24 246.10   C 194.20 246.18 194.11 246.24 194.02 246.25   L 193.75 246.29   C 183.08 246.14 172.42 246.12 161.75 246.25   C 161.07 246.26 160.40 246.16 159.75 245.96   C 159.32 244.36 159.15 243.04 159.23 242.00   C 161.80 210.15 164.04 178.29 167.11 146.49   C 170.83 108.07 183.27 67.71 215.50 43.42   C 254.27 14.20 307.54 14.97 348.80 38.00   C 388.88 60.36 411.06 102.58 459.15 111.59   C 462.19 112.16 465.29 112.74 468.44 113.34   Z"/>
<path fill="#e8413a" d="   M 509.29 93.21   C 507.79 92.94 506.64 92.22 505.18 92.17   C 490.63 91.74 481.19 101.41 473.46 112.25   C 468.16 117.79 473.03 125.11 475.25 130.96   C 473.17 131.65 471.14 132.42 469.17 133.27   C 461.89 136.41 465.21 124.49 466.14 121.98   C 467.20 119.15 467.97 116.27 468.44 113.34   C 464.19 100.03 466.47 88.55 479.75 82.49   C 484.26 80.44 493.84 77.35 498.45 80.50   C 503.20 83.75 506.81 87.98 509.29 93.21   Z"/>
<path fill="#0d3567" d="   M 509.29 93.21   C 514.10 101.36 515.39 110.05 513.14 119.26   C 513.01 119.79 513.12 119.99 513.21 120.50   L 512.93 120.72   C 512.73 120.88 512.45 120.91 512.22 120.79   C 503.86 116.53 494.52 120.35 485.69 118.61   C 485.40 118.55 485.20 118.29 485.23 117.99   C 485.60 113.93 483.99 111.08 480.40 109.43   C 480.07 109.28 479.69 109.31 479.38 109.51   C 477.45 110.74 476.82 112.47 477.49 114.71   C 477.60 115.07 477.47 115.20 477.11 115.11   C 475.40 114.67 474.19 113.72 473.46 112.25   C 481.19 101.41 490.63 91.74 505.18 92.17   C 506.64 92.22 507.79 92.94 509.29 93.21   Z"/>
<path fill="#e59e82" d="   M 513.21 120.50   L 517.75 124.29   L 523.75 130.96   C 520.99 132.07 514.12 130.86 510.71 131.04   C 510.38 131.06 510.08 131.15 509.80 131.32   L 509.00 131.79   C 506.90 130.19 505.03 130.34 503.40 132.24   C 495.22 131.51 489.17 134.69 485.25 141.79   C 482.16 140.74 477.87 134.45 475.25 130.96   C 473.03 125.11 468.16 117.79 473.46 112.25   C 474.19 113.72 475.40 114.67 477.11 115.11   C 477.47 115.20 477.60 115.07 477.49 114.71   C 476.82 112.47 477.45 110.74 479.38 109.51   C 479.69 109.31 480.07 109.28 480.40 109.43   C 483.99 111.08 485.60 113.93 485.23 117.99   C 485.20 118.29 485.40 118.55 485.69 118.61   C 494.52 120.35 503.86 116.53 512.22 120.79   C 512.45 120.91 512.73 120.88 512.93 120.72   L 513.21 120.50   Z"/>
<path fill="#f0e2df" d="   M 517.75 124.29   C 518.12 124.22 518.38 124.21 518.51 124.25   C 554.00 133.63 582.44 163.46 590.32 199.44   C 594.48 218.41 594.50 234.82 595.88 259.78   C 598.73 311.04 621.81 352.50 633.26 407.75   C 636.59 423.80 637.31 440.47 635.44 457.76   C 632.51 456.92 629.38 456.52 626.06 456.56   C 614.62 456.67 598.25 456.54 576.94 456.15   C 576.24 456.14 575.36 456.34 574.29 456.75   C 566.17 428.80 560.20 401.67 564.73 372.26   C 569.97 338.27 582.70 301.78 572.21 266.41   C 572.15 266.35 572.10 266.26 572.07 266.14   C 572.01 265.94 572.04 265.72 572.17 265.55   C 574.39 262.46 576.80 258.32 575.71 254.50   C 576.06 253.62 576.17 252.95 576.05 252.49   C 571.60 235.42 567.66 218.25 564.22 200.96   C 561.09 185.28 557.11 171.14 552.27 158.54   C 551.09 155.48 549.10 152.05 546.29 148.25   C 544.35 142.84 543.09 138.45 537.79 137.25   C 533.36 134.62 528.68 132.53 523.75 130.96   L 517.75 124.29   Z"/>
<path fill="#0194ba" d="   M 509.00 131.79   C 515.75 139.37 523.97 146.50 529.91 153.99   C 532.84 157.68 534.99 161.94 538.09 165.44   C 540.22 167.83 541.82 172.04 543.66 174.82   C 543.96 175.27 544.66 175.04 544.63 174.50   C 543.88 161.89 543.93 150.81 538.65 139.01   C 538.54 138.76 538.35 138.56 538.11 138.43   C 537.64 138.17 537.25 137.74 537.79 137.25   C 543.09 138.45 544.35 142.84 546.29 148.25   C 548.15 160.71 549.48 173.23 550.28 185.81   C 550.42 187.96 550.88 190.02 551.65 192.00   C 559.70 212.56 567.52 233.20 575.11 253.93   C 575.17 254.11 575.29 254.25 575.45 254.35   L 575.71 254.50   C 576.80 258.32 574.39 262.46 572.17 265.55   C 572.04 265.72 572.01 265.94 572.07 266.14   C 572.10 266.26 572.15 266.35 572.21 266.41   C 567.12 269.84 558.99 274.84 559.52 278.50   C 562.01 295.78 563.51 310.38 558.64 327.51   C 556.49 335.10 553.10 345.01 548.49 357.24   C 540.06 379.57 533.89 403.32 529.98 428.49   C 529.81 429.60 529.60 431.93 529.37 435.50   C 528.22 442.03 527.51 448.72 527.22 455.56   C 525.76 478.85 526.60 502.11 529.74 525.32   C 529.77 525.60 529.58 525.86 529.30 525.90   C 528.99 525.94 520.70 526.56 520.71 527.50   L 520.46 527.17   C 520.30 526.95 520.04 526.84 519.77 526.86   C 512.19 527.51 503.85 527.64 496.54 529.50   L 495.65 528.69   C 495.41 528.47 495.29 528.15 495.32 527.83   C 497.66 504.00 496.18 479.83 494.46 456.00   C 493.68 441.94 492.72 427.48 493.21 413.75   C 493.80 397.08 495.20 380.48 497.41 363.93   C 500.96 337.27 504.66 310.58 508.50 283.85   C 508.59 283.23 508.20 282.64 507.59 282.47   C 505.21 281.80 502.43 282.13 502.30 278.69   C 502.05 272.18 501.62 265.69 500.99 259.23   C 500.96 258.93 500.71 258.70 500.41 258.70   L 464.25 258.64   C 464.13 258.64 464.03 258.64 464.02 258.63   L 463.96 258.50   C 467.15 253.57 471.12 249.43 475.89 246.08   L 499.51 246.00   C 499.78 246.00 499.99 245.77 499.97 245.50   C 499.64 239.70 498.91 233.95 497.79 228.25   L 497.46 224.25   C 499.07 220.62 499.56 217.71 498.63 213.58   C 497.40 208.10 496.43 202.57 495.71 197.00   C 496.63 194.96 497.97 193.02 499.74 191.18   L 504.29 217.25   C 507.74 233.95 513.77 255.64 530.75 263.49   C 532.73 264.41 534.58 264.92 536.31 265.01   C 537.26 265.06 538.11 264.42 538.32 263.49   C 543.72 239.34 545.78 215.08 544.50 190.69   C 544.44 189.56 544.25 188.68 543.93 188.06   C 533.38 167.35 519.87 148.74 503.40 132.24   C 505.03 130.34 506.90 130.19 509.00 131.79   Z   M 551.18 205.93   C 551.01 216.96 550.93 227.98 550.96 239.01   C 550.99 247.25 550.10 256.77 550.16 265.71   C 550.17 265.93 550.35 266.11 550.57 266.09   C 557.82 265.56 564.70 263.87 571.19 261.02   C 571.54 260.87 571.71 260.48 571.59 260.12   C 566.57 245.17 561.49 230.46 556.36 215.97   C 555.09 212.40 553.46 209.03 551.46 205.86   C 551.28 205.57 551.19 205.60 551.18 205.93   Z"/>
<path fill="#ff6a55" d="   M 523.75 130.96   C 528.68 132.53 533.36 134.62 537.79 137.25   C 537.25 137.74 537.64 138.17 538.11 138.43   C 538.35 138.56 538.54 138.76 538.65 139.01   C 543.93 150.81 543.88 161.89 544.63 174.50   C 544.66 175.04 543.96 175.27 543.66 174.82   C 541.82 172.04 540.22 167.83 538.09 165.44   C 534.99 161.94 532.84 157.68 529.91 153.99   C 523.97 146.50 515.75 139.37 509.00 131.79   L 509.80 131.32   C 510.08 131.15 510.38 131.06 510.71 131.04   C 514.12 130.86 520.99 132.07 523.75 130.96   Z"/>
<path fill="#ff6a55" d="   M 503.40 132.24   C 519.87 148.74 533.38 167.35 543.93 188.06   C 544.25 188.68 544.44 189.56 544.50 190.69   C 545.78 215.08 543.72 239.34 538.32 263.49   C 538.11 264.42 537.26 265.06 536.31 265.01   C 534.58 264.92 532.73 264.41 530.75 263.49   C 513.77 255.64 507.74 233.95 504.29 217.25   C 511.25 214.02 515.41 203.07 516.70 196.59   C 519.60 182.00 518.23 167.87 512.59 154.21   C 512.35 153.64 511.50 153.82 511.52 154.44   C 511.89 167.44 506.40 180.11 499.74 191.18   C 497.97 193.02 496.63 194.96 495.71 197.00   C 495.24 198.17 494.35 198.92 493.04 199.25   L 492.82 198.94   C 492.67 198.73 492.43 198.60 492.16 198.58   C 481.00 197.83 472.21 192.96 465.78 183.99   C 465.67 183.83 465.41 183.65 465.00 183.46   C 465.41 181.85 465.51 180.90 466.30 179.35   C 472.61 166.83 478.93 154.31 485.25 141.79   C 489.17 134.69 495.22 131.51 503.40 132.24   Z"/>
<path fill="#ff6a55" d="   M 546.29 148.25   C 549.10 152.05 551.09 155.48 552.27 158.54   C 557.11 171.14 561.09 185.28 564.22 200.96   C 567.66 218.25 571.60 235.42 576.05 252.49   C 576.17 252.95 576.06 253.62 575.71 254.50   L 575.45 254.35   C 575.29 254.25 575.17 254.11 575.11 253.93   C 567.52 233.20 559.70 212.56 551.65 192.00   C 550.88 190.02 550.42 187.96 550.28 185.81   C 549.48 173.23 548.15 160.71 546.29 148.25   Z"/>
<path fill="#e8413a" d="   M 504.29 217.25   L 499.74 191.18   C 506.40 180.11 511.89 167.44 511.52 154.44   C 511.50 153.82 512.35 153.64 512.59 154.21   C 518.23 167.87 519.60 182.00 516.70 196.59   C 515.41 203.07 511.25 214.02 504.29 217.25   Z"/>
<path fill="#e59e82" d="   M 465.00 183.46   C 465.41 183.65 465.67 183.83 465.78 183.99   C 472.21 192.96 481.00 197.83 492.16 198.58   C 492.43 198.60 492.67 198.73 492.82 198.94   L 493.04 199.25   C 492.67 200.58 492.58 201.58 492.75 202.25   C 494.65 209.51 496.22 216.84 497.46 224.25   L 497.79 228.25   C 490.78 234.54 483.48 240.48 475.89 246.08   C 471.12 249.43 467.15 253.57 463.96 258.50   C 461.23 261.90 458.50 264.49 453.91 265.20   C 446.58 266.34 439.52 267.37 432.24 265.17   C 431.93 265.08 431.69 264.84 431.59 264.54   C 430.80 262.17 436.66 260.79 438.25 258.79   C 440.94 257.81 443.15 253.50 444.29 251.00   C 446.31 247.68 449.30 245.75 453.25 245.21   L 454.05 245.26   C 454.38 245.29 454.71 245.18 454.97 244.97   C 468.49 233.86 479.76 220.79 488.77 205.78   C 488.98 205.44 488.91 205.38 488.57 205.59   C 487.08 206.56 485.81 208.65 484.94 209.51   C 473.57 220.91 461.01 230.82 447.26 239.25   C 446.79 239.54 446.54 240.02 446.50 240.71   C 445.14 240.48 444.38 241.00 444.21 242.25   L 437.00 246.21   C 430.56 249.17 424.88 253.18 419.96 258.25   C 417.83 259.36 416.16 260.95 414.96 263.00   C 412.38 265.65 409.31 267.49 405.75 268.54   C 396.87 267.77 390.71 269.40 381.04 265.75   C 380.45 265.18 380.17 264.51 380.18 263.76   C 380.19 263.46 380.39 263.19 380.68 263.09   C 386.31 261.20 391.19 258.38 395.32 254.62   C 395.90 254.09 395.56 253.13 394.78 253.08   C 391.53 252.87 388.54 253.10 385.79 253.76   C 383.99 254.19 379.51 253.84 380.42 251.00   C 380.51 250.70 380.74 250.45 381.04 250.34   C 384.26 249.07 388.23 247.68 392.94 246.18   C 397.39 244.76 401.64 245.86 405.75 245.71   L 414.50 240.21   C 435.35 224.86 452.18 205.94 465.00 183.46   Z"/>
<path fill="#e8413a" d="   M 244.21 216.00   C 234.45 210.95 223.80 214.63 213.48 212.80   C 213.20 212.75 212.92 212.88 212.77 213.12   L 212.50 213.54   C 207.87 211.33 203.49 208.70 199.38 205.63   C 197.93 199.60 208.66 190.50 213.32 188.23   C 213.61 188.09 213.94 188.02 214.27 188.05   C 224.94 189.02 246.93 191.76 244.96 207.22   C 244.51 210.70 244.26 213.63 244.21 216.00   Z"/>
<path fill="#e8413a" d="   M 495.71 197.00   C 496.43 202.57 497.40 208.10 498.63 213.58   C 499.56 217.71 499.07 220.62 497.46 224.25   C 496.22 216.84 494.65 209.51 492.75 202.25   C 492.58 201.58 492.67 200.58 493.04 199.25   C 494.35 198.92 495.24 198.17 495.71 197.00   Z"/>
<path fill="#ff6a55" d="   M 551.46 205.86   C 553.46 209.03 555.09 212.40 556.36 215.97   C 561.49 230.46 566.57 245.17 571.59 260.12   C 571.71 260.48 571.54 260.87 571.19 261.02   C 564.70 263.87 557.82 265.56 550.57 266.09   C 550.35 266.11 550.17 265.93 550.16 265.71   C 550.10 256.77 550.99 247.25 550.96 239.01   C 550.93 227.98 551.01 216.96 551.18 205.93   C 551.19 205.60 551.28 205.57 551.46 205.86   Z"/>
<path fill="#f0e2df" d="   M 453.25 245.21   C 453.75 243.83 453.72 242.52 453.17 241.27   C 453.04 240.99 452.76 240.81 452.45 240.80   L 446.50 240.71   C 446.54 240.02 446.79 239.54 447.26 239.25   C 461.01 230.82 473.57 220.91 484.94 209.51   C 485.81 208.65 487.08 206.56 488.57 205.59   C 488.91 205.38 488.98 205.44 488.77 205.78   C 479.76 220.79 468.49 233.86 454.97 244.97   C 454.71 245.18 454.38 245.29 454.05 245.26   L 453.25 245.21   Z"/>
<path fill="#0d3567" d="   M 199.38 205.63   C 203.49 208.70 207.87 211.33 212.50 213.54   L 217.48 216.42   L 211.14 221.49   C 210.81 221.75 210.33 221.54 210.29 221.13   C 209.83 217.00 204.49 215.05 203.00 220.02   C 202.15 222.90 202.12 225.66 202.91 228.29   C 203.00 228.60 202.99 228.92 202.88 229.23   C 202.43 230.52 201.65 231.52 200.54 232.25   C 196.56 223.66 196.17 214.79 199.38 205.63   Z"/>
<path fill="#0d3567" d="   M 366.25 229.46   C 363.27 228.95 360.27 228.87 357.25 229.21   L 357.21 221.52   C 357.21 221.24 356.99 221.02 356.71 221.02   C 353.32 221.01 343.23 221.82 340.66 220.30   C 338.40 218.97 338.44 214.90 340.68 213.35   C 342.97 211.76 353.61 212.45 356.75 212.52   C 357.01 212.53 357.21 212.30 357.17 212.04   C 356.36 206.75 361.47 207.44 364.61 208.06   C 364.98 208.13 365.26 208.42 365.32 208.79   L 365.87 212.07   C 365.91 212.32 366.13 212.51 366.38 212.52   L 380.92 212.81   C 381.78 212.83 382.56 213.29 383.00 214.02   C 384.57 216.65 384.21 218.84 381.94 220.60   C 381.68 220.80 381.37 220.90 381.05 220.91   L 366.43 221.04   C 366.15 221.05 365.92 221.25 365.88 221.52   C 365.47 224.22 365.60 226.87 366.25 229.46   Z"/>
<path fill="#ff6a55" d="   M 244.21 216.00   C 245.98 217.00 257.49 223.36 256.24 225.54   C 256.06 225.85 255.70 226.03 255.34 225.98   L 251.55 225.46   C 251.23 225.42 250.90 225.49 250.63 225.66   C 247.52 227.55 244.15 228.43 240.50 228.29   C 232.29 225.41 224.61 221.45 217.48 216.42   L 212.50 213.54   L 212.77 213.12   C 212.92 212.88 213.20 212.75 213.48 212.80   C 223.80 214.63 234.45 210.95 244.21 216.00   Z"/>
<path fill="#e59e82" d="   M 217.48 216.42   C 224.61 221.45 232.29 225.41 240.50 228.29   C 238.65 234.62 235.98 240.60 232.50 246.21   L 230.56 249.31   C 230.40 249.56 230.14 249.71 229.84 249.74   C 226.05 250.07 222.36 249.58 218.75 248.29   C 212.92 246.66 210.10 243.76 205.81 240.54   C 205.54 240.33 205.42 240.40 205.47 240.73   C 206.53 247.84 210.36 252.77 216.96 255.50   C 217.40 258.09 217.56 264.87 213.48 264.57   C 205.38 263.99 197.42 259.79 190.09 256.55   C 189.47 256.27 188.75 256.31 188.15 256.65   L 182.75 259.71   L 182.50 258.54   C 187.99 256.07 191.74 251.99 193.75 246.29   L 194.02 246.25   C 194.11 246.24 194.20 246.18 194.24 246.10   C 196.79 241.68 198.89 237.06 200.54 232.25   C 201.65 231.52 202.43 230.52 202.88 229.23   C 202.99 228.92 203.00 228.60 202.91 228.29   C 202.12 225.66 202.15 222.90 203.00 220.02   C 204.49 215.05 209.83 217.00 210.29 221.13   C 210.33 221.54 210.81 221.75 211.14 221.49   L 217.48 216.42   Z"/>
<path fill="#f0e2df" d="   M 497.79 228.25   C 498.91 233.95 499.64 239.70 499.97 245.50   C 499.99 245.77 499.78 246.00 499.51 246.00   L 475.89 246.08   C 483.48 240.48 490.78 234.54 497.79 228.25   Z"/>
<path fill="#0194ba" d="   M 366.25 229.46   C 372.39 230.70 377.31 233.81 381.02 238.79   C 381.21 239.04 381.51 239.19 381.82 239.19   L 405.71 239.25   L 405.75 245.71   C 401.64 245.86 397.39 244.76 392.94 246.18   C 388.23 247.68 384.26 249.07 381.04 250.34   C 380.74 250.45 380.51 250.70 380.42 251.00   C 379.51 253.84 383.99 254.19 385.79 253.76   C 388.54 253.10 391.53 252.87 394.78 253.08   C 395.56 253.13 395.90 254.09 395.32 254.62   C 391.19 258.38 386.31 261.20 380.68 263.09   C 380.39 263.19 380.19 263.46 380.18 263.76   C 380.17 264.51 380.45 265.18 381.04 265.75   C 378.62 269.29 375.47 271.98 371.59 273.82   C 371.17 274.02 370.91 274.43 370.91 274.88   L 370.75 290.46   L 366.04 290.25   C 365.71 287.72 364.45 285.79 362.25 284.46   L 363.76 281.13   C 363.88 280.86 363.93 280.55 363.89 280.26   L 363.02 274.35   C 362.97 274.05 362.84 273.77 362.64 273.56   C 360.70 271.54 358.43 270.04 355.82 269.06   C 352.85 267.94 348.80 269.39 345.54 269.50   L 341.88 265.62   C 341.66 265.38 341.35 265.25 341.03 265.25   L 321.29 265.25   L 321.50 239.29   L 341.68 239.19   C 341.99 239.19 342.29 239.04 342.48 238.78   C 346.19 233.81 351.12 230.62 357.25 229.21   C 360.27 228.87 363.27 228.95 366.25 229.46   Z   M 373.52 252.37   C 373.52 245.84 368.23 240.55 361.70 240.55   C 355.17 240.55 349.88 245.84 349.88 252.37   C 349.88 258.90 355.17 264.19 361.70 264.19   C 368.23 264.19 373.52 258.90 373.52 252.37   Z"/>
<path fill="#0d3567" d="   M 321.50 239.29   L 321.29 265.25   L 321.15 269.39   C 321.13 269.73 320.86 270.00 320.52 270.00   L 312.54 270.00   C 312.26 270.00 312.02 269.77 312.01 269.49   L 311.75 258.46   C 312.18 254.39 312.17 250.32 311.71 246.25   L 312.01 235.76   C 312.02 235.48 312.25 235.25 312.53 235.25   L 320.68 235.25   C 320.94 235.25 321.16 235.45 321.18 235.71   L 321.50 239.29   Z"/>
<path fill="#0d3567" d="   M 414.50 240.21   L 405.75 245.71   L 405.71 239.25   L 405.84 235.87   C 405.86 235.52 406.14 235.25 406.49 235.25   L 414.23 235.25   C 414.57 235.25 414.86 235.49 414.92 235.82   C 415.23 237.38 415.09 238.84 414.50 240.21   Z"/>
<path fill="#0d3567" d="   M 218.75 248.29   C 217.97 249.30 217.73 250.45 218.04 251.75   L 216.96 255.50   C 210.36 252.77 206.53 247.84 205.47 240.73   C 205.42 240.40 205.54 240.33 205.81 240.54   C 210.10 243.76 212.92 246.66 218.75 248.29   Z"/>
<circle fill="#0d3567" cx="361.70" cy="252.37" r="11.82"/>
<path fill="#0d3567" d="   M 279.29 246.25   L 279.29 258.75   L 279.21 265.00   C 279.20 265.28 278.98 265.50 278.70 265.50   L 270.62 265.50   C 270.34 265.50 270.12 265.29 270.10 265.01   L 269.75 258.46   C 270.18 254.39 270.17 250.32 269.71 246.25   L 270.06 241.22   C 270.08 240.96 270.30 240.75 270.56 240.75   L 278.52 240.75   C 278.82 240.75 279.07 240.99 279.08 241.29   L 279.29 246.25   Z"/>
<path fill="#0d3567" d="   M 446.50 240.71   L 452.45 240.80   C 452.76 240.81 453.04 240.99 453.17 241.27   C 453.72 242.52 453.75 243.83 453.25 245.21   C 449.30 245.75 446.31 247.68 444.29 251.00   L 444.05 250.59   C 443.89 250.32 443.86 249.99 443.97 249.69   C 444.42 248.56 444.41 247.42 443.96 246.25   L 444.21 242.25   C 444.38 241.00 445.14 240.48 446.50 240.71   Z"/>
<path fill="#f8f4f1" d="   M 444.21 242.25   L 443.96 246.25   L 437.00 246.21   L 444.21 242.25   Z"/>
<path fill="#0194ba" d="   M 159.75 245.96   C 160.40 246.16 161.07 246.26 161.75 246.25   C 172.42 246.12 183.08 246.14 193.75 246.29   C 191.74 251.99 187.99 256.07 182.50 258.54   L 159.29 258.50   L 159.25 246.87   C 159.25 246.63 159.34 246.40 159.50 246.23   L 159.75 245.96   Z"/>
<path fill="#0194ba" d="   M 269.71 246.25   C 270.17 250.32 270.18 254.39 269.75 258.46   L 228.64 258.48   C 225.89 256.47 222.92 254.83 219.75 253.54   L 218.04 251.75   C 217.73 250.45 217.97 249.30 218.75 248.29   C 222.36 249.58 226.05 250.07 229.84 249.74   C 230.14 249.71 230.40 249.56 230.56 249.31   L 232.50 246.21   C 244.91 245.87 257.31 245.88 269.71 246.25   Z"/>
<path fill="#0194ba" d="   M 311.71 246.25   C 312.17 250.32 312.18 254.39 311.75 258.46   L 279.29 258.75   L 279.29 246.25   C 290.10 245.86 300.90 245.86 311.71 246.25   Z"/>
<path fill="#0194ba" d="   M 443.96 246.25   C 444.41 247.42 444.42 248.56 443.97 249.69   C 443.86 249.99 443.89 250.32 444.05 250.59   L 444.29 251.00   C 443.15 253.50 440.94 257.81 438.25 258.79   L 419.96 258.25   C 424.88 253.18 430.56 249.17 437.00 246.21   L 443.96 246.25   Z"/>
<path fill="#ff6a55" d="   M 218.04 251.75   L 219.75 253.54   C 227.66 265.87 232.40 279.34 233.97 293.97   C 234.02 294.45 234.21 294.61 234.50 294.96   L 234.28 295.14   C 234.14 295.25 234.07 295.42 234.08 295.59   L 234.79 307.00   L 234.59 308.16   C 234.54 308.47 234.34 308.74 234.05 308.88   C 228.08 311.79 222.41 315.16 217.02 319.01   C 216.47 319.40 215.70 319.03 215.67 318.36   C 214.62 297.33 202.52 265.62 175.75 267.46   L 175.75 267.07   C 175.75 266.84 175.84 266.62 176.00 266.46   L 182.75 259.71   L 188.15 256.65   C 188.75 256.31 189.47 256.27 190.09 256.55   C 197.42 259.79 205.38 263.99 213.48 264.57   C 217.56 264.87 217.40 258.09 216.96 255.50   L 218.04 251.75   Z"/>
<path fill="#e8413a" d="   M 219.75 253.54   C 222.92 254.83 225.89 256.47 228.64 258.48   L 252.75 274.04   C 248.90 281.70 244.64 289.12 239.98 296.31   C 239.69 296.75 239.76 297.01 239.71 297.50   L 234.50 294.96   C 234.21 294.61 234.02 294.45 233.97 293.97   C 232.40 279.34 227.66 265.87 219.75 253.54   Z"/>
<path fill="#f0e2df" d="   M 228.64 258.48   L 269.75 258.46   L 270.10 265.01   C 270.12 265.29 270.34 265.50 270.62 265.50   L 278.70 265.50   C 278.98 265.50 279.20 265.28 279.21 265.00   L 279.29 258.75   L 311.75 258.46   L 312.01 269.49   C 312.02 269.77 312.26 270.00 312.54 270.00   L 320.52 270.00   C 320.86 270.00 321.13 269.73 321.15 269.39   L 321.29 265.25   L 341.03 265.25   C 341.35 265.25 341.66 265.38 341.88 265.62   L 345.54 269.50   C 341.17 272.41 337.19 275.80 333.61 279.67   C 333.38 279.91 333.09 280.08 332.77 280.15   C 317.24 283.87 300.99 286.33 284.00 287.52   C 278.14 287.93 274.47 287.25 269.24 284.01   C 263.77 280.62 258.28 277.30 252.75 274.04   L 228.64 258.48   Z"/>
<path fill="#f0e2df" d="   M 419.96 258.25   L 438.25 258.79   C 436.66 260.79 430.80 262.17 431.59 264.54   C 431.69 264.84 431.93 265.08 432.24 265.17   C 439.52 267.37 446.58 266.34 453.91 265.20   C 458.50 264.49 461.23 261.90 463.96 258.50   L 464.02 258.63   C 464.03 258.64 464.13 258.64 464.25 258.64   L 500.41 258.70   C 500.71 258.70 500.96 258.93 500.99 259.23   C 501.62 265.69 502.05 272.18 502.30 278.69   C 502.43 282.13 505.21 281.80 507.59 282.47   C 508.20 282.64 508.59 283.23 508.50 283.85   C 504.66 310.58 500.96 337.27 497.41 363.93   C 495.20 380.48 493.80 397.08 493.21 413.75   C 492.72 427.48 493.68 441.94 494.46 456.00   C 490.89 455.76 487.32 455.62 483.75 455.59   C 459.76 455.40 435.78 455.23 411.80 455.10   L 411.96 423.50   C 413.65 409.70 413.72 393.17 398.36 386.93   C 391.22 384.03 379.47 385.16 371.52 385.24   C 371.23 385.24 371.00 385.01 371.00 384.73   L 371.00 369.75   C 371.00 369.43 370.76 369.16 370.44 369.13   L 365.75 368.71   C 366.17 351.80 366.16 334.90 365.71 318.00   C 366.18 316.83 366.94 315.92 368.01 315.26   C 368.28 315.09 368.59 315.00 368.91 315.00   L 373.63 315.00   C 373.97 315.00 374.25 314.72 374.25 314.38   L 374.25 303.13   C 374.25 302.78 373.97 302.50 373.62 302.50   L 370.31 302.50   C 370.01 302.50 369.72 302.36 369.52 302.13   L 366.17 298.15   C 365.95 297.89 366.14 297.49 366.48 297.49   L 377.74 297.47   C 378.02 297.47 378.25 297.25 378.25 296.97   L 378.25 291.04   C 378.25 290.76 378.03 290.54 377.75 290.53   L 370.75 290.46   L 370.91 274.88   C 370.91 274.43 371.17 274.02 371.59 273.82   C 375.47 271.98 378.62 269.29 381.04 265.75   C 390.71 269.40 396.87 267.77 405.75 268.54   C 405.66 268.96 405.73 269.32 405.96 269.61   C 406.15 269.86 406.44 270.00 406.75 270.00   L 414.40 270.00   C 414.68 270.00 414.90 269.77 414.91 269.49   L 414.96 263.00   C 416.16 260.95 417.83 259.36 419.96 258.25   Z"/>
<path fill="#f0e2df" d="   M 159.29 258.50   L 182.50 258.54   L 182.75 259.71   L 176.00 266.46   C 175.84 266.62 175.75 266.84 175.75 267.07   L 175.75 267.46   C 173.40 268.59 171.99 270.44 171.54 273.00   C 153.40 305.39 171.02 344.16 170.52 378.59   C 170.46 382.81 171.24 385.33 175.54 386.25   C 179.32 406.05 188.96 421.35 204.24 434.06   C 207.27 436.58 210.27 439.13 213.25 441.71   C 203.48 441.40 194.90 440.92 187.50 440.25   C 185.97 440.11 184.63 440.26 183.50 440.71   L 182.85 440.75   C 182.53 440.78 182.21 440.67 181.95 440.46   C 178.32 437.46 175.55 433.96 170.99 432.19   C 170.71 432.08 170.40 432.19 170.24 432.44   L 159.69 449.63   C 159.51 449.93 159.10 449.97 158.86 449.72   C 157.31 448.08 155.50 446.87 153.43 446.10   C 152.89 445.90 152.28 446.11 151.97 446.60   L 147.75 453.29   C 146.92 453.10 145.83 453.01 144.50 453.00   C 128.04 452.95 97.41 452.76 52.61 452.43   C 52.70 450.41 52.58 447.77 52.24 444.50   C 50.57 428.54 50.36 410.55 53.10 394.85   C 58.04 366.46 75.12 332.59 103.60 320.96   C 124.88 312.27 148.19 314.59 154.78 287.53   C 156.57 280.18 157.45 271.67 157.40 262.00   C 157.39 261.01 158.02 259.84 159.29 258.50   Z"/>
<path fill="#0d3567" d="   M 414.96 263.00   L 414.91 269.49   C 414.90 269.77 414.68 270.00 414.40 270.00   L 406.75 270.00   C 406.44 270.00 406.15 269.86 405.96 269.61   C 405.73 269.32 405.66 268.96 405.75 268.54   C 409.31 267.49 412.38 265.65 414.96 263.00   Z"/>
<path fill="#008095" d="   M 572.21 266.41   C 582.70 301.78 569.97 338.27 564.73 372.26   C 560.20 401.67 566.17 428.80 574.29 456.75   C 579.01 474.82 583.30 492.94 583.21 511.75   C 582.30 511.78 581.42 511.99 580.59 512.37   C 574.07 515.33 567.22 516.54 560.04 516.00   L 537.21 456.50   L 529.37 435.50   C 529.60 431.93 529.81 429.60 529.98 428.49   C 533.89 403.32 540.06 379.57 548.49 357.24   C 553.10 345.01 556.49 335.10 558.64 327.51   C 563.51 310.38 562.01 295.78 559.52 278.50   C 558.99 274.84 567.12 269.84 572.21 266.41   Z"/>
<path fill="#0194ba" d="   M 234.79 307.00   C 235.03 308.18 235.18 309.37 235.25 310.57   C 235.76 319.53 236.09 328.49 236.25 337.46   L 219.08 338.91   C 218.77 338.93 218.47 338.78 218.31 338.51   C 214.90 332.68 212.28 326.51 210.46 320.00   C 209.56 304.26 204.32 290.70 194.73 279.31   C 190.35 274.11 178.16 267.62 171.54 273.00   C 171.99 270.44 173.40 268.59 175.75 267.46   C 202.52 265.62 214.62 297.33 215.67 318.36   C 215.70 319.03 216.47 319.40 217.02 319.01   C 222.41 315.16 228.08 311.79 234.05 308.88   C 234.34 308.74 234.54 308.47 234.59 308.16   L 234.79 307.00   Z"/>
<path fill="#e59e82" d="   M 362.25 284.46   L 357.62 281.64   C 357.34 281.47 357.02 281.41 356.71 281.47   C 353.32 282.06 349.13 287.44 347.71 289.75   C 344.17 287.72 340.63 292.73 338.42 294.05   C 321.75 300.76 277.80 317.35 261.42 308.60   C 254.25 304.77 247.01 301.07 239.71 297.50   C 239.76 297.01 239.69 296.75 239.98 296.31   C 244.64 289.12 248.90 281.70 252.75 274.04   C 258.28 277.30 263.77 280.62 269.24 284.01   C 274.47 287.25 278.14 287.93 284.00 287.52   C 300.99 286.33 317.24 283.87 332.77 280.15   C 333.09 280.08 333.38 279.91 333.61 279.67   C 337.19 275.80 341.17 272.41 345.54 269.50   C 348.80 269.39 352.85 267.94 355.82 269.06   C 358.43 270.04 360.70 271.54 362.64 273.56   C 362.84 273.77 362.97 274.05 363.02 274.35   L 363.89 280.26   C 363.93 280.55 363.88 280.86 363.76 281.13   L 362.25 284.46   Z"/>
<path fill="#ff6a55" d="   M 210.46 320.00   C 209.85 319.95 209.47 319.97 209.31 320.06   C 201.22 324.66 193.12 329.24 185.00 333.79   C 180.41 326.28 176.61 318.33 173.62 309.96   C 173.56 309.80 173.40 309.71 173.24 309.74   C 173.08 309.77 172.96 309.91 172.96 310.08   C 173.02 327.11 175.38 343.90 180.05 360.44   C 181.10 364.18 184.72 365.43 187.98 363.57   C 191.03 361.83 193.65 354.91 195.71 351.75   L 197.29 354.50   C 196.19 366.71 187.05 375.93 179.62 385.40   C 179.42 385.65 179.13 385.81 178.82 385.85   L 175.54 386.25   C 171.24 385.33 170.46 382.81 170.52 378.59   C 171.02 344.16 153.40 305.39 171.54 273.00   C 178.16 267.62 190.35 274.11 194.73 279.31   C 204.32 290.70 209.56 304.26 210.46 320.00   Z"/>
<path fill="#ff6a55" d="   M 362.25 284.46   C 364.45 285.79 365.71 287.72 366.04 290.25   L 362.68 293.94   C 362.46 294.18 362.09 294.22 361.83 294.03   L 359.13 292.12   C 359.86 290.02 359.20 288.43 357.15 287.34   C 356.88 287.20 356.54 287.25 356.32 287.47   L 350.96 293.00   C 349.60 292.19 348.52 291.11 347.71 289.75   C 349.13 287.44 353.32 282.06 356.71 281.47   C 357.02 281.41 357.34 281.47 357.62 281.64   L 362.25 284.46   Z"/>
<path fill="#e59e82" d="   M 359.13 292.12   C 356.32 293.01 353.59 293.31 350.96 293.00   L 356.32 287.47   C 356.54 287.25 356.88 287.20 357.15 287.34   C 359.20 288.43 359.86 290.02 359.13 292.12   Z"/>
<path fill="#0d3567" d="   M 347.71 289.75   C 348.52 291.11 349.60 292.19 350.96 293.00   C 353.59 293.31 356.32 293.01 359.13 292.12   L 361.83 294.03   C 362.09 294.22 362.46 294.18 362.68 293.94   L 366.04 290.25   L 370.75 290.46   L 377.75 290.53   C 378.03 290.54 378.25 290.76 378.25 291.04   L 378.25 296.97   C 378.25 297.25 378.02 297.47 377.74 297.47   L 366.48 297.49   C 366.14 297.49 365.95 297.89 366.17 298.15   L 369.52 302.13   C 369.72 302.36 370.01 302.50 370.31 302.50   L 373.62 302.50   C 373.97 302.50 374.25 302.78 374.25 303.13   L 374.25 314.38   C 374.25 314.72 373.97 315.00 373.63 315.00   L 368.91 315.00   C 368.59 315.00 368.28 315.09 368.01 315.26   C 366.94 315.92 366.18 316.83 365.71 318.00   C 361.37 319.08 359.19 320.07 354.74 318.50   C 354.23 318.32 353.75 318.49 353.29 319.00   L 353.27 318.70   C 353.24 318.39 353.09 318.10 352.84 317.90   L 349.57 315.32   C 349.32 315.11 349.00 315.00 348.67 315.00   L 345.37 315.00   C 345.03 315.00 344.75 314.72 344.75 314.37   L 344.75 313.28   C 344.76 312.96 344.61 312.66 344.35 312.47   C 340.83 309.82 337.93 311.11 335.04 314.09   C 329.49 319.80 323.97 325.52 318.46 331.25   L 310.71 326.00   C 320.63 317.65 327.24 312.17 330.55 309.56   C 333.72 307.05 334.13 304.24 331.77 301.11   C 331.61 300.89 331.64 300.59 331.83 300.40   L 338.42 294.05   C 340.63 292.73 344.17 287.72 347.71 289.75   Z   M 339.12 302.12   C 339.29 302.31 339.59 302.33 339.78 302.16   L 343.44 298.98   C 343.60 298.83 343.85 298.82 344.02 298.95   L 346.82 301.02   C 346.99 301.14 347.22 301.14 347.39 301.01   L 348.46 300.19   C 348.70 300.00 348.70 299.64 348.46 299.45   L 346.27 297.75   C 346.09 297.61 346.04 297.35 346.16 297.14   L 347.28 295.20   C 347.39 295.02 347.36 294.79 347.21 294.63   L 344.81 292.17   C 344.64 291.99 344.35 291.98 344.16 292.15   L 336.77 298.73   C 336.58 298.90 336.56 299.20 336.73 299.39   L 339.12 302.12   Z   M 354.83 312.20   C 355.09 312.69 355.60 313.00 356.15 313.00   L 361.63 313.00   C 362.18 313.00 362.68 312.70 362.95 312.22   L 365.29 307.93   C 365.54 307.46 365.53 306.90 365.26 306.45   L 362.77 302.23   C 362.50 301.78 362.01 301.50 361.48 301.50   L 356.20 301.50   C 355.66 301.50 355.17 301.79 354.90 302.25   L 352.53 306.38   C 352.28 306.83 352.27 307.38 352.51 307.83   L 354.83 312.20   Z"/>
<path fill="#ff6a55" d="   M 339.12 302.12   L 336.73 299.39   C 336.56 299.20 336.58 298.90 336.77 298.73   L 344.16 292.15   C 344.35 291.98 344.64 291.99 344.81 292.17   L 347.21 294.63   C 347.36 294.79 347.39 295.02 347.28 295.20   L 346.16 297.14   C 346.04 297.35 346.09 297.61 346.27 297.75   L 348.46 299.45   C 348.70 299.64 348.70 300.00 348.46 300.19   L 347.39 301.01   C 347.22 301.14 346.99 301.14 346.82 301.02   L 344.02 298.95   C 343.85 298.82 343.60 298.83 343.44 298.98   L 339.78 302.16   C 339.59 302.33 339.29 302.31 339.12 302.12   Z"/>
<path fill="#f0e2df" d="   M 338.42 294.05   L 331.83 300.40   C 331.64 300.59 331.61 300.89 331.77 301.11   C 334.13 304.24 333.72 307.05 330.55 309.56   C 327.24 312.17 320.63 317.65 310.71 326.00   C 308.16 324.80 305.60 324.70 303.01 325.71   C 302.69 325.83 302.33 325.85 302.00 325.75   L 298.39 324.63   C 298.06 324.53 297.72 324.52 297.39 324.60   C 296.16 324.91 294.86 325.63 293.48 326.75   C 290.79 328.94 286.66 329.35 283.07 330.00   C 267.52 332.83 251.91 335.31 236.25 337.46   C 236.09 328.49 235.76 319.53 235.25 310.57   C 235.18 309.37 235.03 308.18 234.79 307.00   L 234.08 295.59   C 234.07 295.42 234.14 295.25 234.28 295.14   L 234.50 294.96   L 239.71 297.50   C 247.01 301.07 254.25 304.77 261.42 308.60   C 277.80 317.35 321.75 300.76 338.42 294.05   Z"/>
<path fill="#ff6a55" d="   M 354.83 312.20   L 352.51 307.83   C 352.27 307.38 352.28 306.83 352.53 306.38   L 354.90 302.25   C 355.17 301.79 355.66 301.50 356.20 301.50   L 361.48 301.50   C 362.01 301.50 362.50 301.78 362.77 302.23   L 365.26 306.45   C 365.53 306.90 365.54 307.46 365.29 307.93   L 362.95 312.22   C 362.68 312.70 362.18 313.00 361.63 313.00   L 356.15 313.00   C 355.60 313.00 355.09 312.69 354.83 312.20   Z"/>
<path fill="#e8413a" d="   M 185.00 333.79   L 195.71 351.75   C 193.65 354.91 191.03 361.83 187.98 363.57   C 184.72 365.43 181.10 364.18 180.05 360.44   C 175.38 343.90 173.02 327.11 172.96 310.08   C 172.96 309.91 173.08 309.77 173.24 309.74   C 173.40 309.71 173.56 309.80 173.62 309.96   C 176.61 318.33 180.41 326.28 185.00 333.79   Z"/>
<path fill="#f0e2df" d="   M 353.29 319.00   C 352.82 335.57 352.81 352.14 353.25 368.71   L 349.52 369.13   C 349.25 369.16 349.05 369.39 349.05 369.66   C 349.02 376.43 348.28 384.75 350.01 390.69   C 355.66 410.09 373.39 406.93 390.00 407.35   C 390.28 407.36 390.50 407.59 390.50 407.86   L 390.50 422.53   C 390.50 422.86 390.76 423.12 391.09 423.13   L 398.00 423.29   L 397.98 454.64   L 377.53 455.03   L 376.21 452.00   L 376.08 424.19   C 376.07 423.91 375.85 423.67 375.57 423.65   C 370.98 423.34 366.38 423.38 361.79 423.75   L 361.18 421.32   C 361.10 421.01 360.82 420.79 360.50 420.79   L 310.93 420.73   C 310.58 420.73 310.27 420.96 310.17 421.30   L 309.46 423.75   C 304.12 423.38 298.78 423.35 293.44 423.66   C 293.16 423.68 292.93 423.91 292.92 424.19   C 292.57 434.04 292.61 443.90 293.04 453.75   L 292.96 454.00   L 284.93 454.42   C 284.71 454.43 284.51 454.30 284.43 454.10   L 284.29 453.75   C 283.73 441.19 275.47 428.75 267.29 417.97   C 259.15 407.25 249.89 396.52 243.79 384.50   C 244.43 384.04 245.00 383.79 245.51 383.75   C 245.91 383.72 246.16 383.30 245.99 382.94   C 242.89 376.19 240.54 369.25 238.94 362.11   C 255.02 356.94 269.87 351.65 283.50 346.24   C 284.99 345.65 286.37 345.60 287.64 346.09   C 285.65 349.67 284.26 359.28 291.46 357.47   C 294.42 356.73 297.55 352.98 300.50 349.71   L 306.42 349.55   C 307.08 349.53 307.62 349.03 307.68 348.37   C 307.73 347.72 308.17 346.89 308.98 345.90   C 309.19 345.65 309.50 345.52 309.82 345.55   C 312.44 345.80 313.56 344.59 313.17 341.90   C 313.12 341.52 313.29 341.14 313.62 340.93   L 315.80 339.55   C 316.09 339.37 316.27 339.05 316.28 338.71   C 316.42 336.07 317.15 333.58 318.46 331.25   C 323.97 325.52 329.49 319.80 335.04 314.09   C 337.93 311.11 340.83 309.82 344.35 312.47   C 344.61 312.66 344.76 312.96 344.75 313.28   L 344.75 314.37   C 344.75 314.72 345.03 315.00 345.37 315.00   L 348.67 315.00   C 349.00 315.00 349.32 315.11 349.57 315.32   L 352.84 317.90   C 353.09 318.10 353.24 318.39 353.27 318.70   L 353.29 319.00   Z"/>
<path fill="#0194ba" d="   M 365.71 318.00   C 366.16 334.90 366.17 351.80 365.75 368.71   C 361.58 369.19 357.42 369.19 353.25 368.71   C 352.81 352.14 352.82 335.57 353.29 319.00   C 353.75 318.49 354.23 318.32 354.74 318.50   C 359.19 320.07 361.37 319.08 365.71 318.00   Z"/>
<path fill="#e59e82" d="   M 210.46 320.00   C 212.28 326.51 214.90 332.68 218.31 338.51   C 218.47 338.78 218.77 338.93 219.08 338.91   L 236.25 337.46   C 251.91 335.31 267.52 332.83 283.07 330.00   C 286.66 329.35 290.79 328.94 293.48 326.75   C 294.86 325.63 296.16 324.91 297.39 324.60   C 297.72 324.52 298.06 324.53 298.39 324.63   L 302.00 325.75   C 302.33 325.85 302.69 325.83 303.01 325.71   C 305.60 324.70 308.16 324.80 310.71 326.00   L 318.46 331.25   C 317.15 333.58 316.42 336.07 316.28 338.71   C 316.27 339.05 316.09 339.37 315.80 339.55   L 313.62 340.93   C 313.29 341.14 313.12 341.52 313.17 341.90   C 313.56 344.59 312.44 345.80 309.82 345.55   C 309.50 345.52 309.19 345.65 308.98 345.90   C 308.17 346.89 307.73 347.72 307.68 348.37   C 307.62 349.03 307.08 349.53 306.42 349.55   L 300.50 349.71   C 295.03 349.93 291.99 349.45 287.64 346.09   C 286.37 345.60 284.99 345.65 283.50 346.24   C 269.87 351.65 255.02 356.94 238.94 362.11   C 233.01 364.00 227.05 365.83 221.08 367.58   C 214.00 369.66 208.66 369.46 204.36 363.38   C 202.99 361.44 199.27 355.14 197.29 354.50   L 195.71 351.75   L 185.00 333.79   C 193.12 329.24 201.22 324.66 209.31 320.06   C 209.47 319.97 209.85 319.95 210.46 320.00   Z"/>
<path fill="#0d3567" d="   M 287.64 346.09   C 291.99 349.45 295.03 349.93 300.50 349.71   C 297.55 352.98 294.42 356.73 291.46 357.47   C 284.26 359.28 285.65 349.67 287.64 346.09   Z"/>
<path fill="#0194ba" d="   M 197.29 354.50   C 199.27 355.14 202.99 361.44 204.36 363.38   C 208.66 369.46 214.00 369.66 221.08 367.58   C 227.05 365.83 233.01 364.00 238.94 362.11   C 240.54 369.25 242.89 376.19 245.99 382.94   C 246.16 383.30 245.91 383.72 245.51 383.75   C 245.00 383.79 244.43 384.04 243.79 384.50   C 241.40 384.01 239.15 384.52 237.05 386.03   C 236.81 386.20 236.72 386.51 236.83 386.79   C 242.97 401.93 250.58 412.69 261.05 428.70   C 269.21 441.18 275.79 453.44 280.79 465.48   C 280.90 465.77 281.13 465.86 281.46 465.75   L 281.06 466.88   C 280.96 467.18 280.99 467.50 281.14 467.77   C 283.63 472.10 283.55 476.14 280.92 479.88   C 278.60 483.18 271.58 492.75 267.76 493.51   C 250.73 496.90 234.17 497.29 218.07 494.68   C 203.69 492.34 185.04 488.24 166.44 487.87   C 166.15 487.86 165.91 487.65 165.88 487.36   L 164.72 476.41   C 164.55 469.04 164.88 461.64 165.70 454.22   C 165.74 453.87 166.08 453.65 166.42 453.74   L 182.46 458.25   C 200.95 462.74 220.23 464.61 240.28 463.87   C 240.76 463.85 241.05 463.34 240.83 462.92   C 240.54 462.36 240.09 461.81 239.48 461.27   C 231.27 454.03 222.52 447.51 213.25 441.71   C 210.27 439.13 207.27 436.58 204.24 434.06   C 188.96 421.35 179.32 406.05 175.54 386.25   L 178.82 385.85   C 179.13 385.81 179.42 385.65 179.62 385.40   C 187.05 375.93 196.19 366.71 197.29 354.50   Z"/>
<path fill="#0d3567" d="   M 353.25 368.71   C 357.42 369.19 361.58 369.19 365.75 368.71   L 370.44 369.13   C 370.76 369.16 371.00 369.43 371.00 369.75   L 371.00 384.73   C 371.00 385.01 371.23 385.24 371.52 385.24   C 379.47 385.16 391.22 384.03 398.36 386.93   C 413.72 393.17 413.65 409.70 411.96 423.50   L 398.00 423.29   L 391.09 423.13   C 390.76 423.12 390.50 422.86 390.50 422.53   L 390.50 407.86   C 390.50 407.59 390.28 407.36 390.00 407.35   C 373.39 406.93 355.66 410.09 350.01 390.69   C 348.28 384.75 349.02 376.43 349.05 369.66   C 349.05 369.39 349.25 369.16 349.52 369.13   L 353.25 368.71   Z"/>
<path fill="#008095" d="   M 243.79 384.50   C 249.89 396.52 259.15 407.25 267.29 417.97   C 275.47 428.75 283.73 441.19 284.29 453.75   C 284.28 457.98 283.33 461.98 281.46 465.75   C 281.13 465.86 280.90 465.77 280.79 465.48   C 275.79 453.44 269.21 441.18 261.05 428.70   C 250.58 412.69 242.97 401.93 236.83 386.79   C 236.72 386.51 236.81 386.20 237.05 386.03   C 239.15 384.52 241.40 384.01 243.79 384.50   Z"/>
<path fill="#ff6a55" d="   M 361.79 423.75   C 361.42 424.98 361.42 426.23 361.79 427.50   L 361.17 430.04   C 361.10 430.33 360.84 430.53 360.54 430.53   L 310.72 430.37   C 310.43 430.37 310.18 430.14 310.15 429.85   C 310.09 429.04 309.87 428.33 309.50 427.71   C 309.93 426.38 309.92 425.06 309.46 423.75   L 310.17 421.30   C 310.27 420.96 310.58 420.73 310.93 420.73   L 360.50 420.79   C 360.82 420.79 361.10 421.01 361.18 421.32   L 361.79 423.75   Z"/>
<path fill="#0194ba" d="   M 398.00 423.29   L 411.96 423.50   L 411.80 455.10   L 411.79 471.00   C 411.46 471.88 411.38 472.96 411.56 474.24   C 411.65 474.87 411.29 475.47 410.69 475.69   C 406.66 477.10 402.85 477.11 399.26 475.72   C 398.51 475.43 398.08 474.66 398.21 473.87   C 398.38 472.83 398.30 471.87 397.96 471.00   C 398.42 465.43 398.43 459.98 397.98 454.64   L 398.00 423.29   Z"/>
<path fill="#0d3567" d="   M 309.46 423.75   C 309.92 425.06 309.93 426.38 309.50 427.71   L 297.56 427.81   C 297.28 427.81 297.06 428.03 297.05 428.31   L 296.79 445.75   L 293.04 453.75   C 292.61 443.90 292.57 434.04 292.92 424.19   C 292.93 423.91 293.16 423.68 293.44 423.66   C 298.78 423.35 304.12 423.38 309.46 423.75   Z"/>
<path fill="#0d3567" d="   M 376.21 452.00   L 372.00 442.96   L 371.82 428.21   C 371.81 427.94 371.60 427.73 371.33 427.72   L 361.79 427.50   C 361.42 426.23 361.42 424.98 361.79 423.75   C 366.38 423.38 370.98 423.34 375.57 423.65   C 375.85 423.67 376.07 423.91 376.08 424.19   L 376.21 452.00   Z"/>
<path fill="#f0e2df" d="   M 309.50 427.71   C 309.87 428.33 310.09 429.04 310.15 429.85   C 310.18 430.14 310.43 430.37 310.72 430.37   L 360.54 430.53   C 360.84 430.53 361.10 430.33 361.17 430.04   L 361.79 427.50   L 371.33 427.72   C 371.60 427.73 371.81 427.94 371.82 428.21   L 372.00 442.96   C 371.40 442.68 370.99 442.21 370.76 441.54   C 370.66 441.26 370.41 441.07 370.12 441.06   C 347.52 440.01 324.47 440.73 301.80 440.72   C 299.34 440.72 298.05 441.88 297.93 444.21   C 297.92 444.51 297.79 444.79 297.57 445.00   L 296.79 445.75   L 297.05 428.31   C 297.06 428.03 297.28 427.81 297.56 427.81   L 309.50 427.71   Z"/>
<path fill="#0d3567" d="   M 183.50 440.71   L 182.46 458.25   L 166.42 453.74   C 166.08 453.65 165.74 453.87 165.70 454.22   C 164.88 461.64 164.55 469.04 164.72 476.41   C 155.42 475.91 148.35 481.20 141.77 487.04   C 137.98 490.40 129.89 496.28 125.28 490.88   C 125.09 490.65 125.07 490.33 125.22 490.08   L 147.75 453.29   L 151.97 446.60   C 152.28 446.11 152.89 445.90 153.43 446.10   C 155.50 446.87 157.31 448.08 158.86 449.72   C 159.10 449.97 159.51 449.93 159.69 449.63   L 170.24 432.44   C 170.40 432.19 170.71 432.08 170.99 432.19   C 175.55 433.96 178.32 437.46 181.95 440.46   C 182.21 440.67 182.53 440.78 182.85 440.75   L 183.50 440.71   Z"/>
<path fill="#f8f4f1" d="   M 529.37 435.50   L 537.21 456.50   L 527.22 455.56   C 527.51 448.72 528.22 442.03 529.37 435.50   Z"/>
<path fill="#008095" d="   M 213.25 441.71   C 222.52 447.51 231.27 454.03 239.48 461.27   C 240.09 461.81 240.54 462.36 240.83 462.92   C 241.05 463.34 240.76 463.85 240.28 463.87   C 220.23 464.61 200.95 462.74 182.46 458.25   L 183.50 440.71   C 184.63 440.26 185.97 440.11 187.50 440.25   C 194.90 440.92 203.48 441.40 213.25 441.71   Z"/>
<path fill="#ff6a55" d="   M 372.00 442.96   L 376.21 452.00   L 377.53 455.03   C 378.98 458.34 380.61 461.03 380.52 464.77   C 380.35 472.33 380.32 479.61 380.43 486.60   C 380.44 487.50 379.72 488.23 378.83 488.23   C 352.56 488.26 326.48 488.26 300.61 488.23   C 298.24 488.23 293.86 487.70 290.40 488.23   C 289.87 488.31 289.40 487.89 289.42 487.35   C 289.69 478.98 289.81 470.84 289.76 462.93   C 289.74 459.63 291.72 456.96 292.96 454.00   L 293.04 453.75   L 296.79 445.75   L 297.57 445.00   C 297.79 444.79 297.92 444.51 297.93 444.21   C 298.05 441.88 299.34 440.72 301.80 440.72   C 324.47 440.73 347.52 440.01 370.12 441.06   C 370.41 441.07 370.66 441.26 370.76 441.54   C 370.99 442.21 371.40 442.68 372.00 442.96   Z   M 327.95 463.90   C 328.01 467.35 328.02 470.97 327.99 474.75   C 327.92 482.44 342.85 480.46 343.29 476.76   C 343.82 472.44 343.95 468.19 343.68 464.01   C 343.65 463.46 344.08 463.00 344.63 463.00   L 377.23 462.99   C 377.54 462.99 377.81 462.80 377.92 462.51   C 378.45 461.07 377.48 460.50 376.14 460.50   C 365.93 460.49 355.43 460.50 344.62 460.52   C 344.15 460.52 343.77 460.14 343.75 459.67   C 343.61 455.88 343.79 452.84 339.26 451.98   C 336.01 451.37 332.83 451.63 329.72 452.77   C 328.82 453.10 328.20 453.93 328.15 454.88   L 327.86 459.82   C 327.85 460.11 327.63 460.35 327.34 460.39   C 325.50 460.67 323.22 460.72 320.50 460.53   C 315.79 460.20 306.95 460.32 294.00 460.88   C 293.69 460.89 293.45 461.16 293.49 461.47   L 293.59 462.33   C 293.63 462.67 293.91 462.92 294.25 462.92   L 327.08 463.04   C 327.55 463.04 327.94 463.42 327.95 463.90   Z"/>
<path fill="#0d3567" d="   M 327.95 463.90   C 327.94 463.42 327.55 463.04 327.08 463.04   L 294.25 462.92   C 293.91 462.92 293.63 462.67 293.59 462.33   L 293.49 461.47   C 293.45 461.16 293.69 460.89 294.00 460.88   C 306.95 460.32 315.79 460.20 320.50 460.53   C 323.22 460.72 325.50 460.67 327.34 460.39   C 327.63 460.35 327.85 460.11 327.86 459.82   L 328.15 454.88   C 328.20 453.93 328.82 453.10 329.72 452.77   C 332.83 451.63 336.01 451.37 339.26 451.98   C 343.79 452.84 343.61 455.88 343.75 459.67   C 343.77 460.14 344.15 460.52 344.62 460.52   C 355.43 460.50 365.93 460.49 376.14 460.50   C 377.48 460.50 378.45 461.07 377.92 462.51   C 377.81 462.80 377.54 462.99 377.23 462.99   L 344.63 463.00   C 344.08 463.00 343.65 463.46 343.68 464.01   C 343.95 468.19 343.82 472.44 343.29 476.76   C 342.85 480.46 327.92 482.44 327.99 474.75   C 328.02 470.97 328.01 467.35 327.95 463.90   Z   M 339.6215 457.0630   C 339.63 456.50 339.17 456.04 338.6104 456.0342   L 333.0906 455.9860   C 332.53 455.98 332.07 456.43 332.0618 456.9971   L 332.0385 459.6570   C 332.03 460.22 332.49 460.68 333.0496 460.6858   L 338.5694 460.7340   C 339.13 460.74 339.59 460.29 339.5982 459.7229   L 339.6215 457.0630   Z   M 339.5493 463.6255   C 339.55 463.30 339.29 463.03 338.9634 463.0314   L 332.8636 462.9889   C 332.54 462.99 332.27 463.25 332.2695 463.5747   L 332.1907 474.8545   C 332.19 475.18 332.45 475.45 332.7766 475.4486   L 338.8764 475.4911   C 339.20 475.49 339.47 475.23 339.4705 474.9053   L 339.5493 463.6255   Z"/>
<path fill="#a1dfe6" d="   M 52.61 452.43   C 97.41 452.76 128.04 452.95 144.50 453.00   C 145.83 453.01 146.92 453.10 147.75 453.29   L 125.22 490.08   C 125.07 490.33 125.09 490.65 125.28 490.88   C 129.89 496.28 137.98 490.40 141.77 487.04   C 148.35 481.20 155.42 475.91 164.72 476.41   L 165.88 487.36   C 165.91 487.65 166.15 487.86 166.44 487.87   C 185.04 488.24 203.69 492.34 218.07 494.68   C 234.17 497.29 250.73 496.90 267.76 493.51   C 271.58 492.75 278.60 483.18 280.92 479.88   C 283.55 476.14 283.63 472.10 281.14 467.77   C 280.99 467.50 280.96 467.18 281.06 466.88   L 281.46 465.75   C 283.33 461.98 284.28 457.98 284.29 453.75   L 284.43 454.10   C 284.51 454.30 284.71 454.43 284.93 454.42   L 292.96 454.00   C 291.72 456.96 289.74 459.63 289.76 462.93   C 289.81 470.84 289.69 478.98 289.42 487.35   C 289.40 487.89 289.87 488.31 290.40 488.23   C 293.86 487.70 298.24 488.23 300.61 488.23   C 326.48 488.26 352.56 488.26 378.83 488.23   C 379.72 488.23 380.44 487.50 380.43 486.60   C 380.32 479.61 380.35 472.33 380.52 464.77   C 380.61 461.03 378.98 458.34 377.53 455.03   L 397.98 454.64   C 398.43 459.98 398.42 465.43 397.96 471.00   C 395.05 471.36 387.90 473.36 389.47 477.55   C 389.88 478.65 390.85 479.52 392.38 480.17   C 400.97 483.77 409.56 483.66 418.16 479.83   C 419.82 479.09 420.57 477.69 420.57 475.98   C 420.57 475.65 420.45 475.34 420.24 475.09   C 418.02 472.59 415.20 471.23 411.79 471.00   L 411.80 455.10   C 435.78 455.23 459.76 455.40 483.75 455.59   C 487.32 455.62 490.89 455.76 494.46 456.00   C 496.18 479.83 497.66 504.00 495.32 527.83   C 495.29 528.15 495.41 528.47 495.65 528.69   L 496.54 529.50   C 491.98 534.53 484.85 534.83 477.75 536.70   C 472.69 538.04 467.53 540.77 469.18 546.79   C 469.26 547.06 469.50 547.25 469.78 547.25   L 522.03 547.25   C 522.36 547.25 522.64 547.02 522.71 546.70   C 523.92 541.32 521.42 533.12 520.71 527.50   C 520.70 526.56 528.99 525.94 529.30 525.90   C 529.58 525.86 529.77 525.60 529.74 525.32   C 526.60 502.11 525.76 478.85 527.22 455.56   L 537.21 456.50   L 560.04 516.00   C 554.48 518.10 535.30 520.29 538.86 530.04   C 538.96 530.32 539.23 530.50 539.52 530.50   L 586.05 530.50   C 586.83 530.50 587.45 529.83 587.40 529.05   C 586.98 522.90 585.58 517.14 583.21 511.75   C 583.30 492.94 579.01 474.82 574.29 456.75   C 575.36 456.34 576.24 456.14 576.94 456.15   C 598.25 456.54 614.62 456.67 626.06 456.56   C 629.38 456.52 632.51 456.92 635.44 457.76   C 639.77 464.78 641.12 472.20 639.49 480.01   C 637.64 488.92 633.15 496.93 626.02 504.04   C 614.98 515.07 603.53 525.13 594.25 538.23   C 590.24 543.89 586.21 549.54 582.18 555.19   C 540.44 613.56 465.87 617.91 402.25 603.46   C 382.70 599.02 363.15 593.70 343.45 590.04   C 314.57 584.69 285.44 581.31 256.06 579.92   C 204.03 577.45 148.44 588.21 100.47 560.94   C 72.90 545.27 60.93 516.04 55.54 485.74   C 53.35 473.43 52.38 462.32 52.61 452.43   Z"/>
<rect fill="#ff6a55" x="-3.78" y="-2.35" transform="translate(335.83,458.36) rotate(0.5)" width="7.56" height="4.70" rx="1.02"/>
<rect fill="#ff6a55" x="-3.64" y="-6.23" transform="translate(335.87,469.24) rotate(0.4)" width="7.28" height="12.46" rx="0.59"/>
<path fill="#0d3567" d="   M 397.96 471.00   C 398.30 471.87 398.38 472.83 398.21 473.87   C 398.08 474.66 398.51 475.43 399.26 475.72   C 402.85 477.11 406.66 477.10 410.69 475.69   C 411.29 475.47 411.65 474.87 411.56 474.24   C 411.38 472.96 411.46 471.88 411.79 471.00   C 415.20 471.23 418.02 472.59 420.24 475.09   C 420.45 475.34 420.57 475.65 420.57 475.98   C 420.57 477.69 419.82 479.09 418.16 479.83   C 409.56 483.66 400.97 483.77 392.38 480.17   C 390.85 479.52 389.88 478.65 389.47 477.55   C 387.90 473.36 395.05 471.36 397.96 471.00   Z"/>
<path fill="#0d3567" d="   M 583.21 511.75   C 585.58 517.14 586.98 522.90 587.40 529.05   C 587.45 529.83 586.83 530.50 586.05 530.50   L 539.52 530.50   C 539.23 530.50 538.96 530.32 538.86 530.04   C 535.30 520.29 554.48 518.10 560.04 516.00   C 567.22 516.54 574.07 515.33 580.59 512.37   C 581.42 511.99 582.30 511.78 583.21 511.75   Z"/>
<path fill="#0d3567" d="   M 520.71 527.50   C 521.42 533.12 523.92 541.32 522.71 546.70   C 522.64 547.02 522.36 547.25 522.03 547.25   L 469.78 547.25   C 469.50 547.25 469.26 547.06 469.18 546.79   C 467.53 540.77 472.69 538.04 477.75 536.70   C 484.85 534.83 491.98 534.53 496.54 529.50   C 503.85 527.64 512.19 527.51 519.77 526.86   C 520.04 526.84 520.30 526.95 520.46 527.17   L 520.71 527.50   Z"/>
<!-- Code injected by live-server -->
<script>
	// <![CDATA[  <-- For SVG support
	if ('WebSocket' in window) {
		(function () {
			function refreshCSS() {
				var sheets = [].slice.call(document.getElementsByTagName("link"));
				var head = document.getElementsByTagName("head")[0];
				for (var i = 0; i < sheets.length; ++i) {
					var elem = sheets[i];
					var parent = elem.parentElement || head;
					parent.removeChild(elem);
					var rel = elem.rel;
					if (elem.href && typeof rel != "string" || rel.length == 0 || rel.toLowerCase() == "stylesheet") {
						var url = elem.href.replace(/(&|\?)_cacheOverride=\d+/, '');
						elem.href = url + (url.indexOf('?') >= 0 ? '&' : '?') + '_cacheOverride=' + (new Date().valueOf());
					}
					parent.appendChild(elem);
				}
			}
			var protocol = window.location.protocol === 'http:' ? 'ws://' : 'wss://';
			var address = protocol + window.location.host + window.location.pathname + '/ws';
			var socket = new WebSocket(address);
			socket.onmessage = function (msg) {
				if (msg.data == 'reload') window.location.reload();
				else if (msg.data == 'refreshcss') refreshCSS();
			};
			if (sessionStorage && !sessionStorage.getItem('IsThisFirstTime_Log_From_LiveServer')) {
				console.log('Live reload enabled.');
				sessionStorage.setItem('IsThisFirstTime_Log_From_LiveServer', true);
			}
		})();
	}
	else {
		console.error('Upgrade your browser. This Browser is NOT supported WebSocket for Live-Reloading.');
	}
	// ]]>
</script>
</svg>